<svg xmlns="http://www.w3.org/2000/svg" xmlns:xlink="http://www.w3.org/1999/xlink" viewBox="0 0 664.44 664.44"><defs><style>.cls-1{fill:url(#New_Gradient_Swatch_1);}.cls-2{fill:#294154;}.cls-3{fill:url(#New_Gradient_Swatch_1-2);}.cls-4{fill:url(#New_Gradient_Swatch_1-3);}.cls-5{fill:url(#New_Gradient_Swatch_1-4);}.cls-6{fill:url(#New_Gradient_Swatch_1-5);}.cls-7{fill:url(#New_Gradient_Swatch_1-6);}</style><linearGradient id="New_Gradient_Swatch_1" x1="3.45" y1="349.72" x2="638.74" y2="349.72" gradientUnits="userSpaceOnUse"><stop offset="0" stop-color="#a67f3b"/><stop offset="0.07" stop-color="#b9974d"/><stop offset="0.19" stop-color="#d4b867"/><stop offset="0.31" stop-color="#e7d079"/><stop offset="0.41" stop-color="#f3df84"/><stop offset="0.5" stop-color="#f7e488"/><stop offset="0.58" stop-color="#f2de83"/><stop offset="0.7" stop-color="#e4cc76"/><stop offset="0.83" stop-color="#ccae5f"/><stop offset="0.98" stop-color="#ab8640"/><stop offset="1" stop-color="#a67f3b"/></linearGradient><linearGradient id="New_Gradient_Swatch_1-2" x1="297.28" y1="239.68" x2="629.44" y2="239.68" xlink:href="#New_Gradient_Swatch_1"/><linearGradient id="New_Gradient_Swatch_1-3" x1="35" y1="197.78" x2="350.74" y2="197.78" xlink:href="#New_Gradient_Swatch_1"/><linearGradient id="New_Gradient_Swatch_1-4" x1="127.39" y1="366.54" x2="247.68" y2="366.54" xlink:href="#New_Gradient_Swatch_1"/><linearGradient id="New_Gradient_Swatch_1-5" x1="335.71" y1="394.95" x2="453.77" y2="394.95" xlink:href="#New_Gradient_Swatch_1"/><linearGradient id="New_Gradient_Swatch_1-6" x1="252.53" y1="481.77" x2="335.45" y2="465.84" xlink:href="#New_Gradient_Swatch_1"/></defs><g id="Layer_2" data-name="Layer 2"><g id="Layer_1-2" data-name="Layer 1"><path class="cls-1" d="M332.22,35a297.43,297.43,0,0,0-71.41,8.64,437.7,437.7,0,0,0,36.47,92.08c22.32-30.95,40.89-64.59,53.46-100.15Q341.55,35,332.22,35ZM607.78,443.8c-21.15-13.2-41.23-29-61-44.7-67.36-53.36-135.29-107.29-190.91-175.5a536.72,536.72,0,0,1-58.59-87.88,503.27,503.27,0,0,1-36.36,44.66c-55.61,61-123.55,109.21-190.9,156.93-11.08,7.85-22.27,15.75-33.68,23.25-10.72,7.05-21.65,13.76-32.89,19.75A332,332,0,0,0,332.22,664.44a332.53,332.53,0,0,0,306.1-202.89l.42-1A262.79,262.79,0,0,1,607.78,443.8Z"/><path class="cls-2" d="M638.32,202.89A332,332,0,0,0,360.83,1.21Q346.64,0,332.22,0A332.53,332.53,0,0,0,3.45,380.31c11.24-6,22.17-12.7,32.89-19.75Q35,346.57,35,332.22C35,192.69,131.15,75.61,260.81,43.64A297.43,297.43,0,0,1,332.22,35q9.33,0,18.52.57c155.52,9.56,278.7,138.72,278.7,296.65A296.26,296.26,0,0,1,607.78,443.8a262.79,262.79,0,0,0,31,16.74,333.22,333.22,0,0,0-.42-257.65Z"/><path class="cls-3" d="M629.44,332.22A296.26,296.26,0,0,1,607.78,443.8c-21.15-13.2-41.23-29-61-44.7-67.36-53.36-135.29-107.29-190.91-175.5a536.72,536.72,0,0,1-58.59-87.88c22.32-30.95,40.89-64.59,53.46-100.15C506.26,45.13,629.44,174.29,629.44,332.22Z"/><path class="cls-2" d="M607.78,443.8C563.66,552.66,456.91,629.44,332.22,629.44c-154.59,0-281.61-118-295.88-268.88,11.41-7.5,22.6-15.4,33.68-23.25,67.35-47.72,135.29-95.94,190.9-156.93a503.27,503.27,0,0,0,36.36-44.66,536.72,536.72,0,0,0,58.59,87.88c55.62,68.21,123.55,122.14,190.91,175.5C566.55,414.77,586.63,430.6,607.78,443.8Z"/><path class="cls-4" d="M332.22,35a297.43,297.43,0,0,0-71.41,8.64C131.15,75.61,35,192.69,35,332.22q0,14.34,1.34,28.34c11.41-7.5,22.6-15.4,33.68-23.25,67.35-47.72,135.29-95.94,190.9-156.93a503.27,503.27,0,0,0,36.36-44.66c22.32-30.95,40.89-64.59,53.46-100.15Q341.55,35,332.22,35Z"/><path class="cls-2" d="M332.22,33.5A301.26,301.26,0,0,0,269.85,40,294.93,294.93,0,0,0,223.33,54,298.59,298.59,0,0,0,33.77,344.9q.33,7.85,1.07,15.66a1.52,1.52,0,0,0,2.26,1.3c13.36-8.8,26.39-18.09,39.44-27.34q18.25-12.94,36.43-26c24-17.32,47.66-35,70.57-53.76a771.08,771.08,0,0,0,65.76-59.82A515.61,515.61,0,0,0,307,124.38a400.38,400.38,0,0,0,41.31-78c1.35-3.44,2.63-6.91,3.87-10.39a1.52,1.52,0,0,0-1.45-1.9q-9.25-.57-18.52-.57a1.5,1.5,0,0,0,0,3q9.27,0,18.52.57l-1.45-1.9a385.47,385.47,0,0,1-39.2,79.07,494.68,494.68,0,0,1-56.22,71.55,729,729,0,0,1-64.3,60.09c-22.65,18.92-46.17,36.76-70,54.15-24.48,17.84-49.11,35.58-74.14,52.64q-4.91,3.33-9.85,6.59l2.26,1.3a300.68,300.68,0,0,1-.18-54.75A294.57,294.57,0,0,1,60,216.55a296.9,296.9,0,0,1,154-155.45A294.62,294.62,0,0,1,316.85,36.89c5.12-.26,10.24-.38,15.37-.39A1.5,1.5,0,0,0,332.22,33.5Z"/><path class="cls-2" d="M246.93,377.29c-26.4,6.75-44.46-17.9-67.32-25.23-10.34-3.32-22.37-3.21-31.35,2.92-10.09,6.89-12.5,18.4-18.28,28.32"/><path class="cls-5" d="M244.54,368.61a39.06,39.06,0,0,1-4.31.84l2.4-.32a37.53,37.53,0,0,1-9.53,0l2.39.32a46.39,46.39,0,0,1-11.71-3.34l2.15.91c-13.07-5.59-23.88-15.3-37-20.91-8.53-3.67-17.79-6.06-27.16-5a42.39,42.39,0,0,0-15.71,4.64,34.64,34.64,0,0,0-10.51,8.79A62.72,62.72,0,0,0,128,366.92c-1.88,4-3.61,8-5.82,11.84-2.35,4.08-1.08,10,3.23,12.31a9.16,9.16,0,0,0,12.32-3.23c4.17-7.23,6.65-15.4,11.75-22.09l-1.41,1.82a30.62,30.62,0,0,1,5.25-5.3l-1.82,1.41a28.85,28.85,0,0,1,6.18-3.58l-2.15.91a33.07,33.07,0,0,1,8.06-2.13l-2.39.32a40.85,40.85,0,0,1,10.48.07l-2.39-.33a49.73,49.73,0,0,1,12.27,3.42l-2.15-.91c8.49,3.6,16.06,8.94,23.85,13.79,8.09,5,16.91,9.9,26.44,11.42a47.92,47.92,0,0,0,19.59-.69c4.57-1.15,7.76-6.52,6.29-11.08a9.18,9.18,0,0,0-11.07-6.28Z"/><path class="cls-2" d="M337,388.11c24.77,11.36,47-9.66,70.75-12.79,10.77-1.42,22.58.85,30.32,8.48,8.69,8.59,9,20.33,12.92,31.13"/><path class="cls-6" d="M332.42,395.88a48.21,48.21,0,0,0,18.39,4.54,56.22,56.22,0,0,0,15.85-1.94c9.51-2.43,18.36-6.8,27.53-10.21A75,75,0,0,1,410.1,384l-2.39.32a46,46,0,0,1,12,0l-2.39-.32a38.4,38.4,0,0,1,9.23,2.47l-2.15-.9a30.9,30.9,0,0,1,6.55,3.76l-1.83-1.41a28.4,28.4,0,0,1,5,5l-1.41-1.82a32.89,32.89,0,0,1,4,7l-.9-2.15c2.9,6.9,4,14.38,6.47,21.41a9.6,9.6,0,0,0,4.14,5.38,9.18,9.18,0,0,0,6.93.91c4.36-1.41,8-6.32,6.29-11.07-1.36-3.79-2.3-7.7-3.32-11.59a76.8,76.8,0,0,0-4.53-13,35.56,35.56,0,0,0-8.22-11.29,41.05,41.05,0,0,0-13.34-8c-8.7-3.3-18.42-3.31-27.46-1.64-7.73,1.42-15.05,4.44-22.29,7.41-8.12,3.32-16.35,6.76-25.1,7.94l2.39-.32a41.72,41.72,0,0,1-10.65,0l2.39.32a37.47,37.47,0,0,1-9-2.49l2.15.91c-.39-.17-.77-.33-1.15-.51a9.76,9.76,0,0,0-6.93-.9,9,9,0,0,0-6.29,11.07c.68,2.09,2.05,4.43,4.14,5.38Z"/><path class="cls-7" d="M244.84,468.25c2.31,6.84,7.19,12,13,16.09a59.46,59.46,0,0,0,20.8,9,73.6,73.6,0,0,0,25.78,1.56c8.29-1,16.51-3,23.84-7.18,6.62-3.73,13.32-10.29,12.81-18.53-.24-3.91-3.28-7.69-7.5-7.5-3.86.17-7.76,3.31-7.5,7.5a10,10,0,0,1,0,1.55l.26-2a9.37,9.37,0,0,1-.65,2.37l.76-1.79a10.73,10.73,0,0,1-.77,1.46c-.15.24-.32.47-.48.71-.34.54,1.45-1.78.47-.62a16.7,16.7,0,0,1-1.3,1.36l-.62.56c-.24.21-1.34,1.07-.14.15s.06-.05-.2.13l-.76.52q-.94.62-1.92,1.17a43.27,43.27,0,0,1-4.33,2.11l1.79-.76a61.24,61.24,0,0,1-15.11,4l2-.27a68.51,68.51,0,0,1-17.81,0l2,.27a65.4,65.4,0,0,1-16.61-4.45l1.79.76a51.26,51.26,0,0,1-6.06-3.05c-.95-.57-1.89-1.17-2.8-1.81-.32-.23-1.69-1.27-.53-.37s-.31-.27-.58-.5c-.72-.61-1.42-1.26-2.08-1.94-.3-.31-.59-.62-.88-.95s-1.36-1.67-.4-.42,0,0-.22-.33-.48-.73-.71-1.11a19.12,19.12,0,0,1-1.14-2.26l.75,1.79q-.23-.57-.42-1.14c-1.25-3.71-5.22-6.54-9.23-5.24-3.69,1.19-6.58,5.25-5.24,9.23Z"/></g></g></svg>