<svg xmlns="http://www.w3.org/2000/svg" xmlns:xlink="http://www.w3.org/1999/xlink" viewBox="0 0 647.91 772.79"><defs><style>.cls-1{fill:url(#New_Gradient_Swatch_1);}.cls-2{fill:#294154;}</style><linearGradient id="New_Gradient_Swatch_1" x1="35.01" y1="386.39" x2="612.97" y2="386.39" gradientUnits="userSpaceOnUse"><stop offset="0" stop-color="#a67f3b"/><stop offset="0.07" stop-color="#b9974d"/><stop offset="0.19" stop-color="#d4b867"/><stop offset="0.31" stop-color="#e7d079"/><stop offset="0.41" stop-color="#f3df84"/><stop offset="0.5" stop-color="#f7e488"/><stop offset="0.58" stop-color="#f2de83"/><stop offset="0.7" stop-color="#e4cc76"/><stop offset="0.83" stop-color="#ccae5f"/><stop offset="0.98" stop-color="#ab8640"/><stop offset="1" stop-color="#a67f3b"/></linearGradient></defs><g id="Layer_2" data-name="Layer 2"><g id="Layer_1-2" data-name="Layer 1"><path class="cls-1" d="M556.75,613.79c-6-8.9-12.06-17.85-18-26.51q-4.32-6.31-8.63-12.66l-.08-.13-26.73-38.84-.08-.11-26.95-38.71c-8.12-11.63-17.05-24.27-27.33-38.7s-19.32-26.88-27.69-38.36l-27.82-38c-6.48-8.82-13.08-18.19-20.38-29,4.36-7.43,8.95-15.29,13.87-23.74,9-15.54,16.77-29.14,23.85-41.63l23.45-41.58.07-.11L457.59,204l.07-.14,7.56-13.73c5.1-9.25,10.38-18.81,15.48-28.24,18.41-33.79,32.38-60,45.27-85a24.51,24.51,0,0,0-7.73-31.31l-8.85-6.19a24.49,24.49,0,0,0-32.06,3.47c-19,20.67-38.88,42.77-64.26,71.6-7.19,8.11-14.38,16.36-21.34,24.35l-10.25,11.74a.52.52,0,0,1-.1.11l-31.23,36.15a.39.39,0,0,0-.08.1L319,223.27c-6.82,8-14,16.55-21.87,25.88-6.25-6.73-12.86-13.45-20-20.27-11.83-11.34-24.07-22.33-36.39-32.68C227.47,185,214.67,175,201.73,165.64c-13.77-10-28.07-19.45-42.56-28.14-8.37-5-15.91-9.21-23.06-12.9a279.09,279.09,0,0,0-25.47-11.95,24.5,24.5,0,0,0-25,4.1l-8.21,7a24.51,24.51,0,0,0-8,24.07,276,276,0,0,0,7.78,27c2.52,7.65,5.5,15.76,9.13,24.87,6.27,15.64,13.36,31.25,21,46.34,7.21,14.31,15.07,28.52,24,43.47,8.28,13.78,17.21,27.6,26.55,41.1a464.21,464.21,0,0,0,30.27,39.2c1.37,1.59,2.78,3.18,4.2,4.78-2.14,2.38-4.27,4.77-6.42,7.15-6.88,7.63-14,15.53-20.92,23.5-12,13.83-22.15,26.65-31,39.19a473.84,473.84,0,0,0-26.75,42.45c-8.11,14.46-15.79,29.23-22.84,43.92-7.62,15.9-14.2,31-20.1,46-6.34,16-12,32.39-16.9,48.75-2.78,9.45-5,17.89-6.87,25.8-1.73,7.35-3.91,17.15-5.35,27.89a24.53,24.53,0,0,0,10.24,23.33l8.85,6.19a24.49,24.49,0,0,0,25.42,1.62c9.6-5,18.06-10.43,24.37-14.58,6.8-4.44,14-9.45,21.93-15.34,13.66-10.17,27.1-21.12,39.91-32.5,12.13-10.74,24-22.08,36.35-34.7,11.37-11.63,22.61-23.91,33.45-36.52a470.14,470.14,0,0,0,30.67-39.64c8.75-12.65,17.31-26.59,26.21-42.63,2.7-4.89,5.37-9.83,8-14.74l23.1,23.33c10,10,20.91,20.93,33.53,33.41s23.7,23.23,33.89,33.07l33.95,32.69.09.09,34.14,32.52.12.11,11.24,10.6c7.58,7.16,15.42,14.57,23.18,21.77,27.81,26,49.42,45.8,70.08,64.24a24.5,24.5,0,0,0,32.21.37l8.22-7a24.5,24.5,0,0,0,4.72-31.87C594.11,669.71,578,645.24,556.75,613.79Z"/><path class="cls-2" d="M638.55,674.15c-15.12-23.57-31.4-48.22-52.78-79.92-6.13-9.15-12.47-18.45-18.07-26.67L559.12,555l-26.87-39.06L505,476.77c-8.17-11.68-17.16-24.42-27.56-39-10.32-14.42-19.44-27.05-27.91-38.67l-27.87-38c-2.33-3.17-4.69-6.43-7.1-9.83l2.7-4.63c9.08-15.71,16.93-29.41,24-41.94l23.46-41.58s23.52-42.22,23.58-42.34l7.3-13.25.23-.41c4.83-8.76,10.31-18.69,15.59-28.46,18.53-34,32.6-60.41,45.61-85.62a59.71,59.71,0,0,0-18.76-76l-8.85-6.19a59.5,59.5,0,0,0-77.87,8.43C432.39,40,412.42,62.27,386.84,91.33c-7.26,8.18-14.47,16.46-21.5,24.52l-.77.88-9.37,10.75c-.14.15-31.49,36.44-31.49,36.44L295,197.53c-10.37-9.72-21-19.15-31.67-28.13-14-11.76-27.43-22.27-41-32.08-14.59-10.6-29.77-20.64-45.12-29.84l-.09,0c-9-5.33-17.07-9.87-24.82-13.89a313.39,313.39,0,0,0-28.58-13.37,59.52,59.52,0,0,0-60.78,10l-8.22,7a59.34,59.34,0,0,0-19.4,58.46A310.27,310.27,0,0,0,44,185.91c2.73,8.28,6,17,9.82,26.76l0,.1c6.66,16.58,14.16,33.11,22.25,49,7.59,15.07,15.87,30,25.29,45.73,8.67,14.44,18,28.91,27.8,43,5.65,8.14,11.28,15.82,17,23.16q-3.76,4.26-7.54,8.58c-12.75,14.7-23.6,28.4-33.13,41.86a508.18,508.18,0,0,0-28.75,45.6c-8.48,15.11-16.51,30.56-23.87,45.91-8,16.67-14.9,32.48-21.08,48.23-6.71,16.94-12.73,34.31-17.92,51.72-3,10.1-5.4,19.18-7.39,27.76-1.92,8.11-4.32,19-6,31.2A59.28,59.28,0,0,0,25.4,731.24l8.85,6.19a59.5,59.5,0,0,0,61.73,4,317.17,317.17,0,0,0,27.3-16.31c7.37-4.8,15.09-10.2,23.65-16.54,14.47-10.76,28.69-22.34,42.19-34.35,12.79-11.31,25.28-23.23,38.21-36.46,11.88-12.15,23.64-25,35-38.21A505.41,505.41,0,0,0,295.2,557c4.38-6.33,8.7-12.94,13-19.91,7.47,7.46,15.55,15.49,24.49,24.33,12.72,12.52,23.88,23.41,34.15,33.34l33.95,32.68,34.67,33,10.43,9.84.74.7c7.61,7.18,15.48,14.62,23.36,21.93,28,26.19,49.79,46.15,70.62,64.74a59.4,59.4,0,0,0,39.62,15.12h0a59.49,59.49,0,0,0,38.6-14.23l8.22-7A59.73,59.73,0,0,0,638.55,674.15Zm-34.18,50.77-8.22,7a24.5,24.5,0,0,1-32.21-.37c-20.66-18.44-42.27-38.25-70.08-64.24-7.76-7.2-15.6-14.61-23.18-21.77L459.44,635l-.12-.11-34.14-32.52-.09-.09-33.95-32.69c-10.19-9.84-21.26-20.65-33.89-33.07s-23.57-23.39-33.53-33.41l-23.1-23.33c-2.63,4.91-5.3,9.85-8,14.74-8.9,16-17.46,30-26.21,42.63a470.14,470.14,0,0,1-30.67,39.64c-10.84,12.61-22.08,24.89-33.45,36.52-12.32,12.62-24.22,24-36.35,34.7-12.81,11.38-26.25,22.33-39.91,32.5-8,5.89-15.13,10.9-21.93,15.34-6.31,4.15-14.77,9.55-24.37,14.58a24.49,24.49,0,0,1-25.42-1.62l-8.85-6.19a24.53,24.53,0,0,1-10.24-23.33c1.44-10.74,3.62-20.54,5.35-27.89,1.84-7.91,4.09-16.35,6.87-25.8,4.89-16.36,10.56-32.74,16.9-48.75,5.9-15,12.48-30.08,20.1-46,7-14.69,14.73-29.46,22.84-43.92A473.84,473.84,0,0,1,134,444.45c8.88-12.54,19-25.36,31-39.19,6.93-8,14-15.87,20.92-23.5,2.15-2.38,4.28-4.77,6.42-7.15-1.42-1.6-2.83-3.19-4.2-4.78a464.21,464.21,0,0,1-30.27-39.2c-9.34-13.5-18.27-27.32-26.55-41.1-9-14.95-16.83-29.16-24-43.47-7.66-15.09-14.75-30.7-21-46.34-3.63-9.11-6.61-17.22-9.13-24.87a276,276,0,0,1-7.78-27,24.51,24.51,0,0,1,8-24.07l8.21-7a24.5,24.5,0,0,1,25-4.1,279.09,279.09,0,0,1,25.47,11.95c7.15,3.69,14.69,7.91,23.06,12.9,14.49,8.69,28.79,18.14,42.56,28.14C214.67,175,227.47,185,240.79,196.2c12.32,10.35,24.56,21.34,36.39,32.68,7.1,6.82,13.71,13.54,20,20.27,7.84-9.33,15.05-17.87,21.87-25.88L350.07,187a.39.39,0,0,1,.08-.1l31.23-36.15a.52.52,0,0,0,.1-.11l10.25-11.74c7-8,14.15-16.24,21.34-24.35,25.38-28.83,45.22-50.93,64.26-71.6a24.49,24.49,0,0,1,32.06-3.47l8.85,6.19A24.51,24.51,0,0,1,526,76.93c-12.89,25-26.86,51.19-45.27,85-5.1,9.43-10.38,19-15.48,28.24l-7.56,13.73-.07.14-23.25,41.73-.07.11-23.45,41.58C403.74,299.93,396,313.53,387,329.07c-4.92,8.45-9.51,16.31-13.87,23.74,7.3,10.78,13.9,20.15,20.38,29l27.82,38c8.37,11.48,17.42,24,27.69,38.36s19.21,27.07,27.33,38.7l26.95,38.71.08.11,26.73,38.84.08.13q4.3,6.35,8.63,12.66c5.9,8.66,12,17.61,18,26.51,21.21,31.45,37.36,55.92,52.34,79.26A24.5,24.5,0,0,1,604.37,724.92Z"/></g></g></svg>