<svg xmlns="http://www.w3.org/2000/svg" xmlns:xlink="http://www.w3.org/1999/xlink" viewBox="0 0 664.44 921.03"><defs><style>.cls-1{fill:#294154;}.cls-2{fill:url(#New_Gradient_Swatch_1);}.cls-3{fill:url(#New_Gradient_Swatch_1-2);}.cls-4{fill:url(#New_Gradient_Swatch_1-3);}.cls-5{fill:url(#New_Gradient_Swatch_1-4);}.cls-6{fill:url(#New_Gradient_Swatch_1-5);}.cls-7{fill:url(#New_Gradient_Swatch_1-6);}</style><linearGradient id="New_Gradient_Swatch_1" x1="3.45" y1="606.31" x2="638.74" y2="606.31" gradientUnits="userSpaceOnUse"><stop offset="0" stop-color="#a67f3b"/><stop offset="0.07" stop-color="#b9974d"/><stop offset="0.19" stop-color="#d4b867"/><stop offset="0.31" stop-color="#e7d079"/><stop offset="0.41" stop-color="#f3df84"/><stop offset="0.5" stop-color="#f7e488"/><stop offset="0.58" stop-color="#f2de83"/><stop offset="0.7" stop-color="#e4cc76"/><stop offset="0.83" stop-color="#ccae5f"/><stop offset="0.98" stop-color="#ab8640"/><stop offset="1" stop-color="#a67f3b"/></linearGradient><linearGradient id="New_Gradient_Swatch_1-2" x1="297.28" y1="496.28" x2="629.44" y2="496.28" xlink:href="#New_Gradient_Swatch_1"/><linearGradient id="New_Gradient_Swatch_1-3" x1="35" y1="454.37" x2="350.74" y2="454.37" xlink:href="#New_Gradient_Swatch_1"/><linearGradient id="New_Gradient_Swatch_1-4" x1="142.34" y1="658.24" x2="260.4" y2="658.24" xlink:href="#New_Gradient_Swatch_1"/><linearGradient id="New_Gradient_Swatch_1-5" x1="300.28" y1="658.2" x2="418.34" y2="658.2" xlink:href="#New_Gradient_Swatch_1"/><linearGradient id="New_Gradient_Swatch_1-6" x1="266.55" y1="776.51" x2="312.17" y2="767.75" xlink:href="#New_Gradient_Swatch_1"/></defs><g id="Layer_2" data-name="Layer 2"><g id="Layer_1-2" data-name="Layer 1"><path class="cls-1" d="M636.23,130.37h0a140.31,140.31,0,0,0-26.66-29.74A143.63,143.63,0,0,0,592.38,88.3,133.31,133.31,0,0,0,573.3,79,112,112,0,0,0,552,72.66a108.22,108.22,0,0,0-26.75-2.07c-16.11,1-32.2,5.87-49.17,15a198.16,198.16,0,0,0-59.65,50c-1.37,1.7-2.71,3.43-4,5.16-.35-2.54-.75-5.08-1.18-7.6A203.61,203.61,0,0,0,383.61,60,190.67,190.67,0,0,0,370,40.88a126.67,126.67,0,0,0-17.77-17.72,99.82,99.82,0,0,0-42-19.9A128.68,128.68,0,0,0,287.33.09,138.49,138.49,0,0,0,265.91,1,136.78,136.78,0,0,0,227.45,11.7a139,139,0,0,0-60.38,50.61,130.17,130.17,0,0,0-20.58,78.54,148.58,148.58,0,0,0,2.83,22.3,151.57,151.57,0,0,0,6.37,21.34,133.16,133.16,0,0,0,20.59,36.24c16,20.22,40,36.38,71.25,48a369.61,369.61,0,0,0,39.6,11.93l2.55.64c14.33,3.61,29.14,7.34,44.14,9a119.58,119.58,0,0,0,22.66.34,12.2,12.2,0,0,0,1,.72,16.65,16.65,0,0,0,11.7,2.46c.29,2.44.63,4.91,1,7.41.66,4.44,4.45,8.5,7.69,10.39a16.9,16.9,0,0,0,11.74,1.93c14.5,8.36,30.71,12.66,43.34,15.49,17.65,3.95,32,6.68,45.21,8.58a274.62,274.62,0,0,0,39,3.22c3.42,0,6.89-.09,10.37-.3,17.52-1.05,32.49-4.21,45.78-9.65a135.46,135.46,0,0,0,19-9.31,144.73,144.73,0,0,0,17.12-12.27,140.45,140.45,0,0,0,26.63-29.52c15.13-22.15,23.48-48.62,23.52-74.53S651.32,152.68,636.23,130.37Zm-10.4,87A113.76,113.76,0,0,1,618.76,243a122.1,122.1,0,0,1-14.15,24.17,121.49,121.49,0,0,1-19.45,19.48,112.69,112.69,0,0,1-22,12.9,119.16,119.16,0,0,1-27.13,7.19c-14.21,1.7-29.94,1.42-48-.87-8.89-1.23-18.39-2.88-29.91-5.21l-.76-.15c-9.53-1.93-19.39-3.92-28.82-6.57a130.88,130.88,0,0,1-14-4.75,85.29,85.29,0,0,1-9.7-5,15.43,15.43,0,0,0-3.62-1.57,180.06,180.06,0,0,1,.11-25.76c.22-2.77.52-5.73.92-9,.53-3.64,1.17-7.34,1.91-11,2.1-6.62,4-13.72,5.54-21.11.66-2.06,1.28-3.88,1.88-5.56,1-2.88,2.19-5.9,3.54-9.16a199.73,199.73,0,0,1,18.34-33.31c1.74-2.55,3.63-5.17,5.74-7.94a189.07,189.07,0,0,1,24.21-25.54c2.12-1.85,4.41-3.73,6.92-5.71a158.72,158.72,0,0,1,32.16-19.2,90.42,90.42,0,0,1,19.36-5.47,84.06,84.06,0,0,1,18.48.1,104.14,104.14,0,0,1,23.06,6.36,111.72,111.72,0,0,1,21.82,12.81,109.22,109.22,0,0,1,33.51,43.66,114.63,114.63,0,0,1,7.13,25.88A106.66,106.66,0,0,1,625.83,217.42ZM379.46,198.21c-.34,2.39-.77,4.93-1.34,8a212.83,212.83,0,0,0-6,22.49,184.69,184.69,0,0,1-8.94,21.93c-1.25,2.46-2.57,4.92-4,7.34a22.06,22.06,0,0,0-5.15,0l-1,.09-.5,0c-8.79.38-18.4-.53-30.22-2.87C312,253,301,250.36,288.71,247.07a318.35,318.35,0,0,1-32.41-10.28c-5.44-2.08-10.77-4.39-15.78-6.82a140,140,0,0,1-26.87-17.64A109.45,109.45,0,0,1,197.43,194a118.86,118.86,0,0,1-12.38-24.91,122.81,122.81,0,0,1-5.7-28.66,118,118,0,0,1,1.88-27.54A108.12,108.12,0,0,1,189.06,90a110.37,110.37,0,0,1,13.67-20.38,120.08,120.08,0,0,1,20.53-18.17,123.33,123.33,0,0,1,26.06-13A116,116,0,0,1,276,33.09a107.45,107.45,0,0,1,24.89,1.74,92.14,92.14,0,0,1,19.06,6.47,79,79,0,0,1,13.85,9.28A120.88,120.88,0,0,1,352,71.71a179.58,179.58,0,0,1,19.83,39.89,194.21,194.21,0,0,1,8.44,37.67c.36,3,.67,6.28.92,9.8A200,200,0,0,1,379.46,198.21Z"/><path class="cls-2" d="M332.22,291.59a297.43,297.43,0,0,0-71.41,8.64,437.7,437.7,0,0,0,36.47,92.08c22.32-30.95,40.89-64.59,53.46-100.15Q341.55,291.59,332.22,291.59Zm275.56,408.8c-21.15-13.2-41.23-29-61-44.7-67.36-53.36-135.29-107.29-190.91-175.5a536.72,536.72,0,0,1-58.59-87.88A503.27,503.27,0,0,1,260.92,437C205.31,498,137.37,546.18,70,593.9c-11.08,7.85-22.27,15.75-33.68,23.25C25.62,624.2,14.69,630.91,3.45,636.9A332,332,0,0,0,332.22,921a332.53,332.53,0,0,0,306.1-202.89l.42-1A262.79,262.79,0,0,1,607.78,700.39Z"/><path class="cls-1" d="M638.32,459.48A332,332,0,0,0,360.83,257.8q-14.19-1.21-28.61-1.21A332.53,332.53,0,0,0,3.45,636.9c11.24-6,22.17-12.7,32.89-19.75Q35,603.16,35,588.81c0-139.53,96.15-256.61,225.81-288.58a297.43,297.43,0,0,1,71.41-8.64q9.33,0,18.52.57c155.52,9.56,278.7,138.72,278.7,296.65a296.26,296.26,0,0,1-21.66,111.58,262.79,262.79,0,0,0,31,16.74,333.22,333.22,0,0,0-.42-257.65Z"/><path class="cls-3" d="M629.44,588.81a296.26,296.26,0,0,1-21.66,111.58c-21.15-13.2-41.23-29-61-44.7-67.36-53.36-135.29-107.29-190.91-175.5a536.72,536.72,0,0,1-58.59-87.88c22.32-30.95,40.89-64.59,53.46-100.15C506.26,301.72,629.44,430.88,629.44,588.81Z"/><path class="cls-1" d="M607.78,700.39C563.66,809.25,456.91,886,332.22,886,177.63,886,50.61,768,36.34,617.15c11.41-7.5,22.6-15.4,33.68-23.25C137.37,546.18,205.31,498,260.92,437a503.27,503.27,0,0,0,36.36-44.66,536.72,536.72,0,0,0,58.59,87.88c55.62,68.21,123.55,122.14,190.91,175.5C566.55,671.36,586.63,687.19,607.78,700.39Z"/><path class="cls-4" d="M332.22,291.59a297.43,297.43,0,0,0-71.41,8.64C131.15,332.2,35,449.28,35,588.81q0,14.34,1.34,28.34c11.41-7.5,22.6-15.4,33.68-23.25C137.37,546.18,205.31,498,260.92,437a503.27,503.27,0,0,0,36.36-44.66c22.32-30.95,40.89-64.59,53.46-100.15Q341.55,291.59,332.22,291.59Z"/><path class="cls-1" d="M332.22,290.09a301.94,301.94,0,0,0-62.37,6.53,294.93,294.93,0,0,0-46.52,13.95A298.6,298.6,0,0,0,33.77,601.49q.33,7.85,1.07,15.66a1.52,1.52,0,0,0,2.26,1.3c13.36-8.8,26.39-18.08,39.44-27.33q18.25-12.95,36.43-26c24-17.33,47.66-35.05,70.57-53.76a771.19,771.19,0,0,0,65.76-59.83A515,515,0,0,0,307,381a400.1,400.1,0,0,0,41.31-78c1.35-3.44,2.63-6.91,3.87-10.39a1.53,1.53,0,0,0-1.45-1.9q-9.25-.56-18.52-.57a1.5,1.5,0,0,0,0,3q9.27,0,18.52.57l-1.45-1.9a385.55,385.55,0,0,1-39.2,79.08,494.59,494.59,0,0,1-56.22,71.54,730.64,730.64,0,0,1-64.3,60.1c-22.65,18.91-46.17,36.76-70,54.14-24.48,17.85-49.11,35.59-74.14,52.64q-4.91,3.35-9.85,6.6l2.26,1.29a300.68,300.68,0,0,1-.18-54.75,293.47,293.47,0,0,1,42.93-129A296.71,296.71,0,0,1,213.92,317.7a294.89,294.89,0,0,1,102.93-24.22c5.12-.26,10.24-.38,15.37-.39A1.5,1.5,0,0,0,332.22,290.09Z"/><path class="cls-1" d="M143.59,651.4c24.76,11.36,46.95-9.66,70.74-12.79,10.78-1.42,22.59.85,30.32,8.48,8.7,8.59,9,20.34,12.93,31.13"/><path class="cls-5" d="M139.05,659.17a48.16,48.16,0,0,0,18.39,4.54,56.22,56.22,0,0,0,15.85-1.94c9.51-2.42,18.36-6.8,27.52-10.21a75.12,75.12,0,0,1,15.91-4.27l-2.39.32a46.48,46.48,0,0,1,12,0l-2.4-.32a37.72,37.72,0,0,1,9.23,2.48l-2.15-.91a30.65,30.65,0,0,1,6.55,3.76l-1.82-1.41a28.45,28.45,0,0,1,5,5l-1.41-1.83a33.14,33.14,0,0,1,4,7l-.91-2.15c2.91,6.89,4,14.38,6.48,21.41A9.69,9.69,0,0,0,253,686a9.24,9.24,0,0,0,6.94.9c4.35-1.41,8-6.32,6.28-11.07-1.35-3.79-2.29-7.7-3.31-11.58a76.9,76.9,0,0,0-4.53-13,35.44,35.44,0,0,0-8.23-11.29,41,41,0,0,0-13.33-8c-8.71-3.31-18.42-3.32-27.47-1.65-7.73,1.42-15,4.44-22.28,7.41-8.12,3.33-16.35,6.76-25.11,7.94l2.39-.32a41.19,41.19,0,0,1-10.64,0l2.39.32a37.67,37.67,0,0,1-9-2.49l2.15.91-1.14-.5a9.72,9.72,0,0,0-6.93-.91,9.18,9.18,0,0,0-5.38,4.13,9.07,9.07,0,0,0-.91,6.94c.68,2.1,2,4.43,4.14,5.38Z"/><path class="cls-1" d="M417.09,651.4c-24.76,11.36-46.95-9.66-70.74-12.79-10.78-1.42-22.59.85-30.32,8.48-8.7,8.59-9,20.34-12.93,31.13"/><path class="cls-6" d="M412.55,643.63l-1.14.5,2.15-.91a37.67,37.67,0,0,1-9,2.49l2.39-.32a41.27,41.27,0,0,1-10.65,0l2.4.32C383,643.58,369.45,634.56,354.2,631c-9-2.12-18.53-2.46-27.47.08a38.47,38.47,0,0,0-23.06,17.48c-4.89,8.49-6,18.24-9.24,27.32a9.11,9.11,0,0,0,.9,6.94,9.21,9.21,0,0,0,5.38,4.13c5.05,1.15,9.37-1.53,11.07-6.28,2.52-7,3.57-14.52,6.48-21.41l-.91,2.15a32.71,32.71,0,0,1,4-7L320,656.19a28.45,28.45,0,0,1,5-5l-1.82,1.41a30.41,30.41,0,0,1,6.55-3.76l-2.15.91a37.77,37.77,0,0,1,9.22-2.48l-2.39.32a46.48,46.48,0,0,1,12,0l-2.4-.32c9.69,1.31,18.71,5.33,27.7,9,9.51,3.87,19.35,7.36,29.76,7.47a47.47,47.47,0,0,0,20.22-4.57c1.93-.88,3.6-3.42,4.14-5.38a9.25,9.25,0,0,0-.91-6.94,9.06,9.06,0,0,0-5.38-4.13,10.31,10.31,0,0,0-6.93.91Z"/><path class="cls-7" d="M259.34,765.32c1.83,10.22,9.1,20.21,18.7,24.42a28,28,0,0,0,17.84,2,28.33,28.33,0,0,0,13.9-8,24.71,24.71,0,0,0,7.08-17.47c-.11-3.91-3.37-7.68-7.5-7.5-4,.18-7.62,3.3-7.5,7.5a16.53,16.53,0,0,1-.14,2.72l.27-2a17.26,17.26,0,0,1-1.06,3.86l.75-1.79a18.39,18.39,0,0,1-1.76,3.23c-.36.52-1.14,1.23.37-.44-.19.21-.36.44-.54.66q-.62.7-1.29,1.35c-.42.4-.86.76-1.29,1.14-1,.88,1.56-1.08.42-.34-.28.18-.56.39-.85.58a22.32,22.32,0,0,1-3.36,1.75l1.79-.75a21.84,21.84,0,0,1-5,1.36l2-.27a19.77,19.77,0,0,1-4.8,0l2,.27A22.46,22.46,0,0,1,284,776.1l1.79.75a23.53,23.53,0,0,1-4.28-2.37l-.57-.41,1,.75a6.75,6.75,0,0,1-1.09-.91c-.58-.5-1.13-1-1.66-1.59s-1-1.15-1.53-1.74c-.81-1,1.2,1.65.1.09-.21-.29-.41-.59-.6-.89a28.9,28.9,0,0,1-2.35-4.43l.76,1.79a27.89,27.89,0,0,1-1.71-5.81,7.52,7.52,0,0,0-3.45-4.48,7.49,7.49,0,0,0-10.26,2.69,8.42,8.42,0,0,0-.75,5.78Z"/></g></g></svg>