<svg xmlns="http://www.w3.org/2000/svg" xmlns:xlink="http://www.w3.org/1999/xlink" viewBox="0 0 281.7 411.16"><defs><style>.cls-1{fill:url(#New_Gradient_Swatch_1);}.cls-2{fill:#294154;}.cls-3{fill:#9b5b58;}</style><linearGradient id="New_Gradient_Swatch_1" y1="193.57" x2="281.7" y2="193.57" gradientUnits="userSpaceOnUse"><stop offset="0" stop-color="#a67f3b"/><stop offset="0.07" stop-color="#b9974d"/><stop offset="0.19" stop-color="#d4b867"/><stop offset="0.31" stop-color="#e7d079"/><stop offset="0.41" stop-color="#f3df84"/><stop offset="0.5" stop-color="#f7e488"/><stop offset="0.58" stop-color="#f2de83"/><stop offset="0.7" stop-color="#e4cc76"/><stop offset="0.83" stop-color="#ccae5f"/><stop offset="0.98" stop-color="#ab8640"/><stop offset="1" stop-color="#a67f3b"/></linearGradient></defs><g id="Layer_2" data-name="Layer 2"><g id="Layer_1-2" data-name="Layer 1"><path class="cls-1" d="M240.25,163.79c3.3-6.19,6.16-11.54,11.08-14.58a27.88,27.88,0,0,0,12.24-15.36c9.61-4.44,13.67-12.67,16.36-20.28,1.23-3.48,3.52-10-.53-17.1-.92-1.64-1.87-3.27-2.75-4.79l-.48-.83a8.48,8.48,0,0,0-7.34-4.25c-.24,0-.48,0-.71,0-1,.09-2,.16-2.95.23-2.24.17-4.56.34-6.88.64-1.33.18-2.77.39-4.28.69a9.72,9.72,0,0,0-2.64-.36,9.86,9.86,0,0,0-3.65.69,22.36,22.36,0,0,0-11.21,9.28,198.11,198.11,0,0,1-16.95,24.45,19.4,19.4,0,0,0-2.38,3.74c-.1.18-.18.36-.28.52s-.31.45-.46.67c-.51-1.09-1.06-2.15-1.64-3.18a12.22,12.22,0,0,0,4.89-4l0-.06c6-8.71,6.41-17.84,1.52-25.57q1-.85,2-1.68c5.72-1.42,9.54-5,12.3-8.15,5.05-5.72,9.18-11,8.5-18s-5.74-11.39-12.28-16.39c-5.54-4.23-11-9-16.34-13.6L213.62,35c-2-1.68-2.74-2.59-2.75-3.12a20,20,0,0,0-1.66-7.27l-.27-.7C205.14,13.33,196.45,8.71,189.47,5a9.9,9.9,0,0,0-10.37.66A57.75,57.75,0,0,0,155.24,0H155a9.81,9.81,0,0,0-9.2,6.3,9.55,9.55,0,0,0-.52,1.86c-13,1.48-23.92,8.12-32.56,19.78-2.49,3.36-5.15,6.57-8,10-2.52,3-5.13,6.21-7.61,9.47-3.47,4.57-6.77,9.27-10,13.83-1.44,2.05-2.87,4.1-4.33,6.13A8.49,8.49,0,0,0,84.55,79l.93.72a7.94,7.94,0,0,0,1.22.79,43.81,43.81,0,0,0,2.52,23.24,8.53,8.53,0,0,0,5.89,5.09c.45,1.92.88,3.81,1.28,5.69l0,.08c2.62,12.25,5.1,23.83,4.85,35.63-.34,16.81-7.65,31.43-23,46l-3,2.89A182.19,182.19,0,0,0,58.5,216.38a9.87,9.87,0,0,0-4.43,3.43c-.47.67-.94,1.33-1.39,2a63.8,63.8,0,0,1,.89-7.29c2.2-13.9,6.77-27.82,11.19-41.28l1.8-5.49c.44-1.35.9-2.71,1.37-4.08,2.28-6.68,4.86-14.25,5-22.2.42-19.51-4.78-38.88-15.46-57.59a39,39,0,0,0-4.12-5.63c-.49-.58-.94-1.12-1.33-1.62a9.89,9.89,0,0,0-13.68-1.92l-.18.13-.65.48-.36.29a27.92,27.92,0,0,0-5.43-.52c-5.74,0-11.17,1.65-16.19,3.42A9.89,9.89,0,0,0,9.1,86.28c0,.29-.1.58-.16.88a10.32,10.32,0,0,0-.15,1.91C4.64,93,2,98.57,1,105.78a111,111,0,0,0-.83,11.35v.1C.15,118.61.1,120,0,121.39a20.92,20.92,0,0,0,.07,2.88l0,.49A9.91,9.91,0,0,0,10,134.22a9.84,9.84,0,0,0,7.73-3.71,25.44,25.44,0,0,0,4.12-7.76C24.58,115.07,29,112,37.6,111.83h.5c5.51,0,8.82,1.31,9.46,8.07l0,.46a20,20,0,0,1,.16,4.3c-.45,2.16-.88,4.32-1.32,6.49l0,.15A201.12,201.12,0,0,1,41,153.8c-2.44,7.51-5.44,15.15-8.35,22.54-2.2,5.6-4.47,11.38-6.55,17.23a89.61,89.61,0,0,0-4.33,43.32c0,.12,0,.25.06.44,1.44,9.48,6.69,16.6,14.94,20.41-1.81,3.9-3.89,7.25-6.93,9.78-8.34,6.94-11.59,16.63-8.91,26.57,1.8,6.68.29,13.09-1.6,19-1,3-3.9,12.29-.33,22,5.35,14.56,19.85,26.17,36,28.89a9.15,9.15,0,0,0,1.66.15,9.89,9.89,0,0,0,4.32-1h1c.81,0,1.63,0,2.43-.08a8.47,8.47,0,0,0,7.7-6.53c2.43-10.39,1.91-13-4.24-21.2l-.32-.44c-1-1.37-2-2.66-2.92-4-7.5-10.51-7.33-17.06.69-26.94,1.41-1.74,2.88-3.48,4.33-5.18A9.82,9.82,0,0,0,74,295.93L77,292.59c2.39,2.2,4.64,4.35,6.63,6.58a1.68,1.68,0,0,1,.18.21,10.39,10.39,0,0,1-.66.88c-.68.82-1.56,1.7-2.59,2.71-.6.6-1.21,1.2-1.81,1.82A9.89,9.89,0,0,0,77,316.24l.58,1.13c.29.54.57,1.08.86,1.64,1.15,2.26,2.34,4.48,3.5,6.64,2.5,4.69,5.1,9.53,7.11,14.28,1.58,3.74,2.9,7.91,4.17,11.95,1,3.13,2,6.36,3.2,9.6,2.67,7.26,6.56,15.35,15.19,20.33a41.48,41.48,0,0,0,17.53,5.3c.28,0,.55,0,.82,0a10,10,0,0,0,4.79-1.24c2.35,0,4.85-.14,7.85-.41a8.48,8.48,0,0,0,7.73-8.64c-.23-10.38-2.1-15.46-8.35-22.62l-4.11-4.76q-2.09-2.43-4.18-4.84c-8.06-9.26-8.26-19.51-.54-28.86,11.74-14.22,17.5-30.7,16.78-47.87a10,10,0,0,0,1.06-4.44c0-.27,0-.54,0-.81v-.09c-.27-3-.34-6.16-.41-9.26,0,0,0-1.77-.06-2.47-.05-1.84.21-3.67,3.87-5.82,1.86-1.09,3.85-2.18,5.57-3.11,15.49-8.41,27.68-16.35,38.38-25a3.81,3.81,0,0,1,.35-.24,10.19,10.19,0,0,1,2.63-.34,13.86,13.86,0,0,1,6.68,1.83c2.67,1.49,4.61,3.65,5.2,5.76.86,3.09,3.46,12.49,12.07,18.44l.09.07c.24.16.48.32.73.46a9.87,9.87,0,0,0,5.08,1.41h0a40.23,40.23,0,0,0,18.59,4.57,42.73,42.73,0,0,0,4.64-.26,20.76,20.76,0,0,0,14.94-8.48,17.25,17.25,0,0,0,2.57-14.22,33.19,33.19,0,0,0-7.19-13.07c-8.5-10-18.83-17.25-28.82-24.24-2.9-2-5.85-4-8.76-6a85.3,85.3,0,0,0,12.61-17.94Z"/><path class="cls-2" d="M130,382.2l-.41,0a36.65,36.65,0,0,1-15.47-4.65c-7.24-4.18-10.53-11-13-17.76-1.15-3.14-2.15-6.31-3.12-9.38-1.31-4.15-2.66-8.43-4.33-12.39-2.1-4.95-4.75-9.9-7.31-14.68l0-.07c-1.14-2.11-2.3-4.3-3.43-6.5L82,315.08,81.42,314a5,5,0,0,1,.83-5.73q.87-.89,1.74-1.74a42.19,42.19,0,0,0,2.92-3.08,13.66,13.66,0,0,0,1-1.34,5,5,0,0,0-.34-5.85l-.29-.34c-2.28-2.55-4.81-4.93-7-6.93a5,5,0,0,0-3.35-1.3h-.27a5,5,0,0,0-3.46,1.69l-2.91,3.34a4.94,4.94,0,0,1-2.18,1.44,5.06,5.06,0,0,0-2.21,1.48c-1.69,2-3.14,3.71-4.41,5.28-9.46,11.65-9.7,20.57-.88,32.93,1,1.36,1.95,2.68,3,4.07l.32.43c5.26,7.05,5.48,8.17,3.39,17.12a3.51,3.51,0,0,1-3.21,2.73c-.69,0-1.4.07-2.1.07l-.83,0h-.13a4.92,4.92,0,0,0-2.16.5,5,5,0,0,1-2.16.49,5.69,5.69,0,0,1-.83-.07c-14.52-2.44-27.46-12.78-32.22-25.73-3-8.12-.44-16.15.4-18.79,2.12-6.64,3.79-13.89,1.65-21.81-2.18-8.11.41-15.74,7.3-21.48,3.28-2.72,5.83-6.27,8.26-11.49a4.95,4.95,0,0,0-2.41-6.58c-6.76-3.12-11-8.88-12.12-16.66,0-.16-.06-.38-.07-.41a84.84,84.84,0,0,1,4.1-41c2.05-5.76,4.3-11.5,6.49-17,2.94-7.48,6-15.2,8.46-22.86a206.66,206.66,0,0,0,5.53-23l.07-.33c.42-2.09.84-4.19,1.27-6.28a20.28,20.28,0,0,0-.08-5.8l0-.44c-1.07-11.25-8.72-12.55-14.39-12.55h-.6c-10.63.22-16.89,4.6-20.31,14.22a20.69,20.69,0,0,1-3.32,6.32A4.94,4.94,0,0,1,10,129.27a4.93,4.93,0,0,1-4.94-4.73c0-.17,0-.34,0-.53v-.09A18,18,0,0,1,5,121.65c.08-1.41.14-2.82.19-4.22v-.11a106.94,106.94,0,0,1,.78-10.86c.84-6,2.94-10.67,6.25-13.79A5,5,0,0,0,13.74,89a5,5,0,0,1,.07-1c.07-.37.12-.67.17-1a4.94,4.94,0,0,1,3.24-3.89C21.81,81.55,26.76,80,31.75,80a22.91,22.91,0,0,1,4.48.43,5.09,5.09,0,0,0,1,.09,4.94,4.94,0,0,0,3.16-1.14l.19-.16.77-.56a4.87,4.87,0,0,1,2.92-1,4.94,4.94,0,0,1,3.92,1.92c.41.53.9,1.12,1.41,1.73a33.58,33.58,0,0,1,3.65,5c10.23,17.91,15.21,36.42,14.81,55-.15,7.19-2.6,14.37-4.76,20.71-.48,1.39-1,2.78-1.4,4.15-.57,1.76-1.15,3.51-1.72,5.27l-.07.21c-4.48,13.65-9.11,27.76-11.38,42a66,66,0,0,0-.94,7.89,4.94,4.94,0,0,0,3.41,4.88,4.81,4.81,0,0,0,1.53.25,4.94,4.94,0,0,0,4.1-2.18c.43-.63.86-1.25,1.31-1.88A4.9,4.9,0,0,1,60.3,221a5,5,0,0,0,2-1.48,179.39,179.39,0,0,1,16.28-16.76l.2-.19,2.87-2.71c16.36-15.57,24.15-31.31,24.53-49.52.26-12.38-2.28-24.23-5-36.77l0-.1c-.37-1.71-.78-3.55-1.3-5.77A5,5,0,0,0,96.27,104a3.53,3.53,0,0,1-2.45-2.12,38.79,38.79,0,0,1-2.23-20.67A4.93,4.93,0,0,0,89,76.13a3.48,3.48,0,0,1-.51-.34l-.91-.7a3.53,3.53,0,0,1-.74-4.86Q89,67.16,91.2,64.06c3.19-4.55,6.45-9.2,9.85-13.67,2.43-3.2,5-6.31,7.48-9.32,2.86-3.46,5.56-6.72,8.12-10.17,7.79-10.51,17.59-16.51,29.15-17.83a4.93,4.93,0,0,0,4.31-4,5.82,5.82,0,0,1,.26-.93A4.9,4.9,0,0,1,155,5h.13A52.55,52.55,0,0,1,177,10.13a5,5,0,0,0,5-.42,4.93,4.93,0,0,1,5.19-.34c6.55,3.48,14,7.43,17.13,16.2.09.24.18.49.28.74l0,.08a15.09,15.09,0,0,1,1.33,5.53c0,2.76,2,4.64,4.46,6.81l1.82,1.58c5.36,4.65,10.91,9.47,16.58,13.8,6.66,5.08,9.9,8.31,10.36,12.93s-2.11,8.37-7.29,14.23c-2.35,2.66-5.35,5.53-9.79,6.63a5,5,0,0,0-2,1c-.67.56-1.35,1.12-2,1.7a4.93,4.93,0,0,0-1,6.43c4.91,7.77,1.94,15.24-1.42,20.13a7.32,7.32,0,0,1-2.92,2.36,4.95,4.95,0,0,0-2.23,6.94c.52.92,1,1.86,1.44,2.8a5,5,0,0,0,4,2.86l.47,0a4.93,4.93,0,0,0,4-2.07c.19-.26.37-.53.55-.8a2.13,2.13,0,0,0,.16-.25c.12-.2.23-.41.34-.64l.06-.11a15,15,0,0,1,1.78-2.84,200.52,200.52,0,0,0,17.39-25.06,17.49,17.49,0,0,1,8.8-7.24,5,5,0,0,1,3.15-.16,4.94,4.94,0,0,0,1.32.18,4.5,4.5,0,0,0,1-.1c1.46-.29,2.88-.49,4-.63,2.18-.29,4.42-.45,6.59-.61l3-.23.3,0a3.54,3.54,0,0,1,3.06,1.77l.48.83c.87,1.52,1.81,3.13,2.72,4.76,2.94,5.17,1.28,9.89.17,13-2.43,6.88-5.78,13.75-13.77,17.44a4.93,4.93,0,0,0-2.62,2.95A23.07,23.07,0,0,1,248.73,145c-6.06,3.74-9.36,9.92-12.85,16.46l-.46.86a80,80,0,0,1-11.88,16.92,5,5,0,0,0,.85,7.46c2.43,1.64,5.6,3.81,8.71,6,9.73,6.8,19.79,13.83,27.87,23.38a28.1,28.1,0,0,1,6.17,11.08,12.31,12.31,0,0,1-1.84,10.19,15.81,15.81,0,0,1-11.41,6.38,37.84,37.84,0,0,1-4.1.23,35.26,35.26,0,0,1-16.32-4,5,5,0,0,0-2.27-.55,5,5,0,0,1-2.59-.7l-.48-.31-.08-.06c-7.12-4.92-9.36-13-10.1-15.68-.95-3.42-3.7-6.61-7.55-8.76a18.86,18.86,0,0,0-9.1-2.45,15.24,15.24,0,0,0-3.91.49,5.33,5.33,0,0,0-1.32.57,9,9,0,0,0-.85.61c-10.46,8.44-22.42,16.22-37.65,24.48-1.76,1-3.8,2.07-5.71,3.2-5.74,3.36-6.39,7.22-6.31,10.21,0,.7.06,2.46.06,2.46.07,3.17.15,6.45.44,9.59,0,.17,0,.31,0,.45a5,5,0,0,1-.54,2.23,4.94,4.94,0,0,0-.51,2.42c.66,15.91-4.75,31.3-15.66,44.51-9.3,11.27-9.07,24.12.63,35.26l4.16,4.81.12.14c1.33,1.55,2.67,3.11,4,4.65,5.46,6.26,6.93,10.27,7.14,19.48a3.54,3.54,0,0,1-3.23,3.6c-2.86.26-5.23.38-7.44.39a5,5,0,0,0-2.37.62A5,5,0,0,1,130,382.2Z"/><path class="cls-2" d="M214,411.16a1.26,1.26,0,0,0-.64-.24Z"/><path class="cls-3" d="M206.15,54.93h.16a1.57,1.57,0,0,0,1.13-.51l.69-.79a1.41,1.41,0,0,0-.1-2l-4.42-4.07a1.42,1.42,0,0,0-1.38-.31,1.4,1.4,0,0,0-1,1.05,5.55,5.55,0,0,0,.52,4.54C202.82,54.36,204.58,54.71,206.15,54.93Z"/><path class="cls-3" d="M272,100.64c-1.08-1.91-2.18-3.81-3.18-5.55-3.37.28-6.42.43-9.44.82a38.87,38.87,0,0,0-6.69,1.35,1.45,1.45,0,0,0-.44-.63,1.39,1.39,0,0,0-1.41-.22,13.81,13.81,0,0,0-7.08,5.78,207.17,207.17,0,0,1-17.7,25.5,10.85,10.85,0,0,0-1.36,2.19,12.49,12.49,0,0,1-.71,1.27,40,40,0,0,1-13.77,12.41L208,138l.65.6a1.41,1.41,0,0,0,2.33-1.36c-2.82-12.36-11.83-19.74-20.55-26.88l-1.13-.93.41-.24,1.53-.88c1.72,4.39,5.2,6.83,10.6,7.44,1,.12,2,.27,3,.43,1.42.22,2.9.44,4.39.56a4.38,4.38,0,0,0,3.57-1.57c5.25-7.65,4.33-14.79-2.63-20.7l.6-1.6a1.42,1.42,0,0,0-1.16-1.9c-1.07-.12-2.13-.22-3.18-.31a52.13,52.13,0,0,1-6.49-.87,5.93,5.93,0,0,1-4.06-3.16,1.46,1.46,0,0,1,0-1.32c1.73-2.61,3.72-5.08,5.82-7.69l1.62-2,.5.76A12.4,12.4,0,0,0,206.92,80l.39.26c2.25,1.49,3.49,2.31,3.81,3.17s0,2.45-.62,5.62a1.43,1.43,0,0,0,.66,1.5,1.45,1.45,0,0,0,1.64-.13l2-1.68,3.52-2.94.5-.43a5,5,0,0,1,.71-.58c4.39-.47,7.25-3.08,9.68-5.84,4.51-5.1,6.74-8.29,6.42-11.55s-3.16-6-9-10.46S215.29,47.67,209.88,43l-1.81-1.57c-3-2.57-5.64-5.23-5.68-9.46a12.16,12.16,0,0,0-1.08-4.26c-.12-.31-.24-.62-.35-.93-2.7-7.48-8.9-10.78-15.47-14.27a1.43,1.43,0,0,0-1.55.15,1.4,1.4,0,0,0-.48,1.47l1.34,5A49.81,49.81,0,0,0,155,8.48a1.39,1.39,0,0,0-1.36.9,1.42,1.42,0,0,0,.39,1.58l.35.3,5,4.35-.26,0a50.46,50.46,0,0,0-6.67-.65A1.42,1.42,0,0,0,151,16.06c0,.08,0,.17-.05.26-12.74,0-23.2,5.51-31.48,16.68-5,6.69-10.59,12.89-15.63,19.53C99,59,94.43,65.68,89.73,72.28l.93.72c2.62-2.29,5.25-4.56,7.88-6.84l.83.51c-4.25,11-7,22.15-2.27,33.91l3.38-5.7c1.54,6.51,3,12.16,4.21,17.86,2.66,12.42,5.32,24.85,5,37.67-.44,21.32-10.73,37.82-25.63,52-7.16,6.81-14.54,13.42-20.53,21.21l-.24.08-1.68.55a1.46,1.46,0,0,0-.7.52,65,65,0,0,0-5.78,9.63,1.59,1.59,0,0,1-.72.6,7,7,0,0,1-8.52-3.5c-.09-.2-.18-.4-.26-.61-2.38-5.8-1.42-11.85-.49-17.7,2.31-14.57,7-28.82,11.51-42.6q.9-2.73,1.79-5.46c.45-1.39.93-2.79,1.41-4.2,2.18-6.39,4.44-13,4.58-19.65.38-17.94-4.44-35.84-14.35-53.19a29.78,29.78,0,0,0-3.25-4.38c-.51-.62-1.05-1.25-1.54-1.89a1.42,1.42,0,0,0-2-.27l-.15.11-.58.43a1.42,1.42,0,0,0-.54,1.35l.06.34c.16,1,.32,2,.51,3.13-8.11-5.39-16.13-3.3-24.29-.4a1.41,1.41,0,0,0-.93,1.11c0,.34-.11.69-.18,1a1.42,1.42,0,0,0,1.12,1.64l4.81.95c-8.28,1.56-12.49,6.47-13.78,15.7a104.36,104.36,0,0,0-.75,10.51c-.06,1.46-.11,2.93-.2,4.39a13.41,13.41,0,0,0,.06,1.81c0,.25,0,.49,0,.73a1.44,1.44,0,0,0,1,1.29,1.41,1.41,0,0,0,1.54-.46,17.38,17.38,0,0,0,2.75-5.3c3.93-11,11.42-16.31,23.56-16.56C48.61,103.12,55,108.56,56,119.09l0,.44a23.55,23.55,0,0,1,0,6.86q-.68,3.29-1.33,6.57a208.5,208.5,0,0,1-5.64,23.46c-2.52,7.76-5.57,15.52-8.52,23-2.18,5.53-4.43,11.25-6.46,17a81.34,81.34,0,0,0-3.91,39.37,1.52,1.52,0,0,0,0,.24c1.14,7.6,5.59,12.81,12.88,15.08,1.35.42,2.71.8,4,1.17l.94.26a5.47,5.47,0,0,1-.2.61l0,.13c-3.09,7.88-6,15.33-12.54,20.77-5.77,4.8-8,11.14-6.15,17.84,2.37,8.83.47,17-1.7,23.8-1.3,4.08-2.76,10.24-.46,16.5,4.27,11.61,16.4,21.26,29.5,23.46a1.41,1.41,0,0,0,1.5-.75,1.69,1.69,0,0,0,.14-.45,29.93,29.93,0,0,0,5.75.19c1.87-8,1.86-8-2.78-14.21-1.13-1.52-2.25-3-3.35-4.56-9.71-13.61-9.48-24.28,1-37.21,2.22-2.73,4.51-5.4,6.82-8.06l.58.18a1.42,1.42,0,0,0,1.49-.42l1.8-2.06q2.2-2.52,4.4-5.06c.59-.69,1.21-1.36,1.94-2.15l.51-.56c1.25,1.17,2.51,2.3,3.73,3.41a130.64,130.64,0,0,1,9.88,9.59c3.52,3.94,3.43,7.68-.27,12.14-1,1.16-2,2.22-3.17,3.35-.56.55-1.12,1.1-1.68,1.68a1.43,1.43,0,0,0-.24,1.64l.52,1c.32.6.63,1.2.94,1.81,1.12,2.18,2.3,4.38,3.43,6.5,2.6,4.86,5.29,9.88,7.45,15,1.74,4.1,3.12,8.47,4.45,12.7,1,3,2,6.17,3.07,9.22,2.25,6.13,5.2,12.3,11.47,15.92a33.29,33.29,0,0,0,14,4.19H130a1.42,1.42,0,0,0,1.29-.82,1.76,1.76,0,0,0,.12-.49,73.7,73.7,0,0,0,10.48-.3c-.19-8.51-1.33-11.58-6.26-17.24-2.78-3.19-5.52-6.41-8.3-9.6-10.42-12-11.38-26.87-.68-39.83,10.55-12.78,16.21-28,14.65-45.08l.82-.81a1.45,1.45,0,0,0,.42-1v-.13c-.3-3.25-.38-6.59-.45-9.83l-.06-2.45c-.15-5.72,2.48-10.09,8.06-13.35,2-1.16,4-2.29,5.81-3.25,15-8.16,26.82-15.83,37.1-24.12a9.25,9.25,0,0,1,3.14-1.75,21.15,21.15,0,0,1,16,2.19c4.67,2.6,8,6.58,9.24,10.89,1.13,4.09,3.26,10,8.68,13.72l.09.05.29.2a1.44,1.44,0,0,0,1.31.07,1.48,1.48,0,0,0,.59-.52,32.07,32.07,0,0,0,21.18,5c7-.77,11.75-6.11,10.21-12.2a25.41,25.41,0,0,0-5.44-9.66c-7.72-9.12-17.47-16-27.2-22.77-5.75-4-11.59-7.91-17.46-11.91a72.44,72.44,0,0,0,18.69-23c3.79-7.09,7.41-14.25,14.58-18.67a19.46,19.46,0,0,0,8.83-11.45c.41-1.38,1.35-3.24,2.5-3.65,7.78-2.79,11.09-8.71,13.72-16.15C273.29,106.91,274,104.05,272,100.64ZM230.68,229.88c-.15.68-.31,1.37-.47,2.06-2.8-2.45-4.72-5.93-6.13-11s-5.26-9.64-10.58-12.61a24,24,0,0,0-18.15-2.44,12,12,0,0,0-4.13,2.27c-10.15,8.18-21.81,15.76-36.68,23.83-1.8,1-3.88,2.12-5.89,3.3-6.46,3.77-9.64,9.11-9.46,15.87l.06,2.44c.07,3.06.15,6.22.4,9.35A134.9,134.9,0,0,0,115,296.14c-5.23,9.92-12.62,28.75-3.33,43.26.59.93,1.24,1.82,1.86,2.67a22.81,22.81,0,0,1,3.11,5.1,23,23,0,0,1,1.12,7.49c.07,1.49.13,3,.34,4.54.78,5.68,3.31,10.75,8.08,16.08a28.56,28.56,0,0,1-8.85-3.26c-5.48-3.17-8.16-8.82-10.23-14.45-1.1-3-2.08-6.09-3-9.09-1.36-4.29-2.76-8.73-4.55-13-2.21-5.22-4.93-10.3-7.55-15.22-1.13-2.11-2.3-4.29-3.41-6.45-.31-.61-.63-1.22-1-1.83l0-.09c.3-.31.61-.61.92-.91,1.14-1.13,2.31-2.29,3.36-3.55,4.58-5.53,4.65-10.85.2-15.84a136,136,0,0,0-10.09-9.8c-1.55-1.4-3.16-2.86-4.74-4.35a1.41,1.41,0,0,0-1-.38,1.38,1.38,0,0,0-1,.46l-1.47,1.61c-.74.8-1.37,1.5-2,2.21q-2.19,2.53-4.39,5.05l-1.2,1.37-11.25-3.48A1.42,1.42,0,0,0,53,285.59c-.41,6.94-2.86,13.75-5.23,20.33-.69,1.91-1.4,3.88-2.06,5.83-2.46,7.35-5.3,18.25-1.52,28,1.83,4.72,5,8.7,8.11,12-10.29-3.25-19.26-11.21-22.69-20.54-1.55-4.2-1.4-8.72.49-14.66,2.3-7.21,4.3-15.86,1.74-25.39C30,284,33.66,279.08,37.11,276.21c7.09-5.9,10.28-14,13.36-21.91l.05-.13a10,10,0,0,0,.46-1.6,2.63,2.63,0,0,0,0-1c0-.08,0-.17,0-.26a1.41,1.41,0,0,0-1-1.18l-2-.56c-1.3-.36-2.64-.73-3.95-1.14-6.27-2-9.94-6.26-10.91-12.75l0-.23a78.74,78.74,0,0,1,3.77-38.06c2-5.66,4.26-11.37,6.43-16.88,3-7.54,6-15.34,8.58-23.19a209.53,209.53,0,0,0,5.72-23.77c.44-2.19.87-4.37,1.33-6.55a25.62,25.62,0,0,0,0-7.72l0-.43c-1.13-11.89-8.93-18.57-21.45-18.3-13,.27-21.48,6-25.88,17.65,0-.2,0-.41,0-.61.13-3.38.26-6.87.73-10.23,1.35-9.65,6-13.52,16.48-13.81A17.4,17.4,0,0,0,32.93,93a1.41,1.41,0,0,0-.1-2.75L22.29,88.17C29.77,85.78,36.68,85,43.73,91.3A1.42,1.42,0,0,0,46.07,90c-.23-1.35-.42-2.52-.59-3.57a22,22,0,0,1,2.19,3c9.65,16.9,14.36,34.3,14,51.73-.13,6.21-2.31,12.61-4.43,18.8-.48,1.42-1,2.83-1.42,4.23Q54.92,167,54,169.71c-4.55,13.89-9.27,28.24-11.61,43-.95,5.94-2,12.68.66,19.2.09.23.19.45.29.69a9.85,9.85,0,0,0,12.15,5,4.37,4.37,0,0,0,2.22-2A61.66,61.66,0,0,1,63,226.79l1.23-.4c6.55-2.16,13.31-4.38,20.24-4.81,1.3-.09,2.65-.11,4-.13,3.66-.06,7.45-.12,11-1.46,5.8-2.17,10.5-7.51,14.37-16.3,6.5-14.77,9.09-31,11.6-46.65,2.4-15,4.88-30.58,10.83-44.67,1.6-3.79,3.49-7.56,5.32-11.21,3.39-6.77,6.89-13.76,8.78-21.28,2.52-10,2.09-20.36,1.68-30.42-.19-4.71-.39-9.58-.28-14.32a108.7,108.7,0,0,1,1.83-17.34,48.55,48.55,0,0,1,5.09.56c.87.14,1.71.24,2.87.37l2.07.24a1.41,1.41,0,0,0,1.1-2.47l-5.64-4.92c10,1.05,18.75,5,27.31,12.4a1.42,1.42,0,0,0,2.29-1.44l-1.62-6c5.08,2.81,9.29,5.73,11.26,11.19l.37,1a9.75,9.75,0,0,1,.89,3.26c.06,5.41,3.47,8.8,6.66,11.56L208,45.11c5.43,4.72,11.06,9.61,16.88,14,5,3.78,7.68,6.25,7.89,8.5s-1.84,5-5.72,9.4c-2.37,2.69-4.62,4.55-7.87,4.9a4.26,4.26,0,0,0-2.3,1.29l-.39.35c-.86.7-1.71,1.42-2.56,2.13.46-3.86-.64-4.9-5.09-7.85l-.38-.26a10,10,0,0,1-2.38-2.87c-.49-.72-1-1.53-1.69-2.39a1.42,1.42,0,0,0-1.11-.55,1.38,1.38,0,0,0-1.12.55c-.93,1.19-1.86,2.34-2.77,3.47-2.14,2.66-4.16,5.18-6,7.9a4.13,4.13,0,0,0-.25,3.94,8.72,8.72,0,0,0,6.06,4.86,52.69,52.69,0,0,0,6.86.92l1.3.12-.32.83a1.44,1.44,0,0,0,.45,1.62c6.51,5.1,7.45,10.84,2.87,17.5a1.72,1.72,0,0,1-1,.38c-1.38-.11-2.73-.32-4.17-.54-1-.15-2.05-.32-3.1-.44-5-.56-7.6-2.68-8.75-7.08a1.42,1.42,0,0,0-.82-1,1.44,1.44,0,0,0-1.25.08l-3,1.75L186.07,108a1.42,1.42,0,0,0-.2,2.31c.91.76,1.81,1.5,2.72,2.24,7.4,6.07,14.45,11.85,18,20.42l-.6-.55a1.41,1.41,0,0,0-1.86,0l-.37.31a1.43,1.43,0,0,0-.41,1.63c1.58,3.85,3.17,7.71,4.85,11.82a1.41,1.41,0,0,0,2,.71c7.14-3.87,12.42-8.48,16.16-14.11a15,15,0,0,0,.87-1.54,9.7,9.7,0,0,1,1-1.67,207.08,207.08,0,0,0,18-25.85,10.29,10.29,0,0,1,3.25-3.35c-5.31,25.65-21.66,51-48.65,75.28-2.15,1.94-8.71,7.85-5.86,13.85a10.53,10.53,0,0,0,3.28,3.73c4.1,3.18,8.88,5.2,13.51,7.15,2.09.87,4.24,1.78,6.28,2.78h0c5.45,2.65,12.26,7.3,13.78,14.36C232.64,221.46,231.69,225.55,230.68,229.88Z"/></g></g></svg>