<svg xmlns="http://www.w3.org/2000/svg" width="285.697" height="391.227" viewBox="0 0 285.697 391.227">
  <g id="Group_175" data-name="Group 175" transform="translate(-11430.678 -2738.613)">
    <path id="Path_750" data-name="Path 750" d="M-2090.443,390.024c-.069-1.278-.115-2.6-.161-3.945-.318-9.043-.739-21.035-8.631-29.121a13.179,13.179,0,0,0-1.556-6.023c-2.629-4.908-7.735-6.275-10.785-7.092-.336-.09-.663-.177-.974-.267a41.294,41.294,0,0,0-11.576-1.772,31.843,31.843,0,0,0-4.925.377,12.466,12.466,0,0,0-7.7-2.731,11.583,11.583,0,0,0-7.356,2.638,34.665,34.665,0,0,0-6.376,7.555,66.447,66.447,0,0,0-4.693,8.434l-.24.486a114.918,114.918,0,0,0-11.008,35.054,94.088,94.088,0,0,0-.938,17.773c.359,7.051,2.394,13.6,4.273,19.193l1.031,3.062c3.505,10.4,7.13,21.154,10.055,31.81a173.017,173.017,0,0,1,4.172,19.033,12.525,12.525,0,0,0-1.834-1.066q-.668-.811-1.354-1.612c-1.735-2.024-3.645-4.1-5.839-6.34-2.608-2.665-5.313-5.228-7.928-7.707a144.693,144.693,0,0,1-13.536-14.007,60.517,60.517,0,0,1-11.242-20.831c-2.115-7.239-2.631-15.559-1.576-25.436a229.184,229.184,0,0,1,5.292-28.429,10.432,10.432,0,0,0,3.532-2.213,14.6,14.6,0,0,0,3.734-7.039l.164-.569a44.47,44.47,0,0,0,1.483-7.025,47.037,47.037,0,0,0-.024-11.936c5.085-3.486,6.705-9.762,3.744-14.807a80.3,80.3,0,0,0-5.024-7.3c-.756-1.014-1.509-2.024-2.224-3.039-2.122-3.009-4.658-6.568-7.375-10.14-2.471-3.246-5.065-6.39-7.574-9.43-2.673-3.24-5.2-6.3-7.611-9.5-5.046-6.694-10.051-11.42-15.748-14.871a46,46,0,0,0-17.265-6.137,11.846,11.846,0,0,0-2.052-3.88c-1.65-2.083-4.775-4.567-10.29-4.567a32.515,32.515,0,0,0-4.263.35c-.3.038-.584.076-.864.108a59.618,59.618,0,0,0-17.855,5l-.052-.029a11.339,11.339,0,0,0-5.64-1.5,15.211,15.211,0,0,0-7.264,2.139,50.342,50.342,0,0,0-11.853,8.162,32.963,32.963,0,0,0-8.451,14.876,21.738,21.738,0,0,0-.6,3.423c-.04.36-.093.83-.143,1.09a16.558,16.558,0,0,1-2.112,2l-1.68,1.453c-3.406,2.959-6.929,6.019-10.434,8.911-1.3,1.069-2.654,2.105-4.094,3.2a80.122,80.122,0,0,0-8.765,7.388c-4.055,4.118-6.122,8.64-6.142,13.441-.029,6.755,4.085,11.886,6.295,14.643,3.584,4.467,7.961,9.417,14.593,11.621.377.124.728.217,1.028.286.038.032.365.306.491.41a23.738,23.738,0,0,0-2.668,13.245c-2.338-3.474-4.81-7.044-7.353-10.505-.453-.616-.894-1.26-1.339-1.908a39.236,39.236,0,0,0-4.728-5.971,14.062,14.062,0,0,0-10.369-4.084,27.857,27.857,0,0,0-3.2.208.9.9,0,0,1-.116.006,13.41,13.41,0,0,1-2.935-.7,27.8,27.8,0,0,0-5.344-1.229,31.41,31.41,0,0,0-3.394-.2c-4.375,0-7.959,1.237-10.652,3.678a24.256,24.256,0,0,0-5.327,7.963c-.165.345-.327.685-.49,1.014a19.931,19.931,0,0,0-1.389,13.836A44.4,44.4,0,0,0-2367,396.551a29.04,29.04,0,0,0,8.324,6.88c.4.218.79.4,1.159.556a15.519,15.519,0,0,0,.706,2.033,29.719,29.719,0,0,0,6.443,9.279,35.2,35.2,0,0,0,4.858,3.789,28.83,28.83,0,0,1,2.706,2c3.262,2.882,5.53,7.105,7.93,11.576.584,1.089,1.168,2.176,1.768,3.248a88.485,88.485,0,0,0,10.458,14.958c-11.363,7.609-23.1,15.485-32.827,25.739-5.849,6.165-11.784,13.713-11.449,22.951.348,9.6,7.724,17.6,17.937,19.46a37.5,37.5,0,0,0,6.683.6A43.413,43.413,0,0,0-2323,514.9c6.932-.421,11.58-6.553,13.144-8.616a36.927,36.927,0,0,0,5.794-11.8,9.241,9.241,0,0,1,4.65-5.88,13.219,13.219,0,0,1,5.9-1.692,3.084,3.084,0,0,1,1.5.263,21.03,21.03,0,0,1,2.437,1.866c.655.547,1.307,1.089,1.967,1.591,1.914,1.458,3.905,2.919,5.916,4.34,3.684,2.6,7.65,5.229,11.789,7.8,4.362,2.71,8.912,5.37,13.909,8.132,1.035.572,2.125,1.126,3.231,1.687,2.659,1.35,5.409,2.745,6.963,4.363.609.635.867,1.473.787,4.763l-.015.632c-.058,2.418-.113,4.7-.262,6.977l-.01.169a15.5,15.5,0,0,0,.879,7.4,68.439,68.439,0,0,0,4.52,27.42,74.64,74.64,0,0,0,7.151,13.876c1.289,1.965,2.674,3.738,4.014,5.452a48.479,48.479,0,0,1,4.277,6.057,18.141,18.141,0,0,1-.615,18.786,62.662,62.662,0,0,1-6.771,8.416c-.912,1.012-1.818,2.021-2.7,3.037l-.437.5c-2.548,2.936-5.436,6.265-7.3,10.591a28.424,28.424,0,0,0-1.989,7.147l-.088.583a27.226,27.226,0,0,0-.325,8.548c.506,3.086,2.622,8.361,11.1,9.009,2.1.161,4.072.25,6,.268a14,14,0,0,0,6,1.253,30.158,30.158,0,0,0,7.727-1.281l.573-.152a37.581,37.581,0,0,0,13.843-6.655c7.834-6.169,11.29-15.195,14.159-23.913.515-1.565,1.01-3.138,1.506-4.71.983-3.123,1.913-6.073,2.994-8.974a117.269,117.269,0,0,1,6.439-13.7l1.615-3.046c1.436-2.705,2.872-5.411,4.285-8.13l.193-.365a14.1,14.1,0,0,0,1.81-5.234c.632-5.711-3.01-9.366-4.207-10.567-.4-.4-.806-.794-1.219-1.192-.61-.589-1.232-1.188-1.744-1.751,1.277-1.374,2.629-2.7,4.037-4.022l.264.3a15.9,15.9,0,0,0,5.89,4.648c6.984,8.126,11.273,14.13,9.114,21.057-1.279,4.1-4.124,7.92-7.137,11.961l-.967,1.3c-2.438,3.264-5.776,7.733-5.579,13.907a31.267,31.267,0,0,0,1.782,9.515c.99,2.651,3.792,7.1,11.434,7.1.42,0,.83-.013,1.223-.033a13.57,13.57,0,0,0,4.9.87,27.182,27.182,0,0,0,9.453-2.189l.536-.2a51.49,51.49,0,0,0,12.85-6.962c8.772-6.536,14.845-14.981,17.1-23.78a34.509,34.509,0,0,0-.08-16.482c-.43-1.853-.941-3.609-1.436-5.306a49.291,49.291,0,0,1-1.751-7.329,26.324,26.324,0,0,1-.117-5.84,26.78,26.78,0,0,1,.589-3.114c.267-1.177.57-2.511.764-3.946a26.384,26.384,0,0,0-2.728-15.767,32.415,32.415,0,0,0-6.98-8.568,36.3,36.3,0,0,1-3.232-3.359,28.081,28.081,0,0,1-2.966-4.713,26.559,26.559,0,0,0,10.1-9.246c4.672-7.361,5.155-16.106,5.249-24.431a91.641,91.641,0,0,0-3.907-27.465c-2.066-6.866-4.731-13.515-7.308-19.945-.8-2-1.6-4-2.383-6a223.952,223.952,0,0,1-8.4-24.219c-1.118-4.25-2.044-8.626-2.8-12.346-.26-1.275-1.133-5.641-1.133-5.641-.13-.647-.279-1.3-.43-1.958a19.592,19.592,0,0,1-.609-3.5c-.043-2.2.121-7.463,2.57-8.928a10.7,10.7,0,0,1,5.314-1.156,21.72,21.72,0,0,1,6.465,1.038c2.365.761,5.4,2.492,7.9,9.18,1.257,3.365,4.6,12.3,13.582,12.3l.311,0a11.25,11.25,0,0,0,10.153-6.484,17.692,17.692,0,0,0,1.522-8.2C-2090.438,390.153-2090.44,390.089-2090.443,390.024Z" transform="translate(13806.803 2472.006)" fill="#294154"/>
    <path id="Path_751" data-name="Path 751" d="M-2212.706,499.523c-2.206-1.813-4.231-3.825-5.194-6.577-.873-2.5-1.321-5.139-2.091-7.671a31.074,31.074,0,0,0-9.052-14.339,26.825,26.825,0,0,0-14.448-6.654c-1.026-.128-2.058-.24-3.084-.359a1.115,1.115,0,0,0-.129-.01,1.7,1.7,0,0,1-.2-.511,15.667,15.667,0,0,1-.41-1.993,18.926,18.926,0,0,0-2.622-7.673c-3.5-5.289-9.547-7.931-15.3-10.005a1.088,1.088,0,0,0-1.226.5l-.589,1.168a1.117,1.117,0,0,0,.39,1.485,42.683,42.683,0,0,1,7.891,6.411,12.429,12.429,0,0,1,2.583,4.163,12.583,12.583,0,0,1,.353,4.644c-.121,3.158.31,6.272,2.423,8.758s5.136,3.069,8.088,4.034a15.6,15.6,0,0,1,7.792,5.546c1.9,2.671,2.219,5.673,2.639,8.826a29.3,29.3,0,0,0,2.745,9.676,20.5,20.5,0,0,0,6.134,7.086c6.27,4.6,14.831,5.338,22.225,3.574a1.068,1.068,0,0,0,.758-.758q.139-.639.277-1.278a1.078,1.078,0,0,0-.279-1.056C-2206.163,504.05-2209.612,502.027-2212.706,499.523Z" transform="translate(13819.118 2484.767)" fill="#a36e6c"/>
    <path id="Path_752" data-name="Path 752" d="M-2293.838,314.716a1.422,1.422,0,0,0-.426-.2,1.19,1.19,0,0,0-.305-.061,3.11,3.11,0,0,0-2.666.874l-1.1,1.016q-1.442,1.328-2.882,2.656a3.3,3.3,0,0,0-1.119,1.705,2.917,2.917,0,0,0,.4,2.279,5.84,5.84,0,0,0,1.708,1.728,5.093,5.093,0,0,0,3.865-.027,6.106,6.106,0,0,0,3.176-2.04,6.033,6.033,0,0,0,1.206-3.842,8.768,8.768,0,0,0-.308-2.3A2.937,2.937,0,0,0-2293.838,314.716Z" transform="translate(13811.803 2475.006)" fill="#a36e6c"/>
    <path id="Path_753" data-name="Path 753" d="M-2097.434,390.4c-.562-10.566.312-24.012-9.358-30.693a6.106,6.106,0,0,0-.168-5.462c-1.39-2.593-4.962-3.2-7.538-3.941-5.634-1.632-11.485-2.188-17.07-.336-1.412-2.961-5.219-4.8-8.135-2.436a29.279,29.279,0,0,0-5.007,6.073,65.172,65.172,0,0,0-4.43,8.061,108.052,108.052,0,0,0-10.352,32.916,87.912,87.912,0,0,0-.88,16.457c.3,5.954,2.028,11.7,3.917,17.316,3.929,11.678,7.938,23.365,11.2,35.251a180.572,180.572,0,0,1,4.365,19.977,40.386,40.386,0,0,1,.653,10.03c-.267,2.792-1.216,7.3-4.758,6.919a67.881,67.881,0,0,0-3.574-6.23c-1.223-1.874-2.318-3.906-4.513-4.725a4.665,4.665,0,0,1-1.23-.4c.187.163-.647-1.159-.712-1.239q-.648-.789-1.312-1.564c-1.77-2.065-3.625-4.056-5.527-6-7.283-7.441-15.368-14.083-21.916-22.223a67.758,67.758,0,0,1-12.506-23.254c-2.679-9.168-2.826-18.7-1.817-28.144,1.246-11.658,3.949-23.186,6.707-34.583a3.234,3.234,0,0,0,.712.369,3.5,3.5,0,0,0,3.544-.759c1.16-1.1,1.572-3.071,2.014-4.544a37.131,37.131,0,0,0,1.247-5.918,45.3,45.3,0,0,0-1.3-16.852,3.578,3.578,0,0,0,4.039.188c1.964-1.236,3.158-3.453,1.88-5.631-2.006-3.417-4.647-6.609-6.933-9.85-2.359-3.346-4.745-6.675-7.224-9.934-4.906-6.448-10.327-12.485-15.2-18.955a49.9,49.9,0,0,0-13.785-13.1,40.382,40.382,0,0,0-18.986-5.624,4.868,4.868,0,0,0-1.632-1.052,4.643,4.643,0,0,0-.559-4.981c-2.15-2.715-6.131-1.852-9.118-1.5a53.134,53.134,0,0,0-20.037,6.589,4.818,4.818,0,0,0-2.123-2.479c-2.164-1.222-4.169-.352-6.153.713a43.826,43.826,0,0,0-10.256,6.985,26.022,26.022,0,0,0-6.606,11.732c-.579,2.116-.245,4.316-1.456,6.236a20.746,20.746,0,0,1-4.2,4.269c-3.844,3.338-7.68,6.686-11.607,9.926-4.076,3.364-8.611,6.332-12.327,10.1-2.3,2.338-4.115,5.18-4.129,8.558-.017,3.932,2.4,7.3,4.756,10.234,3.088,3.85,6.507,7.752,11.335,9.356.55.183,1.2.237,1.729.452a8.057,8.057,0,0,1,1.688,1.2q1.341,1.115,2.674,2.24a19.383,19.383,0,0,0,2.72,2.1c-4.65,4.943-6.687,11.467-4.243,18.084,1.119,3.028,2.765,6.495,5.868,7.864a12.03,12.03,0,0,0,6.841.4,40.912,40.912,0,0,0-7.951,14.356,72.144,72.144,0,0,1-6.236-5.124,45.447,45.447,0,0,1-6.652-8.6c-4.128-6.332-8.307-12.654-12.784-18.746-1.709-2.325-3.274-5-5.337-7.036-2.275-2.239-4.873-2.25-7.87-1.909-3.4.387-6.562-1.558-9.928-1.917-2.892-.309-6.311-.375-8.6,1.7-1.962,1.778-3.09,4.556-4.24,6.888a13.08,13.08,0,0,0-.862,9.1,37.507,37.507,0,0,0,7.078,14.8,21.828,21.828,0,0,0,6.3,5.2c.915.5,2.473.851,3.17,1.516.934.893,1.209,3.2,1.735,4.391a22.526,22.526,0,0,0,4.909,7.074c2.229,2.162,5.016,3.525,7.327,5.567,5.11,4.514,7.913,10.817,11.174,16.657a79.676,79.676,0,0,0,13.109,17.514l-.3,3.6c-12.533,8.462-25.756,16.785-36.215,27.81-4.465,4.706-9.782,10.963-9.532,17.88.244,6.726,5.851,11.672,12.2,12.825,7.914,1.44,16.141-.438,23.106-4.285,3.81.632,7.074-3,9.194-5.794a30.369,30.369,0,0,0,4.675-9.606,16.2,16.2,0,0,1,7.934-9.957c3.918-2.189,10.2-3.8,14.367-1.352a54.979,54.979,0,0,1,5.1,3.923q2.818,2.146,5.714,4.192,5.6,3.961,11.443,7.572,6.693,4.158,13.6,7.951c3.929,2.172,8.706,4.047,11.858,7.33,2.687,2.8,2.824,6.133,2.735,9.78-.064,2.633-.117,5.267-.289,7.9-.137,2.084-.291,3.834.974,5.46a62.288,62.288,0,0,0,3.954,26.534,67.507,67.507,0,0,0,6.48,12.571c2.687,4.1,6.188,7.667,8.562,11.959a25.147,25.147,0,0,1-.79,25.862c-2.782,4.488-6.678,8.365-10.125,12.347-2.492,2.879-5.075,5.744-6.6,9.281a21.629,21.629,0,0,0-1.495,5.408,23.957,23.957,0,0,0-.43,6.968c.413,2.518,2.519,2.995,4.729,3.164,2.457.188,4.916.281,7.379.243,2.85,2.3,7.4.9,10.62.053a30.984,30.984,0,0,0,11.287-5.384c6.462-5.088,9.354-13.046,11.84-20.6,1.529-4.646,2.881-9.354,4.59-13.94a123.576,123.576,0,0,1,6.812-14.533c1.962-3.708,3.94-7.406,5.875-11.129a9.176,9.176,0,0,0,1.257-3.143c.226-2.045-.838-3.481-2.208-4.856-1.8-1.808-3.916-3.569-5.139-5.849-1.3-2.413-.327-4.222,1.374-6.107a141.646,141.646,0,0,1,10.369-9.937c1.685,1.866,3.309,3.792,4.963,5.684,1.341,1.534,2.54,2.87,4.562,3.111,7.162,8.27,15.51,17.557,11.855,29.284-1.736,5.571-5.378,10.254-8.811,14.873-2.235,3-4.684,6.046-4.558,9.986a24.4,24.4,0,0,0,1.343,7.291c1.126,3.016,4.793,2.621,7.493,2.4,3.185,2.171,7.744.267,11.059-.963a44.483,44.483,0,0,0,11.1-6.013c6.551-4.88,12.434-11.839,14.5-19.9a27.735,27.735,0,0,0-.117-13.16c-1.041-4.482-2.727-8.739-3.313-13.336a33.264,33.264,0,0,1-.14-7.4c.243-2.49,1.049-4.85,1.383-7.319a19.454,19.454,0,0,0-2-11.6c-2.3-4.435-6.436-6.979-9.472-10.787-3.022-3.79-4.983-8.3-6.772-12.784,5.421-1.76,10.264-4.245,13.466-9.29,3.8-5.99,4.083-13.882,4.16-20.759a84.932,84.932,0,0,0-3.61-25.369c-2.6-8.646-6.227-17.011-9.508-25.413a230.06,230.06,0,0,1-8.653-24.984c-1.107-4.21-2.022-8.466-2.891-12.73-.384-1.886-.758-3.774-1.137-5.661a38.677,38.677,0,0,1-1.175-6.7c-.106-5.447.893-12.031,5.974-15.072,4.98-2.98,12.19-2.488,17.518-.774,6.467,2.08,10.029,7.283,12.313,13.393,1.19,3.185,3.089,7.857,7.158,7.753C-2098.1,397.8-2097.348,393.738-2097.434,390.4Zm-35.842-20.847a21.79,21.79,0,0,0-14.455,9.059c-3.765,5.6-3.733,12.661-2.79,19.09a179.419,179.419,0,0,0,5.284,22.773q3.268,11.5,7.6,22.668c5.335,13.785,11.685,27.426,13.426,42.262.892,7.593,1.092,16.125-2.231,23.208a17.016,17.016,0,0,1-5.563,6.88c-2.916,2.016-6.447,2.7-9.8,3.653a1.565,1.565,0,0,0-1.1,1.446,4.939,4.939,0,0,0,.526,2.316c.581,1.522,1.191,3.034,1.818,4.538a66.849,66.849,0,0,0,3.8,7.881,36.138,36.138,0,0,0,5.255,7.044c2.164,2.229,4.65,3.96,6.268,6.684a13.764,13.764,0,0,1,1.919,8.044c-.244,3.381-1.443,6.611-1.627,10.033-.345,6.4,1.234,12.484,3.054,18.549,1.813,6.042,1.868,11.814-1.08,17.489a35.6,35.6,0,0,1-11.649,12.845,38.4,38.4,0,0,1-8.3,4.3,5.489,5.489,0,0,1-1.086.379c-.628.058-.423.508-.686-.383-.24-.812.546-1.312,1.066-1.912.943-1.088,1.845-2.211,2.694-3.373a28.651,28.651,0,0,0,5.609-17.685c-.255-14.82-9.314-27.6-10.582-42.22a1.52,1.52,0,0,0-1.9-1.447l-9.595,2.969c-1.505.466-1.91-.284-2.913-1.432-2.417-2.767-4.821-5.539-7.3-8.254a1.523,1.523,0,0,0-2.121,0c-4.176,3.893-8.547,7.592-12.5,11.713-3.28,3.415-6.175,7.384-4.464,12.328a18.4,18.4,0,0,0,4.277,6.422c.678.718,2.835,2.207,2.9,3.182.044.641-.653,1.511-.944,2.074-2.783,5.388-5.765,10.673-8.423,16.125a120.246,120.246,0,0,0-6.392,16.29c-1.7,5.339-3.208,10.834-5.611,15.914-2.208,4.666-5.288,8.493-9.948,10.863a26.986,26.986,0,0,1-3.672,1.535c-.707.236-3.724,1.482-4.293.866-.542-.588,1.557-2.649,2.051-3.295a33.912,33.912,0,0,0,2.348-3.46,29.242,29.242,0,0,0,3.749-13.937c.128-2.872.206-5.819,1.407-8.485,1.166-2.588,3.1-4.72,4.643-7.079,5.411-8.278,5.284-18.6,2.821-27.856-2.387-8.969-6.851-17.312-11.849-25.076a135.7,135.7,0,0,0-9.661-13.172q-2.662-3.211-5.522-6.252c-.881-.938-1.823-1.826-2.687-2.779a2.787,2.787,0,0,1-.984-2.493q.085-1.236.141-2.472c.172-3.726.6-7.827.006-11.543a16.211,16.211,0,0,0-6.355-10.223c-4.429-3.428-9.835-5.739-14.691-8.5-4.937-2.808-9.8-5.742-14.559-8.851-4.417-2.887-8.739-5.924-12.918-9.147-1.869-1.442-3.66-3.2-5.837-4.161a18.1,18.1,0,0,0-7.971-1.246,25.209,25.209,0,0,0-14.487,5.536c-3.86,3.084-5.852,6.873-7.318,11.483a25.557,25.557,0,0,1-3.118,6.668,9.282,9.282,0,0,1-2.086,2.486c-.465.3-.137.382-.9.281-.886-.118-.414-.088-.712-.732a12.914,12.914,0,0,1-.549-2.377c-1.272-5.552-2.036-11.17,1.061-16.276,5.38-8.872,16.394-11.473,25.089-15.758,3.89-1.917,9.808-4.784,10.458-9.622.522-3.888-2.267-7.4-4.871-9.961-3.748-3.682-7.721-7.12-11.414-10.866-3.981-4.038-7.807-8.231-11.427-12.6-12.563-15.145-22.772-32.679-27.1-52.021-.15-.675-.569-1.5.117-1.775.637-.256,1.213.444,1.672.857a12.965,12.965,0,0,1,2.364,2.977q1.527,2.494,3.09,4.966,3.9,6.138,8.043,12.114c3.867,5.556,7.72,11.118,12.741,15.682,3.479,3.163,7.07,6.2,10.713,9.172,1.03.841,3.084.1,2.507-1.459a11.265,11.265,0,0,1-.24-5.576c.905-6.086,4.479-11.6,8.429-16.161,4.014-4.634,8.76-8.361,13.448-12.269a1.511,1.511,0,0,0-.3-2.355l-3.835-2.2a1.521,1.521,0,0,0-2.2.9,9.051,9.051,0,0,1-5.94,6.107,30.6,30.6,0,0,1-5.087.92c-1.714.252-4.082,1.077-5.779.622-1.586-.426-2.551-3.092-3.066-4.491a11.663,11.663,0,0,1-.769-4.836c.267-3.847,2.813-6.865,5.657-9.231a1.451,1.451,0,0,0,.386-1.459c-.46-1.215.233-1.246,1.2-1.335,1.534-.142,3.068-.282,4.593-.5,2.913-.414,5.673-1.185,7.479-3.69a4.755,4.755,0,0,0,1.026-3.412c-.229-1.531-1.514-2.879-2.411-4.086-2.067-2.781-4.292-5.443-6.439-8.162a1.515,1.515,0,0,0-2.355.3c-1.391,1.961-2.491,3.835-4.511,5.2a12.553,12.553,0,0,0-3.83,3.249,5.418,5.418,0,0,0-.618,2.955c-.019.418.365,1.231-.415,1.394-.366.076-1.472-1.072-1.751-1.3a18.664,18.664,0,0,0-2.6-2.135,17.348,17.348,0,0,0-3.034-.787,10.576,10.576,0,0,1-2.579-1.312,27.511,27.511,0,0,1-5.177-5.191c-1.864-2.2-5.137-5.643-3.984-8.864,1.251-3.5,5.484-6.05,8.269-8.2,4.3-3.315,8.458-6.8,12.571-10.346,2.685-2.315,5.579-4.564,8.051-7.118a15.48,15.48,0,0,0,3.159-4.509c.964-2.209.716-4.545,1.456-6.786a20.775,20.775,0,0,1,8.786-11.509,13.5,13.5,0,0,1,3.092-1.842c.545-.153.943-.745,1.13.368.025.147-.121.341-.133.493a22.186,22.186,0,0,1-.989,3.674,1.514,1.514,0,0,0,2.507,1.46,53.813,53.813,0,0,1,14.975-8.753,38.811,38.811,0,0,1,9.236-2.236c.378-.041,1.711-.35,2.029-.155.927.569-.306,1.456-.6,1.767-.667.7-1.3,1.424-1.951,2.139a1.52,1.52,0,0,0,1.061,2.561c5.791.45,13.008.642,16.566,6.044,4.071,6.182,4.569,14.757,2.234,21.64-2.45,7.222-7.847,12.948-11.869,19.294a98.874,98.874,0,0,0-10.138,21.381c-1.242,3.692-2.271,7.588-1.722,11.509.541,3.864,2.65,7.316,4.479,10.689,3.782,6.977,7.924,13.262,14.021,18.433,5.233,4.439,10.627,8.774,15.117,14a34.99,34.99,0,0,1,5.4,8.189c1.559,3.416,1.933,6.914,2.154,10.622.512,8.579,2.635,16.814,4.5,25.173a89.791,89.791,0,0,0,7.342,21.022c3,5.924,7.127,11.294,13.5,13.738,6.867,2.633,14.514,2.134,21.713,2.873a31.294,31.294,0,0,1,9.812,2.334,18.672,18.672,0,0,1,7.92,7.185c1.665,2.535,3.448,5.4,6.676,5.971,3.06.541,5.9-1.192,7.665-3.587,1.959-2.658,2.594-5.981,2.805-9.21a64.369,64.369,0,0,0-.5-12.213,132.066,132.066,0,0,0-5.923-24.432c-5.226-15.988-12-31.9-13.038-48.888-.945-15.49,3.541-30.675,10.614-44.332q1.456-2.812,3.051-5.551a22.383,22.383,0,0,1,1.475-2.48c1.537-1.981,1.035.728,1.066,1.657a1.513,1.513,0,0,0,2.257,1.3,21.751,21.751,0,0,1,13.738-3.932,19.948,19.948,0,0,1,3.762.589c.963.244,2.837.541,3.524,1.247,1.328,1.366-1.738.893-2.333.924a14.469,14.469,0,0,0-3.4.614c-1.309.388-1.543,2.647,0,2.893a20.412,20.412,0,0,1,14.417,9.18,20.683,20.683,0,0,1,2.35,16.1c-.423.729-.855.215-1.269-.468-.447-.736-.8-1.538-1.241-2.279a33.086,33.086,0,0,0-2.666-3.8,30.589,30.589,0,0,0-6.761-6.18A24.566,24.566,0,0,0-2133.276,369.549Z" transform="translate(13806.803 2472.006)" fill="#a36e6c"/>
  </g>
</svg>
