<svg xmlns="http://www.w3.org/2000/svg" width="391.232" height="382.677" viewBox="0 0 391.232 382.677">
  <g id="Group_173" data-name="Group 173" transform="translate(2797.803 -268.152)">
    <path id="Path_740" data-name="Path 740" d="M-2406.974,568.674a104.052,104.052,0,0,0-5.836-25.027,7.057,7.057,0,0,0-.547-1.172,44.127,44.127,0,0,1-3.164-7.228,8.3,8.3,0,0,0-.63-2.8c-.232-.553-.459-1.109-.686-1.664a48.1,48.1,0,0,0-4.964-9.8c-.205-.29-.413-.594-.626-.9a39.489,39.489,0,0,0-3.3-4.331q-.739-1.155-1.487-2.308l-.533-.818c-2.947-4.524-5.732-8.8-7.388-13.3a76.434,76.434,0,0,1-3.137-13.561,98.921,98.921,0,0,0-3.115-14.057c-3.372-10.445-10.4-19.744-22.122-29.263-3.035-2.466-6.311-4.86-10.012-7.32-.149-.1-.3-.192-.458-.279-.235-.132-.474-.258-.712-.384-.161-.085-.322-.168-.48-.26-2.041-1.182-4.039-2.434-6.155-3.759-1.524-.954-3.049-1.909-4.588-2.837-.065-.038-.13-.077-.195-.113-2.18-1.219-4.5-2.482-6.9-3.75l-1.079-.566c-.073-.038-.409-.2-.474-.233l-1.65-.759c-2.706-1.247-5.5-2.537-8.4-3.691a50,50,0,0,1-5.74-2.93c-1.015-.572-2.029-1.141-3.048-1.68a16.224,16.224,0,0,1-2.222-1.571c-.3-.239-.613-.479-.93-.722a28.208,28.208,0,0,0-3.028-1.958,17.483,17.483,0,0,1-1.581-.991q-.519-.395-1.066-.8a33.488,33.488,0,0,1-3.9-3.225,7.035,7.035,0,0,0-.793-.712c-5.128-3.946-9.881-8.288-14.913-12.884q-1.43-1.3-2.861-2.608c-2.006-1.822-4.164-3.778-6.455-5.791a10.32,10.32,0,0,0,7.459-3.6,11.7,11.7,0,0,0,2.775-9.145,49.994,49.994,0,0,0-3.776-13.515,34,34,0,0,0,3.467.183h0a25.573,25.573,0,0,0,11.628-2.633c5.68-2.863,9.76-8.251,11.8-15.579a10.557,10.557,0,0,0-1.65-9.1,10.851,10.851,0,0,0-8.4-4.457c-3.094-.117-6.187-1.916-9.733-5.661a108.083,108.083,0,0,1-7.856-9.73c-1.433-1.918-2.916-3.9-4.471-5.846-4.027-5.03-9.636-11.245-17.329-14.683-8.519-3.808-17.643-4.079-25.692-4.319l-1.345-.041c-7.743-.24-13.659-.666-17.921-3.768-1.532-2.629-3.126-5.334-4.978-7.932a11.126,11.126,0,0,0-9.057-4.628,10.7,10.7,0,0,0-7.624,3.137,10.389,10.389,0,0,0-2.918,7.572c.083,3.939-.05,8.3-1.666,10.813a2.839,2.839,0,0,1-.806.567,11.021,11.021,0,0,1-2.944,1c-2.363.574-4.864.933-7.512,1.314-1.646.237-3.349.482-5.069.788a62.136,62.136,0,0,0-17.308,5.59,10.094,10.094,0,0,0-5.464,11.484,11.245,11.245,0,0,0,4.617,6.667c-2.364,1.621-4.856,3.187-7.4,4.786-3.065,1.928-6.234,3.921-9.273,6.081a11.639,11.639,0,0,0-4.7,7.465,9.854,9.854,0,0,0,1.8,7.463,21.825,21.825,0,0,1,1.537,2.342c-.1.1-.208.218-.346.363a46.342,46.342,0,0,1-5.7,4.789,62.755,62.755,0,0,0-7.136,5.993c-6.122,6.177-9.024,13.843-8.171,21.585a61.067,61.067,0,0,0,1.959,9.4l.371,1.358c-.3-.03-.591-.066-.881-.108-4.67-.679-9.055-4.742-13.51-9.206-1.236-1.238-2.452-2.5-3.67-3.768-4.345-4.513-8.837-9.18-14.39-13a45.843,45.843,0,0,0-13.333-5.942,41.749,41.749,0,0,0-11.713-2.043q-.807,0-1.606.051c-5.87.383-10.541,2.963-13.154,7.266-2.205,3.631-2.726,8.039-1.549,13.1a43.247,43.247,0,0,0,5.072,12,10.12,10.12,0,0,0-4.592,7.612,11.41,11.41,0,0,0,3.811,9.439,10.675,10.675,0,0,0-3.546,5.441,10.63,10.63,0,0,0,2.842,10.633c3.707,3.5,8.221,4.991,11.515,6.076.254.084.514.165.775.248.326.1.767.241,1.054.34,1.063,1.516,2.194,3.194,3.446,5.111.564.863,1.124,1.729,1.674,2.606l.136.229c.206.352.419.7.647,1.036a11.585,11.585,0,0,0,3.388,3.8l.236.171c3.915,2.842,8.787,6.378,14.968,7.362a24.961,24.961,0,0,0,3.9.3,32.477,32.477,0,0,0,11.54-2.339c.132.069.257.141.392.21a9.475,9.475,0,0,0,2.358,1.467c7.64,3.319,14.233,4.941,20.661,5.075a55.336,55.336,0,0,1-5.963,4.617c-10.223,6.856-21.648,11.035-32.17,11.766-1.021.071-1.939.1-2.808.1a25.91,25.91,0,0,1-8.308-1.328l-1.819-.578a82.35,82.35,0,0,0-15.04-3.742,33.574,33.574,0,0,0-4.118-.261c-6.938,0-12.736,2.31-16.769,6.679-5.893,6.384-7.947,16.615-4.883,24.327a23.07,23.07,0,0,0,6.871,9.179c1.291,1.076,2.611,2.043,3.748,2.867l1.549,1.116s.7.522.87.646c1.414,1.119,1.769,1.5,1.97,1.868l.02.072c0,.089.005.179,0,.268a10.453,10.453,0,0,1-.647,2.723,10.3,10.3,0,0,0,1.54,9.358,10.928,10.928,0,0,0,8.781,4.636,9.822,9.822,0,0,0,5.993-2.03c1.632-1.242,3.23-2.535,4.774-3.785,1.906-1.543,3.768-3.05,5.634-4.419q.138.422.291.842a14.179,14.179,0,0,0,13.739,9.691,18.265,18.265,0,0,0,3.9-.436c6.579-1.441,12.572-5.091,16.507-7.71a112.554,112.554,0,0,0,15.553-12.537q1.061-1.019,2.013-1.983a25.269,25.269,0,0,1,1,3.395,10.554,10.554,0,0,0,10.532,8.153,10.19,10.19,0,0,0,10.346-8.513,24.339,24.339,0,0,1,5.081-10.632,10.222,10.222,0,0,0,1.861,2.794,11.168,11.168,0,0,0,8.161,3.508,10.212,10.212,0,0,0,9.3-5.751c2.781-5.765,6.856-10.918,11.171-16.373l.009-.011c.6.618,1.178,1.242,1.723,1.88,1.064,1.246,2.187,2.939,1.851,3.609a10.68,10.68,0,0,0,1.774,12.2c2.781,11.726,8.168,19.962,16.034,24.5,4.9,2.825,10.572,4.2,17.352,4.2h0a74.82,74.82,0,0,0,11.194-.983c2.76-.419,5.475-.944,7.532-1.354.681-.136,1.381-.255,2.087-.376l.507-.09c-.084.782-.124,1.5-.139,2.093-.153,1.3-.257,2.693-.317,4.226a8.8,8.8,0,0,0-.178,1.987,53.681,53.681,0,0,0,.492,6.423c.017.116.034.232.053.347a7.06,7.06,0,0,0,.07.878,45.259,45.259,0,0,0,6.116,17.34c4,6.544,9.794,12.263,17.545,17.3-1.443-.445-2.913-.851-4.418-1.2a40.04,40.04,0,0,0-8.974-1.038,31.6,31.6,0,0,0-17.162,4.76c-6.15,3.957-12.119,11.336-10.425,20.18a14.275,14.275,0,0,0,7.791,10.341q-.012.43-.009.855c.06,7.948,5.859,16.547,15.169,16.585a13.4,13.4,0,0,0,8.249-3.115,16.381,16.381,0,0,0,9.339,7.579,15.58,15.58,0,0,0,4.506.659c5.937,0,10.869-3.158,14.832-5.7.627-.4,1.236-.792,1.823-1.149a66.747,66.747,0,0,1,8.632-4.611,30.8,30.8,0,0,1,3.031-1.116q-1.1,1.253-2.149,2.668c-4.874,6.589-4.948,14.278-.189,19.591,4.332,4.836,10.64,5.639,14.03,6.07a95.033,95.033,0,0,0,9.983.586l1.6.039a113.89,113.89,0,0,1,15.63,1.908c3.08.517,6.265,1.051,9.489,1.456l.321.041a81.915,81.915,0,0,0,10.349.85c1.154,0,2.28-.047,3.346-.138a24.488,24.488,0,0,0,16.679-8.8c4.037-4.79,6.38-10.27,8.618-15.932l.2-.505c7.271-2.628,10.161-10.4,9.539-17.466q.371.822.73,1.647a9.942,9.942,0,0,0,9.238,6.028h0a11.159,11.159,0,0,0,10.616-7.591C-2407.333,594.334-2405.742,581.078-2406.974,568.674Z" fill="#294154"/>
    <path id="Path_741" data-name="Path 741" d="M-2703.3,401.426a6.983,6.983,0,0,1-2.505-.466,7,7,0,0,1-4.106-8.833l.112-.317a7,7,0,0,1,6.581-4.616,6.981,6.981,0,0,1,2.349.408,7,7,0,0,1,4.394,8.474c-.044.157-.093.314-.148.468l-.072.2h0a7.087,7.087,0,0,1-.31.74A7.005,7.005,0,0,1-2703.3,401.426Z" fill="#809cb5"/>
    <path id="Path_742" data-name="Path 742" d="M-2703.217,394.206l0-.011c-.016.044-.049.137-.081.23l0-.009C-2703.253,394.311-2703.23,394.244-2703.217,394.206Z" fill="#809cb5"/>
    <path id="Path_743" data-name="Path 743" d="M-2529.1,331.755c-5.857-.223-10.558-3.629-14.549-7.843-4.692-4.955-8.454-10.7-12.709-16.014-4.044-5.051-8.718-9.985-14.72-12.668-7.674-3.429-16.145-3.5-24.4-3.753-8.178-.254-16.686-.611-23.092-6.109-1.7-2.9-3.368-5.829-5.289-8.524-2-2.809-6.985-2.077-6.9,1.869.108,5.1-.135,10.647-2.779,14.752a8.841,8.841,0,0,1-3.284,2.89,17.67,17.67,0,0,1-4.7,1.685c-4.273,1.038-8.682,1.422-13.006,2.192a55.566,55.566,0,0,0-15.388,4.95c-3.992,2.01-1.021,7.455,2.854,6.769a24.972,24.972,0,0,1,9.2.348c-7.631,9.2-19.013,14.491-28.666,21.354-1.495,1.063-2.6,3.343-1.329,5.067a23.412,23.412,0,0,1,2.4,3.855,6.149,6.149,0,0,1,.67,3.4c0,.086,0,.128,0,.179s-.022.076-.038.147c-.048.211-.109.42-.157.631-.015.065-.168.478-.2.591-.054.112-.1.227-.161.331a9.073,9.073,0,0,1-1.882,2.556c-3.961,4.161-8.771,6.677-12.939,10.883-4.269,4.308-6.862,9.745-6.185,15.892a54.366,54.366,0,0,0,1.755,8.33c.331,1.216.671,2.43.962,3.657.137.576.266,1.154.374,1.736.045.242.083.485.121.728.01.143.048.51.049.57.013.5.024.995,0,1.5v.007c-.009.037-.014.056-.025.113a3.612,3.612,0,0,1-.1.374c.011-.031.015-.042,0,.011s-.02.093-.036.133c-.146.392-.1.259-.042.086a1.687,1.687,0,0,1-.16.28c-.112.093-.226.189-.245.2-.062.03-.127.061-.191.1.008,0-.225.106-.394.189-.193.057-.635.208-.6.2a12.391,12.391,0,0,1-1.523.3,26.512,26.512,0,0,1-6.461-.162c-7.054-1.026-12.635-6.355-17.458-11.188-5.5-5.507-10.617-11.506-17.072-15.945a38.709,38.709,0,0,0-11.328-4.99c-3.464-1.012-7.263-1.963-10.9-1.725-2.993.2-5.991,1.223-7.625,3.914-1.441,2.373-1.32,5.274-.714,7.881,1.231,5.292,4.28,10.252,7.324,14.834-1.52,1.648-2.93,3.417-4.9,4.415-2.734,1.382-2.038,4.863,0,6.4,1.748,1.313,2.988,3.4,4.277,5.127.512.684,1.028,1.333,1.553,1.966a12.718,12.718,0,0,1-5.037,2.692c-2.714.587-3.592,4.34-1.635,6.19,2.505,2.369,5.685,3.457,8.9,4.515a14.774,14.774,0,0,1,3.933,1.611,5.992,5.992,0,0,1,.815.737c.091.124.183.247.272.373,1.347,1.9,2.648,3.843,3.924,5.8.588.9,1.173,1.8,1.745,2.716.224.359.426.746.671,1.091a7.579,7.579,0,0,1-.134-1.161l.016-.012a3.965,3.965,0,0,0,1.8,3.2c3.7,2.683,7.568,5.55,12.193,6.286,5.751.915,11.244-1.2,16.371-3.588,3.592-1.676,1.032-7.9-2.726-6.466-3.724,1.421-8.576,3.446-12.329,2.806-3.172-.542-5.988-2.638-8.648-4.608-.538-1.032-1.267-2.007-1.848-2.908-1.441-2.234-2.9-4.461-4.445-6.626a13.873,13.873,0,0,0-6.252-5.161c-1.171-.49-2.5-.856-3.813-1.262a27.216,27.216,0,0,1,3.8-2.443c2.762-1.389,2-4.848,0-6.4-1.729-1.336-2.97-3.448-4.262-5.171-.591-.789-1.19-1.532-1.8-2.253a22.186,22.186,0,0,1,4.276-4.089,3.748,3.748,0,0,0,1.329-5.067c-1.722-2.567-3.4-5.168-4.911-7.866a30.616,30.616,0,0,1-3.059-6.73c-.146-.5-.258-1-.369-1.506-.007-.032-.01-.04-.016-.066-.014-.2-.022-.4-.038-.6a4.965,4.965,0,0,1,.012-.584l0-.028,0,0v-.024c0-.03,0-.033,0-.051s.016-.026.023-.04.012-.039.019-.063l.02-.02.015-.009.007-.013.083-.08a.35.35,0,0,1-.011.046l.142-.083c.08-.021.153-.04.189-.048.24-.049.477-.116.719-.164h0l.154-.005a18.412,18.412,0,0,1,2.349.037,34.782,34.782,0,0,1,19.8,8.568c5.915,5.206,10.887,11.388,16.857,16.534,6.32,5.448,13.129,8.842,21.594,8.96,6.245.086,12.726-2.133,13.321-9.2.426-5.064-1.861-10.108-2.9-14.978a14.573,14.573,0,0,1-.16-6.466,13.321,13.321,0,0,1,3.832-6.013c4.415-4.453,10.053-7.177,14.1-12.219,4.179-5.2,4.052-11.048,1.19-16.427,11.378-7.627,23.76-14.01,31.2-26.05a3.732,3.732,0,0,0-1.1-4.9c2.231-.357,4.47-.692,6.7-1.081,6.839-1.2,13.573-3.864,16.746-10.512a25.584,25.584,0,0,0,1.8-5.275c3.916,6.569,7.963,12.974,14.845,17.047,4.649,2.75,9.614,3.8,14.825,4.4a6.534,6.534,0,0,0-1.483,2.824,6.755,6.755,0,0,0,.088,3.4,7.632,7.632,0,0,0,1.7,2.909,8.376,8.376,0,0,0,1.306,1.087,3.943,3.943,0,0,0,.677.4,7.446,7.446,0,0,0,3.311.82,6.98,6.98,0,0,0,3.407-.934,8.388,8.388,0,0,0,2.709-2.665,11.627,11.627,0,0,0,1.037-2.131,11.316,11.316,0,0,0,.542-1.707c.033-.144.063-.291.094-.436a15.17,15.17,0,0,1,3.123,2.983c1.243,1.57,3.938,1.3,5.238,0,1.55-1.55,1.245-3.664,0-5.237-3.794-4.791-9.042-7.156-14.988-7.978-5.428-.751-11.055-.666-16.068-3.175a24.281,24.281,0,0,1-6.379-4.672,52.249,52.249,0,0,0,8.95,1.493c8.112.679,16.5-.13,24.377,2.325,6.3,1.965,10.848,6.7,14.908,11.7,4.355,5.361,8.144,11.188,12.856,16.256,4.18,4.5,9.14,8.052,14.928,9.574a7.132,7.132,0,0,1-1.01,1.335,6.245,6.245,0,0,1-2,1.473c-.5.273.039.047-.67.3a12.662,12.662,0,0,1-1.281.372,16.614,16.614,0,0,1-5.544.109,42.666,42.666,0,0,1-6.27-1.489c-8.7-2.7-16.506-7.531-25.09-10.487-3.1-1.068-5.782,2.777-4.182,5.44,4.017,6.688,9.549,11.719,14.932,17.239a32.3,32.3,0,0,1,7.383,11.667,82.07,82.07,0,0,0-19.228-6.39c-10.127-2.09-20.879-2.7-31-.217a37.889,37.889,0,0,0-14.615,7.055c-1.562,1.236-1.293,3.921,0,5.214,1.557,1.556,3.633,1.222,5.215,0,8.768-6.775,21.328-7.172,31.851-5.985,10.98,1.238,22.337,4.756,31.522,11.007,3,2.044,5.833-1.327,5.441-4.183a39.841,39.841,0,0,0-10.351-22.375c-1.687-1.811-3.428-3.532-5.148-5.258,2.415,1.075,4.847,2.111,7.32,3.041,7.207,2.713,15.982,5.1,23.281,1.424,4.38-2.208,6.933-6.63,8.205-11.206A3.747,3.747,0,0,0-2529.1,331.755Z" fill="#809cb5"/>
    <path id="Path_744" data-name="Path 744" d="M-2582.668,508.765c-4.381.245-8.838,1.7-13.158,2.473a63.02,63.02,0,0,1-10.837,1.168c-6.426.05-12.027-1.659-15.623-7.149-2.994-4.572-4.271-10.02-5.147-15.346a2.789,2.789,0,0,0-.676-1.384c2.313-11.117-9.047-19.37-16.438-26.685a3.75,3.75,0,0,0-5.8.748c-4.271,6.278-9.383,12.012-13.769,18.218a10.1,10.1,0,0,0-.677-1.2,8.065,8.065,0,0,0-8.972-3.218c-7.119,1.785-12.862,9.173-16.557,15.046-.536.852-1.054,1.734-1.547,2.634a86.94,86.94,0,0,0-7.147-11.389,4.423,4.423,0,0,0-.469-.508c2.617-3.334,4.919-6.918,7.282-10.447a2.364,2.364,0,0,0,2.388-.907c2.91-3.55,5.7-7.154,7.289-11.512.836-2.3-1.157-4-3.182-4.051a2.677,2.677,0,0,0-.027-.841c.528-.756,1.067-1.505,1.6-2.255q.849-1.172,1.675-2.353a3.334,3.334,0,0,0-.04-3.564,34.8,34.8,0,0,0,3.042-12.137c.163-2.691-3.313-4.77-5.572-3.2-4.851,3.377-10.289,6.054-16.271,6.491a36.337,36.337,0,0,1-16.538-3.079c-.247-.147-.5-.293-.744-.438-.6-.349-1.224-.651-1.832-.98-1.213-.657-2.4-1.357-3.6-2.046a3.83,3.83,0,0,0-2.841-.372,3.761,3.761,0,0,0-2.2,1.695,3.721,3.721,0,0,0-.372,2.841,3.833,3.833,0,0,0,1.695,2.2c1.216.7,2.427,1.407,3.685,2.032.2.1.412.194.618.292a2.684,2.684,0,0,0,1.049.84c6.652,2.889,13.753,4.955,21.082,4.419a37.213,37.213,0,0,0,12.861-3.392,34.953,34.953,0,0,1-5.935,10.019,3.278,3.278,0,0,0-2.815,1.746c-.6,1.031-1.181,2.075-1.768,3.115a62.237,62.237,0,0,1-7.617,6.018c-10.418,6.988-23.118,12.07-35.584,12.936a34.073,34.073,0,0,1-13.7-1.53c-5.152-1.622-10.231-3.382-15.618-4.05-5.285-.655-11.09.111-14.883,4.22-3.874,4.2-5.659,11.611-3.52,16.995a16.173,16.173,0,0,0,4.845,6.385c1.086.9,2.228,1.746,3.373,2.575.525.381,1.054.756,1.578,1.138.192.139,1.038.78,1.034.769,2,1.58,3.25,2.709,4.163,4.742.044.122.128.347.151.426.1.354.2.7.278,1.065.015.075.046.322.065.462.031.371.043.749.038,1.12a15.934,15.934,0,0,1-1.005,4.856c-.955,2.864,2.838,6.153,5.435,4.178,6.331-4.818,12.31-10.6,19.7-13.664a43.144,43.144,0,0,0,1.809,9.471c1.563,4.283,5.252,5.764,9.565,4.82,4.985-1.093,9.91-3.894,14.127-6.7a105.442,105.442,0,0,0,14.579-11.756,62.1,62.1,0,0,0,8.213-9.323,42.9,42.9,0,0,1,6.489,14.289c.747,3.425,6.536,3.629,7.131,0,1.235-7.53,6.413-14.917,12.343-19.848a14.514,14.514,0,0,1,1.8-1.279c.287-.178.579-.349.877-.507.119-.064.821-.356.83-.377.177-.054.356-.106.524-.172.081-.031.126-.05.179-.072a.764.764,0,0,0,.137-.021,1.388,1.388,0,0,1,.3-.015.349.349,0,0,0,.23.039l.045.048c.1.171.274.513.335.611.089.249.175.5.244.753a21.494,21.494,0,0,1,.282,6.985c-.254,3.59,5.312,5.133,6.888,1.866,4.229-8.766,10.884-15.961,16.671-23.713a89.035,89.035,0,0,1,7.86,7.705c2.733,3.2,4.842,7.193,2.785,11.292a3.787,3.787,0,0,0,1.833,5.167c1.713,8.682,5.233,17.731,13.216,22.337,7.27,4.2,16.023,3.571,24,2.359,2.416-.367,4.818-.821,7.215-1.3a57.282,57.282,0,0,0,8.015-1.733C-2578.1,514.571-2578.346,508.523-2582.668,508.765Zm-157.614,3.194a10.68,10.68,0,0,1-1.054.229l-.03,0c-1.5-4.08-1.489-8.9-2.313-13.136-.388-1.992-2.732-3.043-4.551-2.584-7.353,1.855-13.248,6.138-19.019,10.691a15.13,15.13,0,0,0-3.392-7.611,29.886,29.886,0,0,0-5.425-4.75,46.34,46.34,0,0,1-4.752-3.654c-.4-.376-.778-.77-1.145-1.178-.032-.037-.092-.111-.144-.174-.117-.161-.236-.321-.336-.492-.082-.138-.409-.779-.485-.88a8.389,8.389,0,0,1-.364-1.261c.031-.021-.07-1.082-.063-1.307a11.63,11.63,0,0,1,.206-1.765,12.218,12.218,0,0,1,1.23-3.794,6.018,6.018,0,0,1,4.057-3.118,18.283,18.283,0,0,1,6.223-.121c5.082.772,9.9,2.626,14.8,4.107a41.316,41.316,0,0,0,15.369,1.436,77.67,77.67,0,0,0,20.863-4.809,36.021,36.021,0,0,0-4.226,11.545c-.56,2.762-1.058,5.547-1.846,8.255-3.142,3.348-6.17,6.781-7.714,11.2a3.153,3.153,0,0,0-.164.877c-.98.486-1.976.941-2.994,1.355A22.681,22.681,0,0,1-2740.282,511.959Z" fill="#809cb5"/>
    <path id="Path_745" data-name="Path 745" d="M-2589.254,601.313a7,7,0,0,1-6.727-6.734,8.213,8.213,0,0,1,.02-1.023,6.8,6.8,0,0,1,.127-.843c.044-.21.1-.42.161-.621l.02-.064a7,7,0,0,1,6.676-4.913,6.993,6.993,0,0,1,1.208.1,7,7,0,0,1,5.786,7.3c-.012.2-.025.357-.036.476a7,7,0,0,1-6.963,6.322C-2589.072,601.318-2589.163,601.316-2589.254,601.313Z" fill="#809cb5"/>
    <path id="Path_746" data-name="Path 746" d="M-2588.989,594.177a1.347,1.347,0,0,0,0,.141c.005-.05.01-.117.014-.2l-.012.04Z" fill="#809cb5"/>
    <path id="Path_747" data-name="Path 747" d="M-2419.4,546.009a56.263,56.263,0,0,1-4.2-9.771,1.66,1.66,0,0,0-.008-1.09c-1.461-3.484-2.731-7.03-4.918-10.14a39.152,39.152,0,0,0-3.748-4.946q-.9-1.406-1.808-2.809c-3.206-4.929-6.581-9.967-8.622-15.517-3.327-9.04-3.405-18.777-6.345-27.884-3.445-10.674-11.324-19.037-19.873-25.981-3.047-2.475-6.22-4.761-9.473-6.922-.425-.238-.863-.453-1.285-.7-3.66-2.12-7.211-4.466-10.847-6.657q-3.354-1.877-6.757-3.673c-.354-.187-.71-.372-1.065-.559-.043-.02-.084-.043-.127-.062-3.22-1.476-6.434-3-9.724-4.312a100.747,100.747,0,0,1-9.465-4.924,29.451,29.451,0,0,1-4.127-2.915c-1.456-1.111-3.16-1.844-4.611-2.951a49.2,49.2,0,0,1-5.779-4.758c-6.378-4.907-12.247-10.442-18.21-15.857-16.62-15.089-36.783-32.587-60.921-29.867a3.764,3.764,0,0,0-3.653,3.654c0,1.806,1.68,3.873,3.653,3.654,20.186-2.24,37.18,11.325,51.373,23.921,7.466,6.626,14.6,13.679,22.5,19.8,8.65,6.7,18.2,12.011,27.866,17.088,9.791,5.144,19.7,10.142,28.842,16.4,8.676,5.943,17.679,13.355,22.583,22.848,4.039,7.817,4.167,16.975,6.178,25.394a61.284,61.284,0,0,0,5.91,15.422c2.353,4.271,5.077,8.317,7.725,12.409.452,1.193.91,2.384,1.426,3.551a20.233,20.233,0,0,0,2.479,4.169c.456.6.916,1.208,1.387,1.812.719,1.589,1.435,3.18,2.16,4.767,1.541,3.374,3.031,6.806,4.685,10.141a97.549,97.549,0,0,1,4.219,15.949,77.853,77.853,0,0,1-.93,29.478c-7.879-16.011-17.35-31.348-24-47.887-.454-.839-.885-1.69-1.262-2.57-.557-1.3-1.112-2.626-1.589-3.971.015-4.164-1.516-8.143-2.245-12.206-.511-2.844-.775-5.882-1.879-8.589-.034-.685-.071-1.369-.074-2.058-.017-3.848-4.893-4.808-6.9-1.87a46.232,46.232,0,0,0-3.65,6.393,2.16,2.16,0,0,0-.292.427,39.21,39.21,0,0,0-3.29,8.694,33.4,33.4,0,0,0-.876,5.078c-.01.1-.03.19-.038.285a12.121,12.121,0,0,0-.021,1.739c0,.039,0,.077.006.116,0,.069,0,.142.009.21-.958,9.356.328,19.045,2.862,28.371-3.923-.052-5.967-1.53-8.484-4.528a73.962,73.962,0,0,0-9.681-9.759,48.535,48.535,0,0,0-9.663-6.169,61.835,61.835,0,0,0-4.71-4.558,27.062,27.062,0,0,0-12.768-6.018c-4.523-.856-9.417-1.1-13.435-3.574-.431-.265-.855-.553-1.278-.846-.447-1.248-.855-2.53-1.4-3.758-3.618-8.186-15.159-10.783-23-8.034a27.75,27.75,0,0,0-3.953,1.8,27.547,27.547,0,0,1-6.36,1.488,24.879,24.879,0,0,1-9.375-1.185c3.309-11.511,11.1-21.582,20.636-28.689,11.531-8.591,25.87-13.8,40.353-12.229,1.991.216,3.7-1.857,3.7-3.7,0-.056-.013-.1-.016-.159,1.279-1.3,1.556-3.975-.012-5.222a44.663,44.663,0,0,1-5.44-5.433,3.734,3.734,0,0,0-2.072-5.447,38.381,38.381,0,0,0-4.892-1.27,15.648,15.648,0,0,0-5.233-2.364c-3.526-.849-7.112-.735-10.685-1.152a11.76,11.76,0,0,1-8.169-4.59c-1.338-1.665-3.029-4.827-4.521-7.029-1.813-2.677-3.889-5.372-6.715-7.048-5.812-3.445-11.047-.093-15.234,4.07a31.991,31.991,0,0,0-2.17-11.343c-3.8-9.782-10.83-17.813-17.343-25.878a3.719,3.719,0,0,0-5.234,0A52.173,52.173,0,0,0-2603.1,420c-2.326-3.239-5.518-6.075-9.433-6.871a3.8,3.8,0,0,0-4.551,2.584c-2.207,6.935-1.824,14.6-4.713,21.342a9.361,9.361,0,0,1-6.651,5.856c-1.248.345-2.494.637-3.732.939,1.224-8.215-1.326-17.448-4.592-24.5a3.715,3.715,0,0,0-5.809-.749c-5.4,6.538-10.6,13.234-15.929,19.822a30.6,30.6,0,0,0-3.139-15.82c-2.045-3.929-5.727-6.593-10.254-6.472a19.874,19.874,0,0,0-4.556.727,92.793,92.793,0,0,0,3.858-12.33,36.965,36.965,0,0,0,1.047-10.25c-.181-3.1-.849-6.341-.319-9.436.874-5.1,5.624-7.892,8.718-11.6a16.459,16.459,0,0,0,3.838-8.1c.365-2.267.152-4.989,1.044-7.138a5.767,5.767,0,0,1,1.68-2.062,3.215,3.215,0,0,1,1.633-.755.894.894,0,0,0,.269-.075c.04,0,.1,0,.226-.01.372-.023.741-.01,1.112-.006.112,0,.54.037.653.041.376.054.751.124,1.124.2,3.4.666,6.93,1.734,10.237.107,4.54-2.233,5.226-7.569,6.157-11.973a27.35,27.35,0,0,1,5.976-12.614c3.968-4.482,9.293-7.411,14.875-9.415,7.22-2.593,14.689-4.371,21.731-7.477,1.642-.725,1.992-3.091,1.183-4.512-.971-1.706-2.883-1.878-4.512-1.183-2.139.912-4.347.619-6.579,1.25-.066-.839-.511-.616-1.47-1.045-.183-.082-.383-.146-.573-.22l.008-.022a2.865,2.865,0,0,0,.274-.624,3.021,3.021,0,0,0-1.48-3.475,3.332,3.332,0,0,0-2.155-2.927c-.94-.37-1.9-.717-2.864-1.01-2.086-.762-4.164-1.546-6.309-2.14a3.158,3.158,0,0,0-1.761-.015c-.227-.061.529-1.084.274-1.076a2.842,2.842,0,0,0-.632-.332c.262-.35-.457.309-.2-.043a2.625,2.625,0,0,0-.72-3.806c.324-.4.656-.8.976-1.2,1.52-1.92.669-4.989-2.078-5.018a9.267,9.267,0,0,0-9.371,6.685c-3.046,2.469-6.025,4.995-7.929,8.4q-1.692.913-3.364,1.867a2.13,2.13,0,0,0-1.322-.573,2.5,2.5,0,0,0-3,.517c-.356.388-.725.748-1.094,1.107a20.056,20.056,0,0,0-5.85,4.249,2.6,2.6,0,0,0-.206,3.477c-.582.755-1.156,1.516-1.679,2.319a2.3,2.3,0,0,0-.264.58c-1.758,2.044-3.483,4.117-5.212,6.185a2.949,2.949,0,0,0-.665,2.8,2.168,2.168,0,0,0-.447.019c-6.7,1.458-12.06,6.252-17.243,10.45a1.981,1.981,0,0,0,.183,3.272c-.129.111-.263.215-.391.327-1.487,1.3-.491,3.37,1.034,3.892a26.793,26.793,0,0,0-2.065,4.807,2.417,2.417,0,0,0,.1,1.676c-.328.793-.658,1.587-1,2.374a53.247,53.247,0,0,0-4.047,4.451,3.17,3.17,0,0,0-2.349,1.271,71.03,71.03,0,0,0-4.753,6.476c-.43.492-.855.986-1.3,1.463a3.063,3.063,0,0,0-4.622.693c-3.057,4.736-3.46,11.144-.158,15.869a3.353,3.353,0,0,0,.635.664,50.736,50.736,0,0,0-1.154,6.033,61.686,61.686,0,0,0-2.835,13.4c-.226.045-.455.074-.682.111a2.95,2.95,0,0,0-3.543-1.09c-10.583,3.471-18.639-6.211-26.289-11.926-3.53-2.637-9.223-6.556-13.772-4.132-5.131,2.734-2.905,9.854-.614,13.744,2.444,4.151,6.675,6.841,9.749,10.42a9.613,9.613,0,0,0-2.88,1.834c-2.131,2.055-2.977,5.624-1.313,8.2.574.892,1.5,1.43,2.083,2.266a3.489,3.489,0,0,1-.127,2.309c-.95,3.341-2.577,6.188-2.812,9.74-.146,2.194,2.507,4.442,4.667,3.555a13.659,13.659,0,0,0,4.422-2.954,44.718,44.718,0,0,0,5.439-2.234,3.96,3.96,0,0,0,4.188,1.909c.7-.166,1.375-.371,2.049-.592a4.6,4.6,0,0,0,.494.446,7.031,7.031,0,0,0,2.549,1.154,4.5,4.5,0,0,0,2.1,1.717,4.392,4.392,0,0,0,3.151,1.849,17.912,17.912,0,0,0,4.271-.082c.061.042.115.1.177.138.265,2.124,1.988,3.858,4.422,3.2.535-.145,1.069-.277,1.6-.412a2.973,2.973,0,0,0,1.042.393,7.439,7.439,0,0,0,4.114-.074,3.747,3.747,0,0,0,.549-.316c2.319-.415,3.142-3.437,2.054-5.385a3.483,3.483,0,0,0,1.329.324,2.785,2.785,0,0,0,3.649.687,2.438,2.438,0,0,0,1.9-1.49c.086-.18.147-.367.228-.548a2.4,2.4,0,0,0,1.49-.494c.242-.182.477-.37.713-.558a2.961,2.961,0,0,0,3.426.234,5.029,5.029,0,0,1,.6-.259,27.532,27.532,0,0,0-2.754,6.566c-.36.779-.732,1.555-1.059,2.344-1.951,4.712-3.5,10.172-2.193,15.259a2.986,2.986,0,0,0,1.267,1.747c-.055.181-.126.355-.18.536a3.214,3.214,0,0,0-.125,1.147c-1.864.355-3.692,1.045-4.617,2.385a2.3,2.3,0,0,0-.1,2.569,2.978,2.978,0,0,0-.322.223,55.346,55.346,0,0,0-7.54,8.711,2.5,2.5,0,0,0,.845,3.789c-.9,1.278-1.824,2.532-2.758,3.767a2.508,2.508,0,0,0,.934,3.84,2.957,2.957,0,0,0,2.1,3.649,3.037,3.037,0,0,0,1.62,1.891,2.462,2.462,0,0,0,1.66,3.14,2.851,2.851,0,0,0,4.8.062,116.142,116.142,0,0,0,7.709-12.181,3.041,3.041,0,0,0,3.976-.161,36.257,36.257,0,0,0,3.115-3.574,3.7,3.7,0,0,0,3.557,1.236,3.661,3.661,0,0,0,2.862,1.2,3.283,3.283,0,0,0,5.179.271,2.783,2.783,0,0,0,4.446-.549c2.454-4.856,5.222-9.6,6.591-14.911a2.915,2.915,0,0,0,.065-.757c.382-.624.792-1.226,1.207-1.824a2.763,2.763,0,0,0,1.268-1.224c.054-.1.115-.191.171-.288a3.174,3.174,0,0,0,1.775.064,3.287,3.287,0,0,0,1.549,1.326,3.351,3.351,0,0,0,2.726,1.466,10.782,10.782,0,0,0,1.246-.132,3.317,3.317,0,0,0,1.658,3.038,13.215,13.215,0,0,0,4.3,4.622c.666.7,1.315,1.415,2.007,2.1a3.089,3.089,0,0,0,2.685.784c-.086.482-.2.96-.255,1.446a3.3,3.3,0,0,0,1.787,2.993,2.839,2.839,0,0,0,.544.708,3.1,3.1,0,0,0-.42,1.34,7.291,7.291,0,0,0,.455,3.188c-.011.034-.031.062-.041.1-1.066,3.813.288,7.785,2.567,10.964a19.526,19.526,0,0,0,1.831,6.1,8.869,8.869,0,0,0,1.473,3.27,3.674,3.674,0,0,0,1.1.945,5.616,5.616,0,0,0,5.261,4.205,2.914,2.914,0,0,0,2.815,2.249c3.169.206,6.423.313,9.68.232.38,1.664,1.849,3.088,3.711,2.482a2.461,2.461,0,0,0,2.954-.163c.212-.164.411-.345.621-.511l.015.019c.074-.073.151-.143.225-.216q.829-.66,1.637-1.344c1.107-.454,2.22-.9,3.342-1.312a53.333,53.333,0,0,0,7.068-1.317,3.115,3.115,0,0,0,4.193,4.136c1.387-.794,2.8-1.531,4.218-2.262.775-.318,1.526-.651,2.262-1q-1.008,2.17-1.833,4.41a49.414,49.414,0,0,0-1.978,6.967,2.2,2.2,0,0,0-.362.835,15.981,15.981,0,0,0-.282,3c-.2,1.587-.295,3.184-.339,4.782a1.88,1.88,0,0,0-.149.764,47,47,0,0,0,.423,5.6c.06.414.135.83.22,1.245l-.1-.015a38.4,38.4,0,0,0,5.158,14.678c6.113,9.992,16.38,16.5,26.806,21.278,9.442,4.326,19.937,7.737,29.493,11.465-8.13,2.7-16.46,4.217-24.982,2.32-8.85-1.969-16.93-6.459-25.733-8.489-6.919-1.595-14.673-1.137-20.777,2.789-4.234,2.723-8.371,7.577-7.337,12.976.886,4.631,4.714,6.321,8.845,6.631a19.281,19.281,0,0,0-.939,5.828c.035,4.5,3.107,9.618,8.153,9.638,3.32.013,6.206-3.783,8.294-5.935q1.428-1.471,2.865-2.935c1.1,5.735,3.172,12.038,8.465,13.632,5.507,1.659,11.1-2.789,15.506-5.466a72.391,72.391,0,0,1,9.57-5.088,30.258,30.258,0,0,1,5.584-1.833,23.682,23.682,0,0,1,4.454-.311c7.28.051,14.548,1.962,21.834,1.179,4.024-.433,7.978-1.667,10.894-4.615a18.074,18.074,0,0,0,4.7-10.644c4.487,4.242,6.924,10.19,1.9,15.487-3.324,3.5-7.231,3.637-11.934,3.553-5.2-.092-10.425-.6-15.577.382-5.393,1.025-9.454,4.667-12.641,8.976-2.345,3.17-3.5,7.526-.6,10.757,2.407,2.686,6.3,3.365,9.7,3.8a108.627,108.627,0,0,0,10.883.571c8.544.222,17.116,2.324,25.811,3.417a60.332,60.332,0,0,0,12.545.724A17.4,17.4,0,0,0-2456,637.382c3.462-4.107,5.506-9.049,7.461-13.995.418-1.058.81-2.131,1.259-3.176.11-.254.209-.508.331-.755.264-.049.527-.1.792-.151a12.093,12.093,0,0,0,1.728-.358c4.853-1.584,5.881-7.8,4.87-12.2-1.167-5.075-4.767-9.541-7.54-13.826-6.067-9.378-10.157-20.731-12.743-31.544-2.041-8.535-2.884-17.616-1.313-26.284l-.375.074c.254-1.486.546-2.979.782-4.476a38.4,38.4,0,0,0,3.058,7.431,147,147,0,0,0,5.333,14.192c5.285,12.291,11.8,24,18.021,35.829,3.232,6.145,6.408,12.327,9.187,18.692,1.362,3.121,5.9,1.859,6.769-.885,3.751-11.791,5.665-24.221,4.437-36.587A97.864,97.864,0,0,0-2419.4,546.009Zm-104.992,56.736c-7.4-.22-13.993,2.353-20.392,5.893-2.659,1.471-5.212,3.115-7.82,4.67-1.052.626-2.119,1.212-3.208,1.77-.144.074-.293.139-.441.205-.113.048-.243.1-.3.119-.517.157-1.019.306-1.547.416-.035-.012-.069-.008-.1-.022,0-.019-.078-.058-.315-.13-.153-.16-.3-.32-.453-.481.1.061-.566-.915-.692-1.157a23.053,23.053,0,0,1-1.553-4.557,85.413,85.413,0,0,1-1.638-8.51c-.381-2.511-3.549-3.186-5.441-2.214-2.457,1.262-4.5,3.7-6.392,5.648s-3.739,4.043-5.8,5.835c-.178-.176-.176-.291-.289-.683a4.7,4.7,0,0,1-.118-1.56,16.11,16.11,0,0,1,2.686-7.632c1.816-2.888-1.172-6.086-4.182-5.44a15.428,15.428,0,0,1-3.726.449c-.207,0-1.232-.09-1.151-.052-.319-.073-.822-.207-1.028-.252-.093-.052-.247-.134-.394-.212.159.056-.108-.2-.266-.3-.007-.036-.01-.057-.022-.108a.674.674,0,0,1,0-.12.926.926,0,0,1-.017.123.644.644,0,0,0-.014-.073.946.946,0,0,1,.028-.191c.01-.106.025-.212.028-.306,0,.1-.007.175-.011.245.087-.291.174-.577.267-.863.071-.119.288-.573.4-.751.125-.207.261-.406.4-.608.03-.044.04-.062.059-.091s.059-.062.11-.119a12.087,12.087,0,0,1,4.953-3.569,20.284,20.284,0,0,1,7.255-1.387,30.744,30.744,0,0,1,10.4,2.141c7.462,2.64,14.857,5.939,22.686,7.352.993.18,1.983.3,2.972.407a3.17,3.17,0,0,0,3.58,1.688c1.123-.191,2.67-.5,3.531-.594a16.057,16.057,0,0,1,1.781-.1c.291,0,.581.019.872.022.147,0,.222,0,.272,0,.049.014.12.032.251.059a5.878,5.878,0,0,1,2.832,1.22,22.2,22.2,0,0,1,2.2,2.011c.64.651,1.267,1.3,1.916,1.926C-2522.96,602.81-2523.675,602.767-2524.391,602.745Z" fill="#809cb5"/>
  </g>
</svg>
