<svg xmlns="http://www.w3.org/2000/svg" xmlns:xlink="http://www.w3.org/1999/xlink" viewBox="0 0 303.15 318.85"><defs><style>.cls-1{fill:url(#New_Gradient_Swatch_1);}.cls-2{fill:#294154;}.cls-3{fill:#809cb5;}</style><linearGradient id="New_Gradient_Swatch_1" y1="159.42" x2="303.15" y2="159.42" gradientUnits="userSpaceOnUse"><stop offset="0" stop-color="#a67f3b"/><stop offset="0.07" stop-color="#b9974d"/><stop offset="0.19" stop-color="#d4b867"/><stop offset="0.31" stop-color="#e7d079"/><stop offset="0.41" stop-color="#f3df84"/><stop offset="0.5" stop-color="#f7e488"/><stop offset="0.58" stop-color="#f2de83"/><stop offset="0.7" stop-color="#e4cc76"/><stop offset="0.83" stop-color="#ccae5f"/><stop offset="0.98" stop-color="#ab8640"/><stop offset="1" stop-color="#a67f3b"/></linearGradient></defs><g id="Layer_2" data-name="Layer 2"><g id="Layer_1-2" data-name="Layer 1"><path class="cls-1" d="M250.26,318.85c-5.72,0-10.83-1.74-14.94-3.13-.86-.29-1.58-.54-2.28-.76a18.38,18.38,0,0,0-9.47-.37l-1.78.43a47.26,47.26,0,0,1-11.62,1.8,22.46,22.46,0,0,1-16.62-6.71c-.31-.32-.6-.65-.88-1a23.85,23.85,0,0,1-3.95-7.39,21.89,21.89,0,0,1-6.59,1,18.1,18.1,0,0,1-13.07-5.45,18.44,18.44,0,0,1-2.66.63,17.37,17.37,0,0,1-2.87.24A17.63,17.63,0,0,1,152,293.83a17,17,0,0,1-5.9-15.36,14.72,14.72,0,0,1-5-15.54,30.09,30.09,0,0,1,17.21-19.34,48.52,48.52,0,0,1-5.21-19.47,38.68,38.68,0,0,1-9.86,1.36,25.76,25.76,0,0,1-19.42-8.14c-6.66-7.12-7.37-15.78-7.29-22.48a20.71,20.71,0,0,1-12.3,8.63,14.66,14.66,0,0,1-3.57.44h-.31a37.55,37.55,0,0,1-7,8.1,14.65,14.65,0,0,1-21.88-2.94l-5.73,5.55c-2.42,2.31-8.82,7.57-17.13,7.57a17.64,17.64,0,0,1-2.3-.14,17.84,17.84,0,0,1-9.55-4.23A18.77,18.77,0,0,1,28.53,221c-.35,0-.69.07-1.05.09H26.7c-8.94,0-16.66-7-18-16.21a26.58,26.58,0,0,1-.13-5.46c-.41-.6-1-1.36-1.43-1.93C4.1,193.39-1.63,185.79.44,175.56A14.52,14.52,0,0,1,1,173.47,24.74,24.74,0,0,1,24.38,157c.69,0,1.4,0,2.1.09l.35,0c.9.1,1.8.21,2.7.34a28.67,28.67,0,0,1-5.2-10.76l-.14-.47a26.42,26.42,0,0,1-10.68-5.95,3.57,3.57,0,0,1-.28-.27A18.42,18.42,0,0,1,9.9,118.15c-2.54-6.35-1.42-11.3.48-14.76-2.22-3.87-4.6-10-3.09-16.69A18,18,0,0,1,17,74.37a14.62,14.62,0,0,1,9.56-1.18A55.07,55.07,0,0,1,53.28,87.44c1.07.92,2.15,1.86,3.22,2.81l1.89,1.65c.9-9.46,6.77-16.06,12.31-20.73a20.73,20.73,0,0,1,.47-8,27.17,27.17,0,0,1,11-15.12,14.74,14.74,0,0,1,3-11.83,34.77,34.77,0,0,1,24.48-12.82c.71-.15,1.28-.3,1.76-.44,0-.55,0-1.09,0-1.63a13.83,13.83,0,0,1,0-1.58c1-10.69,8.37-18.8,18-19.71.4,0,1-.07,1.4-.07a14.66,14.66,0,0,1,14.66,14.94A2.32,2.32,0,0,0,147,17.21l.34.12c.41-.09,1.6-.44,2.65-.74a38.46,38.46,0,0,1,10.34-1.9h.29c.31,0,.61,0,.92,0a35.54,35.54,0,0,1,27.36,16.22c1.87,2.58,3.48,5.29,4.91,7.69a53.26,53.26,0,0,0,4.78,7.21,5.56,5.56,0,0,0,4.19,1.92,4.8,4.8,0,0,0,.85-.07,15.15,15.15,0,0,1,2.24-.18c.34,0,.69,0,1,0a11.33,11.33,0,0,1,1.44.15,11.67,11.67,0,0,1,1.45.31,13.94,13.94,0,0,1,2.1.76A13.51,13.51,0,0,1,214.28,50l.51.37c.32.24.65.51,1,.79a15,15,0,0,1,2.64,3.05l.38.64A14.49,14.49,0,0,1,220.36,59a11.49,11.49,0,0,1,.22,1.17c0,.21,0,.41.07.62a14.65,14.65,0,0,1-.13,3.86,29,29,0,0,1-20.09,22.82,40.07,40.07,0,0,1-.65,10.41,14.55,14.55,0,0,1-2.47,5.72,70.48,70.48,0,0,0,8.09,8c6.87,5.55,15.93,9.14,25.52,12.93,4,1.57,7.94,3.15,11.9,4.9a52.74,52.74,0,0,1,25.55,20.14,9.71,9.71,0,0,1,.54.87c4,7.12,5.13,14.48,6,20.4.35,2.3.71,4.65,1.19,6.62a53.37,53.37,0,0,0,6.07,13.8l.1.14a175.7,175.7,0,0,1,16.11,29.18c.11.25.21.5.3.76,8.7,24.12,2.69,50-1.69,68.84A14.76,14.76,0,0,1,276.15,300l-.12.08a26.64,26.64,0,0,1-3,1.7,36.06,36.06,0,0,1-4.61,8.61,10.53,10.53,0,0,1-1,1.21A22.78,22.78,0,0,1,250.26,318.85Z"/><path class="cls-2" d="M250.26,311.2c-4.46,0-8.72-1.45-12.48-2.73-.94-.32-1.69-.57-2.42-.8a25.74,25.74,0,0,0-7.75-1.18,26.37,26.37,0,0,0-5.74.64c-.58.13-1.19.29-1.81.44a41.23,41.23,0,0,1-9.89,1.6A14.89,14.89,0,0,1,199,304.78a4.36,4.36,0,0,1-.35-.4,16.17,16.17,0,0,1-2.69-5,7.63,7.63,0,0,0-9.58-4.94,14.14,14.14,0,0,1-4.29.7,10.46,10.46,0,0,1-7.61-3.16,7.64,7.64,0,0,0-5.46-2.29,7.38,7.38,0,0,0-2.31.36,11.94,11.94,0,0,1-1.57.37,10.28,10.28,0,0,1-1.65.13,10,10,0,0,1-6.56-2.48,9.34,9.34,0,0,1-3.31-8.78,7.62,7.62,0,0,0-2.85-6.79,7.12,7.12,0,0,1-2.38-7.44,22.31,22.31,0,0,1,12.84-14.4,7.64,7.64,0,0,0,3.84-10.51,40.71,40.71,0,0,1-4.39-16.41,7.65,7.65,0,0,0-7.64-7.25,7.54,7.54,0,0,0-1.94.25,31.08,31.08,0,0,1-7.92,1.1,18.06,18.06,0,0,1-13.82-5.69c-4.74-5.07-5.31-11.52-5.24-17.17a7.65,7.65,0,0,0-5.32-7.39,7.81,7.81,0,0,0-2.33-.36,7.66,7.66,0,0,0-6.29,3.3,13,13,0,0,1-7.87,5.56,7.08,7.08,0,0,1-1.71.21,8.19,8.19,0,0,0-6.76,3.53,30.11,30.11,0,0,1-5.54,6.46,7,7,0,0,1-7.52,1.12,7.28,7.28,0,0,1-2.95-2.53,7.65,7.65,0,0,0-5.57-3.38,7.14,7.14,0,0,0-.8,0,7.64,7.64,0,0,0-5.35,2.18l-5.7,5.52c-1.68,1.6-6.28,5.42-11.81,5.42a12.26,12.26,0,0,1-1.36-.08,10.14,10.14,0,0,1-5.47-2.42,7.66,7.66,0,0,0-9.36-.52,11.24,11.24,0,0,1-4.89,1.85c-.13,0-.28,0-.43,0H26.7c-5.15,0-9.61-4.13-10.38-9.62a18.47,18.47,0,0,1-.08-3.9,7.62,7.62,0,0,0-1.34-4.85c-.46-.68-1.12-1.55-1.62-2.21-2.67-3.54-6.73-8.91-5.34-15.78a7.08,7.08,0,0,1,.28-1,17,17,0,0,1,16.16-11.41c.48,0,1,0,1.46.07,1,.1,1.81.21,2.65.33a9.24,9.24,0,0,0,1,.07,7.66,7.66,0,0,0,5.89-12.55,21.21,21.21,0,0,1-3.73-8l-.16-.57a7.67,7.67,0,0,0-5.23-5.17,18.55,18.55,0,0,1-7.61-4.22,10.83,10.83,0,0,1-2.06-12.88,7.66,7.66,0,0,0,.38-6.48c-1.26-3.15-1.24-5.84.07-8.23A7.63,7.63,0,0,0,17,99.59c-1.57-2.73-3.23-6.9-2.27-11.22a10.45,10.45,0,0,1,5.61-7.13,7.08,7.08,0,0,1,3.1-.72,7.19,7.19,0,0,1,1.47.15A47.5,47.5,0,0,1,48,92.94q.16.16.33.3c1.06.91,2.11,1.83,3.16,2.75l1.92,1.68a7.58,7.58,0,0,0,5,1.88A7.78,7.78,0,0,0,61.23,99,7.67,7.67,0,0,0,66,92.62c.52-5.54,3.58-10.5,9.62-15.6a7.62,7.62,0,0,0,2.65-6.88,13.31,13.31,0,0,1,.31-5,19.49,19.49,0,0,1,7.9-10.71,7.66,7.66,0,0,0,3.18-7.65,7.16,7.16,0,0,1,1.45-5.68,27.24,27.24,0,0,1,19.1-10,7.59,7.59,0,0,0,1-.15c.93-.2,1.69-.4,2.31-.58a7.68,7.68,0,0,0,5.48-7.13c0-.7,0-1.4,0-2.09,0-.21,0-.41,0-.61.64-7,5.19-12.26,11.06-12.82l.67,0a7,7,0,0,1,4.75,1.86,7.08,7.08,0,0,1,2.26,5.28,10,10,0,0,0,6.72,9.65,8.44,8.44,0,0,0,2.92.53,7.52,7.52,0,0,0,1.65-.18c.46-.11,1.74-.47,2.92-.82a33.15,33.15,0,0,1,8.52-1.63H161a27.94,27.94,0,0,1,21.46,12.71c.08.12.16.24.25.35,1.65,2.29,3.16,4.83,4.49,7.07a59.59,59.59,0,0,0,5.59,8.34,13.23,13.23,0,0,0,12.07,4.43,7.28,7.28,0,0,1,1-.09l.48,0a6.61,6.61,0,0,1,.79.07l.59.13a6.34,6.34,0,0,1,1,.36,7.35,7.35,0,0,1,1.22.64l.2.14c.15.11.28.23.42.35A7,7,0,0,1,212,58.39l.16.26a7.19,7.19,0,0,1,.79,2c0,.21.07.36.09.52l0,.25a7.19,7.19,0,0,1,0,1.95,21.29,21.29,0,0,1-14.79,16.77,7.66,7.66,0,0,0-5.4,7.84,32.07,32.07,0,0,1-.52,8.42,6.85,6.85,0,0,1-1.18,2.74,7.65,7.65,0,0,0,.52,9.55,78.57,78.57,0,0,0,9,8.84c7.78,6.28,17.36,10.07,27.5,14.08,3.89,1.54,7.83,3.11,11.63,4.79l.45.18A45.18,45.18,0,0,1,262,153.82a3.45,3.45,0,0,1,.2.32c3.34,5.93,4.3,12.25,5.15,17.82.38,2.51.76,5,1.31,7.27a2.33,2.33,0,0,0,.07.25,61,61,0,0,0,6.94,15.79l.26.4A169,169,0,0,1,291.4,223.6l.12.32c7.92,22,2.21,46.55-2,64.49a7,7,0,0,1-6.83,5.45,7.91,7.91,0,0,1-1-.07,7,7,0,0,1-2.21-.66,7.64,7.64,0,0,0-7.81.6,18.32,18.32,0,0,1-2,1.12,7.67,7.67,0,0,0-3.87,4.24,29,29,0,0,1-3.63,6.79,4.84,4.84,0,0,1-.4.48A15.15,15.15,0,0,1,250.26,311.2Z"/><path class="cls-3" d="M251.27,305.63c-3.53,0-7.33-1.29-10.68-2.43-1-.31-1.75-.59-2.52-.83a31.4,31.4,0,0,0-16.43-.66l-2,.48a36,36,0,0,1-8.45,1.41,9.38,9.38,0,0,1-7.1-2.68,10.18,10.18,0,0,1,.84-13.64,19.43,19.43,0,0,1,12.82-4.88c1.1-.06,2.23-.08,3.36-.08l3.8,0c1.2,0,2.77,0,4.34-.16q.59,0,1.2-.12a9.08,9.08,0,0,0,4.7-1.67,5.9,5.9,0,0,0,2-4.94.5.5,0,0,0-.36-.48.4.4,0,0,0-.15,0,.51.51,0,0,0-.42.23,10.08,10.08,0,0,1-3.66,3.26,1.22,1.22,0,0,1-.24.1,27.28,27.28,0,0,1-8,1.21,26.75,26.75,0,0,1-4.9-.45c-.95-.06-1.85-.08-2.76-.08a48.3,48.3,0,0,0-8.23.7,48.8,48.8,0,0,0-18,6.91c-2.83,1.81-5.26,2.73-7.23,2.73a4.81,4.81,0,0,1-3.8-1.69c-1.86-2.1-1.38-5-1-7.41s.57-4.1-.49-4.89a1.62,1.62,0,0,0-1-.36,1.89,1.89,0,0,0-.39.05c-1.38.28-3.27,2-4.59,4.25s-3.81,5-6.58,5.41a5,5,0,0,1-.76.06,4.26,4.26,0,0,1-2.87-1.1c-2.66-2.32-1.31-5.64-.22-8.32.83-2,1.69-4.14.94-5.57-.57-1.1-2-1.64-4.33-1.64-.54,0-1.12,0-1.75.09h0a1.43,1.43,0,0,1-1.19-.51,1.38,1.38,0,0,1-.27-1.28,16.81,16.81,0,0,1,16.07-12.1c.44,0,.88,0,1.33.06.67,0,1.34.05,2,.11h0a2,2,0,0,0,.26,0h0a9.48,9.48,0,0,1,3.05.45l.84.18a84.86,84.86,0,0,1,8.9,2.51c1.92.61,3.78,1.21,5.65,1.72a22.77,22.77,0,0,0,7.93,1.43,21.76,21.76,0,0,0,5.68-.74.51.51,0,0,0,.38-.5.52.52,0,0,0-.41-.49c-11-2.27-22.25-5.53-30.16-13.87a35.67,35.67,0,0,1-8.6-29.89,41.57,41.57,0,0,1,3.33-11.4.5.5,0,0,0-.09-.56.52.52,0,0,0-.37-.16.65.65,0,0,0-.19,0l-2.41,1c-3.08,1.26-6.18,2.52-8.63,3.68-5.89,2.79-11,4.2-15.21,4.2a12.65,12.65,0,0,1-9.71-3.9c-4.07-4.35-3.85-10.67-3.66-16.25,0-1.28.09-2.51.09-3.71a19.51,19.51,0,0,0-4.88-14.16,9.41,9.41,0,0,0-6.86-2.94,9.7,9.7,0,0,0-6,2.09c-1.76,1.73-2.75,4.65-3.7,7.46-1.37,4.06-2.92,8.66-7.53,9.82a1.43,1.43,0,0,1-1.13-.2,1.41,1.41,0,0,1-.61-1,29.75,29.75,0,0,1,.15-9.23.51.51,0,0,0-.21-.5.45.45,0,0,0-.29-.1.54.54,0,0,0-.25.06c-3.39,1.87-5.35,6.55-6,8.48a24.9,24.9,0,0,1-8,13.89A1.4,1.4,0,0,1,83.32,201a20.45,20.45,0,0,0-1.86-8.64A5.94,5.94,0,0,0,76.08,189a6.81,6.81,0,0,0-.78.05,9.68,9.68,0,0,0-3.91,2.67l-7.29,7-.16.21c-1.28,1.26-6.38,6.19-6.38,6.19-1.86,1.77-5,3.85-7.91,3.85-.23,0-.45,0-.67,0a4.56,4.56,0,0,1-3.39-2.15,7.62,7.62,0,0,1-.76-4.81,6.82,6.82,0,0,0-.18-2.94,2.47,2.47,0,0,0-1.77-1.46,4.42,4.42,0,0,0-1.29-.17,6.33,6.33,0,0,0-3.67,1.19,19.91,19.91,0,0,0-3.62,3.94,27.62,27.62,0,0,1-3.17,3.65,5.38,5.38,0,0,1-3.27,1.66h0c-2.85,0-4.65-2.47-5-4.79a15.55,15.55,0,0,1,0-3.2,15.53,15.53,0,0,0,.05-2.34c-.24-2.82-2.14-5.34-4.16-8-2.44-3.24-5.21-6.91-4.32-11.3a11.54,11.54,0,0,1,10.93-7.91c.33,0,.66,0,1,0a90.37,90.37,0,0,1,13.43,2.56,31.24,31.24,0,0,0,4.6.33,33.75,33.75,0,0,0,13.16-2.7,100.23,100.23,0,0,0,25.27-16.71,11.55,11.55,0,0,0,2.61-2.26.53.53,0,0,0,0-.61.51.51,0,0,0-.43-.23.45.45,0,0,0-.16,0A25,25,0,0,1,79.52,152a23.05,23.05,0,0,1-3.25.22,27.06,27.06,0,0,1-19.4-8.25.52.52,0,0,0-.37-.16l-.15,0c-1.13.35-2.47,1.67-3.77,3-.73.73-1.48,1.46-2.25,2.11A8,8,0,0,1,45,151a7.51,7.51,0,0,1-1-.07c-3.86-.89-4.86-4.42-5.84-7.83a20.44,20.44,0,0,0-1.57-4.32,14.14,14.14,0,0,0-7.8-5.31,13.08,13.08,0,0,1-5.22-2.91,5.12,5.12,0,0,1-.52-6.72,6.53,6.53,0,0,1,2.49-1.54,3.89,3.89,0,0,0,1.45-.8c.82-.92-.17-2.49-1.75-4.77-2.07-3-3.72-5.85-1.2-8.13a15.32,15.32,0,0,1,2.28-1.35,2.12,2.12,0,0,0,.84-1.44c.28-1.7-.87-4.5-2.84-7s-3.67-6.29-3-9.23a4.72,4.72,0,0,1,2.61-3.32,1.32,1.32,0,0,1,.62-.15,1.43,1.43,0,0,1,.29,0A41.88,41.88,0,0,1,45.51,97.46c1.16,1,2.2,1.88,3.23,2.79,6.34,5.57,12.89,11.32,20.79,13.23a7.3,7.3,0,0,0,2.11.32,6.68,6.68,0,0,0,1.83-.25c2.5-.93,3.14-4.77,2.33-7.8a46.85,46.85,0,0,1-3.24-11C72.42,87,79.39,81.83,85,77.69l.67-.49c.73-.54,2-1.58,2-2.46a5.61,5.61,0,0,0-1.26-1.87A7,7,0,0,1,85,66.52c.89-3.51,4.19-7.14,8-8.81,1.47-.65,3-1.18,4.54-1.69,3.76-1.27,7.3-2.47,9.46-5.28a1.72,1.72,0,0,0,.55-1.26.48.48,0,0,0-.2-.38,2,2,0,0,0-1-.4L97.3,46.89a1.42,1.42,0,0,1-1-.9,1.39,1.39,0,0,1,.23-1.36,21.57,21.57,0,0,1,15.84-8c7.42-1.41,11.57-3.93,12.79-7.72a39.87,39.87,0,0,0,.55-8c.32-3.53,2.31-7.31,6-7.66h0a1.47,1.47,0,0,1,1.06.37,1.37,1.37,0,0,1,.44,1.05,15.6,15.6,0,0,0,10.51,15.05,12.59,12.59,0,0,0,4.52.84,13.33,13.33,0,0,0,1.41-.08,29.86,29.86,0,0,0,5.11-1.19A26.87,26.87,0,0,1,161.68,28,22.26,22.26,0,0,1,179,38.41c1.63,2.22,3.09,4.67,4.5,7.05a64.24,64.24,0,0,0,6.12,9.07,18.82,18.82,0,0,0,17.26,6.3h.33a1,1,0,0,1,.42.11l.26.11a2.37,2.37,0,0,1,.4.4,1.59,1.59,0,0,1,.2.52v0a1.44,1.44,0,0,1,0,.46,15.73,15.73,0,0,1-15.52,13h-.58c-5.12-.61-9.21-4-12.49-6.79a.52.52,0,0,0-.33-.12.51.51,0,0,0-.38.85,62.83,62.83,0,0,1,4,4.89,27.13,27.13,0,0,1,4.64,21,1.41,1.41,0,0,1-1.08,1.11,1.55,1.55,0,0,1-.31,0,1.41,1.41,0,0,1-1.13-.59c-5.31-7.4-15.3-11.64-27.39-11.64a57.31,57.31,0,0,0-7,.44,25.3,25.3,0,0,0-3.32.63.51.51,0,0,0,.13,1h0c.73-.07,1.45-.1,2.18-.1,7.19,0,15.48,3.36,22.19,9a117.43,117.43,0,0,1,12.75,13.19c4.1,4.72,8.33,9.58,13.19,13.51,8.45,6.82,18.88,10.95,29,14.94,4,1.58,8,3.15,11.79,4.86A39.62,39.62,0,0,1,258.38,157c2.8,5,3.64,10.5,4.46,15.85.4,2.65.81,5.38,1.45,8a67,67,0,0,0,8,18,161.34,161.34,0,0,1,14.95,27c7.36,20.41,2.09,43.09-2.15,61.32a1.39,1.39,0,0,1-1.36,1.09,1.43,1.43,0,0,1-1.4-1.46,39.84,39.84,0,0,0-7.27-24.48,1.06,1.06,0,0,0-.16-.21c-1.2-2.07-2.58-4.25-4-6.44a138.8,138.8,0,0,1-7.69-13.15A64.48,64.48,0,0,1,256.89,216a.51.51,0,0,0-.45-.49h-.06a.51.51,0,0,0-.49.38,58,58,0,0,0-1.75,18.29,52.18,52.18,0,0,0,10.65,28.58A50.64,50.64,0,0,1,273,274.5,12.11,12.11,0,0,1,269.81,289a16,16,0,0,1-2.76,1.4,11,11,0,0,0-2.55,1.35,7.92,7.92,0,0,0-2.23,3.38,23.85,23.85,0,0,1-3.6,7.53A9.61,9.61,0,0,1,251.27,305.63Zm-22.65-7.51a34.47,34.47,0,0,1,10.29,1.57l2.4.8c3.54,1.2,7,2.38,10,2.38a6.72,6.72,0,0,0,5.21-2,19.68,19.68,0,0,0,2.29-4.26.51.51,0,0,0-.06-.48.51.51,0,0,0-.42-.22h0a29.18,29.18,0,0,0-5.61,1,29.15,29.15,0,0,1-6.88,1.11h-.53a13,13,0,0,1-9.63-4.92,20.93,20.93,0,0,1-1.56-2.32,16.25,16.25,0,0,0-1.7-2.44,16.57,16.57,0,0,0-3.38-3.18.54.54,0,0,0-.3-.1h0c-1.5.1-3,.13-4.47.13l-3,0c-1.13,0-2.27,0-3.38.08h0a16.42,16.42,0,0,0-11,4.14,7.25,7.25,0,0,0-.64,9.73,6.46,6.46,0,0,0,4.91,1.77,34.29,34.29,0,0,0,7.74-1.34c.75-.19,1.47-.37,2.18-.53A34.74,34.74,0,0,1,228.62,298.12ZM176.85,272.4a4.43,4.43,0,0,1,2.68.91c2.5,1.88,2,4.91,1.58,7.59-.34,2.06-.65,4,.32,5.1a2.31,2.31,0,0,0,1.81.73c1.71,0,4-1.24,5.61-2.27a51.46,51.46,0,0,1,15.87-6.67.54.54,0,0,0,.38-.37.49.49,0,0,0-.15-.5l-.36-.35a11.86,11.86,0,0,0-1.15-.86c-.35-.24-.54-.37-.74-.48a11.64,11.64,0,0,0-2-.93,35.56,35.56,0,0,0-4.34-.26c-.86,0-1.71,0-2.56.08h-.55a10.25,10.25,0,0,1-7-2.83,1.33,1.33,0,0,1-.23-.3,24.82,24.82,0,0,1-2.86-7.4,14.65,14.65,0,0,0-2.46-3.28,17.05,17.05,0,0,0-1.44-1.27l-.31-.22c-.49-.35-.82-.58-1.17-.79l-.65-.16a31.26,31.26,0,0,0-5-.48c-.34,0-.72,0-1.08,0a14,14,0,0,0-12.44,7.45.53.53,0,0,0,0,.49.54.54,0,0,0,.42.26c2.91.18,4.88,1.23,5.86,3.12,1.36,2.57.2,5.41-.82,7.92-1.15,2.82-1.58,4.25-.53,5.15a1.47,1.47,0,0,0,1,.41l.3,0c1.42-.23,3.36-1.94,4.62-4.06.67-1.14,3.12-4.92,6.45-5.58A4.42,4.42,0,0,1,176.85,272.4Zm82.56-70.94a1.44,1.44,0,0,1,.46.08,1.4,1.4,0,0,1,.91,1.59,61.2,61.2,0,0,0,5,38.19A137.58,137.58,0,0,0,273.21,254l1.55,2.49a.5.5,0,0,0,.43.24h.07a.5.5,0,0,0,.42-.37c.53-2,1.22-4,1.88-5.94,1.78-5.09,3.46-9.91,2.31-14.44a17.43,17.43,0,0,0-2.67-6.93,44.43,44.43,0,0,1-7.46-13.71,22.41,22.41,0,0,1-.16-15.26.52.52,0,0,0-.05-.44,69.64,69.64,0,0,1-7.95-18.14c-.67-2.72-1.1-5.49-1.51-8.17-.81-5.4-1.58-10.44-4.07-14.88a36.86,36.86,0,0,0-18.21-14.12c-3.94-1.76-7.93-3.34-11.78-4.86-10.29-4.07-20.92-8.28-29.7-15.37-5.06-4.08-9.36-9-13.53-13.82a115.13,115.13,0,0,0-12.45-12.91C164.1,92.16,156.51,89,150,89a16.6,16.6,0,0,0-11.36,4.13,1.42,1.42,0,0,1-1.59.19,1.42,1.42,0,0,1-.73-1.43c.7-5.23,6-9,14.23-10a58.49,58.49,0,0,1,7.29-.46c11,0,20.54,3.33,26.75,9.39A.47.47,0,0,0,185,91a.48.48,0,0,0,.2,0,.5.5,0,0,0,.31-.47A24.48,24.48,0,0,0,180.87,76a60,60,0,0,0-14.74-14.18,1.4,1.4,0,0,1,.71-2.56l.66,0c5.43,0,9.66,3.55,13.74,7,3.67,3.08,7.14,6,11.33,6.5h.5a13,13,0,0,0,11.86-8.17.49.49,0,0,0-.05-.48.54.54,0,0,0-.42-.22l-.63,0a21.5,21.5,0,0,1-16.39-7.53,65.81,65.81,0,0,1-6.39-9.44c-1.39-2.34-2.82-4.74-4.43-6.93a19.42,19.42,0,0,0-15-9.18,24.73,24.73,0,0,0-6,1.25,33.29,33.29,0,0,1-5.6,1.29c-.5,0-1,.08-1.51.08s-1,0-1.44-.06h0a.5.5,0,0,0-.42.79,20.55,20.55,0,0,0,6.12,6,67.17,67.17,0,0,0,11.49,2.35c4.5,1.06,9.22,3.93,9.49,7.95a1.43,1.43,0,0,1-.63,1.27,5.09,5.09,0,0,1-6.11-.36,14.83,14.83,0,0,1-1.48-1.16A.72.72,0,0,0,165,50l-.12,0c-.17.06-.36.15-.4.32a5.49,5.49,0,0,1-3.43,4,3.63,3.63,0,0,1-1.47.31,2.92,2.92,0,0,1-.51,0,3.55,3.55,0,0,1-1.94-1.28,5.39,5.39,0,0,1-1.25-2.75.47.47,0,0,0-.25-.37.55.55,0,0,0-.25-.07.71.71,0,0,0-.2,0c-5.69,2.38-11.21,4.89-16.4,7.45A17.3,17.3,0,0,0,131.46,63a19.06,19.06,0,0,0-2.14,6.27c-.68,3.08-1.38,6.25-3.74,8.63a22.71,22.71,0,0,1-7.19,4A36.3,36.3,0,0,0,99.14,115c0,.73,0,1.43,0,2.13l0,1.67a88.51,88.51,0,0,0,8.7,13.06,18.2,18.2,0,0,1,3.37,6.72.51.51,0,0,0,.46.38h0a.52.52,0,0,0,.48-.31,21.62,21.62,0,0,1,1.77-3.48,11.51,11.51,0,0,1,8-5.15c.3,0,.59-.05.88-.05a6.51,6.51,0,0,1,4.71,1.9c1.74,1.71,2.37,4.22,2.92,6.44.73,2.88,1.26,4.66,2.95,5.11a2.16,2.16,0,0,0,.62.09c2.31,0,4.14-3.37,5.63-6.67A26.25,26.25,0,0,1,160.31,121c.53,0,1.09-.07,1.63-.07a18.67,18.67,0,0,1,18.32,15.51,1.23,1.23,0,0,1,0,.27,41.89,41.89,0,0,1-3,14.36,13.76,13.76,0,0,0,1.24,12.39c1.93,2.3,5.21,3.2,8.68,4.15,1.19.33,2.37.66,3.52,1a13.94,13.94,0,0,1,7.74,10.74.5.5,0,0,0,.51.44.47.47,0,0,0,.17,0,64.1,64.1,0,0,1,21.57-3.76l1.25,0a1.4,1.4,0,0,1,0,2.8H220.8a61.65,61.65,0,0,0-23.11,4.49,46.93,46.93,0,0,0-19.86,14.79c-.63.82-1.22,1.7-1.79,2.59a39.76,39.76,0,0,0-3.93,8.62.49.49,0,0,0,.19.57.52.52,0,0,0,.29.09.5.5,0,0,0,.31-.1,22.84,22.84,0,0,1,12.69-4.56,21,21,0,0,1,17.56,9.58,28.41,28.41,0,0,0,3.23,5,12.46,12.46,0,0,0,5.63,2.87,40.24,40.24,0,0,0,10.46,1.4,39.4,39.4,0,0,0,10.2-1.35,13.67,13.67,0,0,1,9.06-.61,1.88,1.88,0,0,1,.3.12,11.74,11.74,0,0,1,3.78,3.26c1.09,1.22,2.78,2.82,4.42,4.36a.79.79,0,0,0,.48.19l.14,0c.19-.08.38-.19.39-.4a61.39,61.39,0,0,1,6.92-27.5A1.42,1.42,0,0,1,259.41,201.46Zm-217.8-6.83a7.78,7.78,0,0,1,2,.26A5.3,5.3,0,0,1,47.25,198a9.2,9.2,0,0,1,.38,4.19,5.33,5.33,0,0,0,.33,3.11,1.73,1.73,0,0,0,1.35.86,2.11,2.11,0,0,0,.36,0c1.64,0,4-1.23,5.94-3.06,0,0,4.82-4.66,6-5.82A25.76,25.76,0,0,0,58,173.8a.52.52,0,0,0-.41-.21.39.39,0,0,0-.18,0,36.34,36.34,0,0,1-18.16,2,89,89,0,0,0-13.15-2.5,6.51,6.51,0,0,0-.75,0,8.72,8.72,0,0,0-8.14,5.71c-.57,3.18,1.46,5.88,3.81,9,2.18,2.88,4.42,5.85,4.73,9.49a19,19,0,0,1-.05,2.74,12.9,12.9,0,0,0,0,2.63c.16,1.15,1,2.38,1.91,2.38a2.67,2.67,0,0,0,1.58-.84,26.79,26.79,0,0,0,2.93-3.38,22.16,22.16,0,0,1,4.15-4.47A9.22,9.22,0,0,1,41.61,194.63ZM24.84,89.11a.52.52,0,0,0-.36.16,1.91,1.91,0,0,0-.5,1c-.39,1.71.65,4.6,2.46,6.87,1,1.2,4,5.4,3.42,9.17a5,5,0,0,1-2.24,3.44,13.62,13.62,0,0,0-1.91,1.11c-.65.62-.12,1.61,1.76,4.33,1.73,2.49,3.88,5.58,1.56,8.22a6.05,6.05,0,0,1-2.5,1.55,4.41,4.41,0,0,0-1.44.77,2.29,2.29,0,0,0,.34,2.85,9.9,9.9,0,0,0,4,2.24,17,17,0,0,1,9.42,6.51,22.48,22.48,0,0,1,1.91,5.06c1,3.31,1.63,5.37,3.66,5.84a3.87,3.87,0,0,0,.56,0,4.62,4.62,0,0,0,2.63-.87.5.5,0,0,0,.21-.5,72.44,72.44,0,0,0-1.77-7.81c-1.22-4.5-2.19-8-.26-13.13,2.42-6.4,4.28-14.42,3.17-16.77a80.8,80.8,0,0,0-5.3-9.56A39.09,39.09,0,0,0,25,89.13Z"/></g></g></svg>