<svg xmlns="http://www.w3.org/2000/svg" width="31.589" height="38.456" viewBox="0 0 31.589 38.456">
  <g id="Group_119" data-name="Group 119" transform="translate(-171.206 -888.163)">
    <path id="Path_352" data-name="Path 352" d="M142.7,335.828a2.352,2.352,0,0,1-1.5-.531c-.4-.335-.923-.745-1.523-1.22-1.142-.9-2.564-2.027-4.026-3.291-5.3-4.577-7.929-8.3-8.05-11.389a15.245,15.245,0,0,1,1.671-8.016,19.977,19.977,0,0,0,1.811-5.684c.119-.752-.008-.924-.009-.926a1.681,1.681,0,0,0-.515-.05,1.771,1.771,0,0,1-1.637-.672,3.387,3.387,0,0,1-.313-1.866,6.854,6.854,0,0,1,.433-2.073,1.953,1.953,0,0,1,1.234-1.33h0a2.424,2.424,0,0,1,.849-.053h9.715a.637.637,0,0,1,.065,0c.1.006.663.012,1.521.012s1.42-.006,1.522-.012a.633.633,0,0,1,.065,0h9.715a2.424,2.424,0,0,1,.844.052l.013,0a1.954,1.954,0,0,1,1.23,1.329,6.856,6.856,0,0,1,.433,2.073,3.387,3.387,0,0,1-.313,1.866,1.772,1.772,0,0,1-1.638.672,1.641,1.641,0,0,0-.517.052h0s-.126.172-.007.924a19.971,19.971,0,0,0,1.812,5.684,15.119,15.119,0,0,1,1.672,6.283c.023.548.023,1.13,0,1.732-.1,2.435-1.634,5.212-4.7,8.489a72.739,72.739,0,0,1-7.306,6.555c-.4.327-.752.609-1.05.856A2.352,2.352,0,0,1,142.7,335.828Z" transform="translate(44.478 590.232)" fill="#294154"/>
    <path id="Path_353" data-name="Path 353" d="M167.966,329.044c-.223-5.165-2.579-6.221-3.476-11.894-.432-2.73,1.628-1.122,2.257-2.1.53-.825.063-4.039-.961-4.287l-.009,0a1.777,1.777,0,0,0-.652-.034h-9.754c-.156.021-3.018.021-3.173,0h-9.755a1.778,1.778,0,0,0-.652.034l-.009,0c-1.024.248-1.491,3.462-.961,4.287.628.978,2.687-.631,2.256,2.1-.987,6.24-3.738,6.894-3.475,13.573.142,3.6,4.1,7.707,7.826,10.924,2.219,1.918,4.353,3.519,5.539,4.5a1.739,1.739,0,0,0,2.174,0c3.177-2.634,12.6-9.686,12.825-15.426C167.988,330.116,167.987,329.559,167.966,329.044Z" transform="translate(33.128 578.881)" fill="#294154"/>
    <path id="Path_263" data-name="Path 263" d="M478.927,444.585a.811.811,0,0,0-.025-.121" transform="translate(-287.844 452.36)" fill="none" stroke="#9b5b58" stroke-linecap="round" stroke-linejoin="round" stroke-width="0.25"/>
    <path id="Path_354" data-name="Path 354" d="M317.04,491.154c0-2.879,0-3.414-.022-4.017-.046-.645-.223-.848-.848-1.026a3.651,3.651,0,0,0-.781-.066c-.2,0-.335-.068-.335-.2s.156-.178.447-.178c1.026,0,2.276.044,2.834.044.8,0,2.364-.044,3.257-.044,2.454,0,3.347.8,3.659,1.072a3.287,3.287,0,0,1,.982,2.276,4.646,4.646,0,0,1-4.93,4.6,5.1,5.1,0,0,1-.58-.022.225.225,0,0,1-.245-.2c0-.156.222-.246.646-.246a2.968,2.968,0,0,0,2.633-3.079,3.534,3.534,0,0,0-1.16-2.811,2.959,2.959,0,0,0-1.964-.713,3.037,3.037,0,0,0-.848.09c-.112.044-.157.155-.157.355v7.52c0,1.741,0,3.235.09,4.061.067.535.178.893.759.982a7.654,7.654,0,0,0,1,.066c.223,0,.313.112.313.2,0,.134-.155.2-.357.2-1.317,0-2.7-.066-3.213-.066-.446,0-1.7.066-2.476.066-.245,0-.38-.066-.38-.2,0-.09.068-.2.313-.2a2.916,2.916,0,0,0,.692-.066c.4-.088.514-.447.58-1,.09-.8.09-2.3.09-4.038Z" transform="translate(-132.855 413.387)" fill="#1c2c3b"/>
    <path id="Path_355" data-name="Path 355" d="M324.455,498.869c0-2.879,0-3.414-.022-4.017-.046-.645-.223-.847-.848-1.026a3.651,3.651,0,0,0-.781-.066c-.2,0-.335-.068-.335-.2s.156-.178.446-.178c1.026,0,2.276.044,2.834.044.8,0,2.364-.044,3.257-.044,2.454,0,3.347.8,3.659,1.072a3.287,3.287,0,0,1,.982,2.276,4.646,4.646,0,0,1-4.93,4.6,5.1,5.1,0,0,1-.58-.022.225.225,0,0,1-.245-.2c0-.156.222-.246.646-.246a2.968,2.968,0,0,0,2.633-3.079,3.534,3.534,0,0,0-1.16-2.811,2.959,2.959,0,0,0-1.964-.713,3.039,3.039,0,0,0-.847.09c-.112.044-.157.155-.157.355v7.52c0,1.741,0,3.235.09,4.061.067.535.178.893.759.982a7.656,7.656,0,0,0,1,.066c.223,0,.313.112.313.2,0,.134-.155.2-.357.2-1.317,0-2.7-.066-3.213-.066-.446,0-1.7.066-2.476.066-.245,0-.38-.066-.38-.2,0-.09.068-.2.313-.2a2.915,2.915,0,0,0,.692-.066c.4-.088.514-.447.58-1,.09-.8.09-2.3.09-4.039Z" transform="translate(-139.869 406.089)" fill="#231f20"/>
    <path id="Path_356" data-name="Path 356" d="M317.04,491.154c0-2.879,0-3.414-.022-4.017-.046-.645-.223-.848-.848-1.026a3.651,3.651,0,0,0-.781-.066c-.2,0-.335-.068-.335-.2s.156-.178.447-.178c1.026,0,2.276.044,2.834.044.8,0,2.364-.044,3.257-.044,2.454,0,3.347.8,3.659,1.072a3.287,3.287,0,0,1,.982,2.276,4.646,4.646,0,0,1-4.93,4.6,5.1,5.1,0,0,1-.58-.022.225.225,0,0,1-.245-.2c0-.156.222-.246.646-.246a2.968,2.968,0,0,0,2.633-3.079,3.534,3.534,0,0,0-1.16-2.811,2.959,2.959,0,0,0-1.964-.713,3.037,3.037,0,0,0-.848.09c-.112.044-.157.155-.157.355v7.52c0,1.741,0,3.235.09,4.061.067.535.178.893.759.982a7.654,7.654,0,0,0,1,.066c.223,0,.313.112.313.2,0,.134-.155.2-.357.2-1.317,0-2.7-.066-3.213-.066-.446,0-1.7.066-2.476.066-.245,0-.38-.066-.38-.2,0-.09.068-.2.313-.2a2.916,2.916,0,0,0,.692-.066c.4-.088.514-.447.58-1,.09-.8.09-2.3.09-4.038Z" transform="translate(-132.855 413.387)" fill="#9b5b58"/>
    <path id="Path_357" data-name="Path 357" d="M127.825,322.753a3.327,3.327,0,0,1-2.1-.737c-.392-.32-.9-.716-1.487-1.174l-.018-.014a75.145,75.145,0,0,1-7.522-6.476c-3.206-3.286-4.814-6.129-4.916-8.693a15.815,15.815,0,0,1,1.756-8.327,18.973,18.973,0,0,0,1.6-4.58.649.649,0,0,0-.479-.758,2.248,2.248,0,0,1-1.4-.985,4.12,4.12,0,0,1-.468-2.373,7.864,7.864,0,0,1,.5-2.372,2.907,2.907,0,0,1,1.891-1.872,3.451,3.451,0,0,1,.8-.095c.1,0,.2,0,.3.013l.056,0h9.637c.039,0,.079,0,.118,0h.028c.129,0,.619.01,1.441.01.9,0,1.345-.007,1.439-.009l.029,0c.04,0,.079,0,.118,0h9.637l.056,0c.1-.008.2-.013.3-.013a3.419,3.419,0,0,1,.792.093l.01,0a2.906,2.906,0,0,1,1.89,1.872,7.86,7.86,0,0,1,.5,2.372,4.12,4.12,0,0,1-.468,2.373,2.247,2.247,0,0,1-1.4.985.649.649,0,0,0-.479.758,18.974,18.974,0,0,0,1.6,4.58,15.816,15.816,0,0,1,1.756,8.327,10.065,10.065,0,0,1-1.613,4.723,25.509,25.509,0,0,1-3.348,4.25,73.2,73.2,0,0,1-7.4,6.546l-.033.026c-.388.31-.724.578-1.008.81A3.326,3.326,0,0,1,127.825,322.753Zm-11.846-37.32a2.287,2.287,0,0,0-.53.062,1.766,1.766,0,0,0-1.108,1.2c-.409,1.006-.659,2.9-.138,3.7a1.59,1.59,0,0,0,1.483.576l.155,0a.624.624,0,0,1,.606.628,3.827,3.827,0,0,1-.053.558,19.908,19.908,0,0,1-1.827,5.653,14.672,14.672,0,0,0-1.653,7.808c.091,2.271,1.594,4.87,4.595,7.946a74.166,74.166,0,0,0,7.407,6.372l.014.011c.594.463,1.109.864,1.512,1.194a2.231,2.231,0,0,0,2.768,0c.291-.238.629-.508,1.021-.821l.03-.024a72.246,72.246,0,0,0,7.286-6.441,24.39,24.39,0,0,0,3.2-4.056,8.965,8.965,0,0,0,1.451-4.181,14.672,14.672,0,0,0-1.653-7.808,19.913,19.913,0,0,1-1.827-5.653,3.828,3.828,0,0,1-.053-.558.625.625,0,0,1,.606-.628l.156,0a1.589,1.589,0,0,0,1.482-.576c.521-.8.271-2.691-.138-3.7a1.763,1.763,0,0,0-1.1-1.2l-.01,0a2.274,2.274,0,0,0-.528-.062,2.31,2.31,0,0,0-.233.012.631.631,0,0,1-.065,0h-9.727l-.039,0c-.133.006-.69.011-1.512.011s-1.383-.006-1.515-.012l-.038,0h-9.725c-.021,0-.043,0-.064,0A2.3,2.3,0,0,0,115.979,285.433Z" transform="translate(59.445 603.866)" fill="#9b5b58"/>
    <path id="Path_358" data-name="Path 358" d="M313.6,694.757a.782.782,0,0,1-.5-.17c-.418-.346-.942-.761-1.549-1.241-1.014-.8-2.254-1.782-3.537-2.873a6.268,6.268,0,0,1,1.767-2.746,9.4,9.4,0,0,1,5.52-2.052c.178-.016.363-.03.542-.044a11.081,11.081,0,0,0,2.215-.323,9.28,9.28,0,0,0,2.7-1.37c.833-.573,1.629-1.2,2.4-1.805.848-.668,1.724-1.358,2.624-1.951q.413-.273.822-.507,0,.079-.006.157c-.08,2.025-1.539,4.561-4.338,7.536a71.8,71.8,0,0,1-7.092,6.351l-.019.016c-.4.324-.745.6-1.045.852A.782.782,0,0,1,313.6,694.757Z" transform="translate(-126.193 229.868)" fill="#9b5b58"/>
    <g id="Group_69" data-name="Group 69" transform="translate(178.279 890.967)">
      <path id="Path_359" data-name="Path 359" d="M430.694,336.144a.105.105,0,0,0-.116.091l-.075.889a.1.1,0,0,0,.1.105h.008a.1.1,0,0,0,.108-.091l.075-.888a.093.093,0,0,0-.023-.069A.111.111,0,0,0,430.694,336.144Zm-.087,1.032Z" transform="translate(-420.34 -336.143)" fill="#9b5b58"/>
      <path id="Path_360" data-name="Path 360" d="M423.021,419.224a.1.1,0,0,0-.116.086l-.112,1.319a.1.1,0,0,0,.1.1h.009a.1.1,0,0,0,.108-.092l.111-1.311a.093.093,0,0,0-.023-.069A.112.112,0,0,0,423.021,419.224Zm-.123,1.455Z" transform="translate(-413.048 -414.731)" fill="#9b5b58"/>
      <path id="Path_361" data-name="Path 361" d="M426.522,362.671a.1.1,0,0,0-.116.086l-.186,2.192a.105.105,0,0,0,.1.105h.009a.1.1,0,0,0,.108-.091l.185-2.185a.093.093,0,0,0-.023-.069A.111.111,0,0,0,426.522,362.671Zm-.2,2.329Z" transform="translate(-416.29 -361.236)" fill="#9b5b58"/>
      <path id="Path_362" data-name="Path 362" d="M519.227,454.411l-.409.288a.1.1,0,0,0-.045.068.092.092,0,0,0,.024.075l.007.007a.113.113,0,0,0,.071.029h.006a.121.121,0,0,0,.068-.021l.411-.289a.1.1,0,0,0,.043-.071.094.094,0,0,0-.028-.075A.116.116,0,0,0,519.227,454.411Z" transform="translate(-503.837 -447.995)" fill="#9b5b58"/>
      <path id="Path_363" data-name="Path 363" d="M535.042,417.433a.116.116,0,0,0-.147-.01l-2.457,1.763a.1.1,0,0,0-.045.068.091.091,0,0,0,.023.074l.007.007a.113.113,0,0,0,.072.029h.006a.122.122,0,0,0,.068-.021l2.459-1.765a.1.1,0,0,0,.043-.071A.094.094,0,0,0,535.042,417.433Z" transform="translate(-516.72 -413.007)" fill="#9b5b58"/>
      <path id="Path_364" data-name="Path 364" d="M350.1,373.045a.11.11,0,0,0-.131-.064.106.106,0,0,0-.068.052.093.093,0,0,0,0,.079l.953,2.358a.1.1,0,0,0,.1.066h0a.159.159,0,0,0,.034,0,.1.1,0,0,0,.067-.053.091.091,0,0,0,0-.075Z" transform="translate(-344.089 -370.986)" fill="#9b5b58"/>
      <path id="Path_365" data-name="Path 365" d="M374.463,433.376a.112.112,0,0,0-.134-.057.105.105,0,0,0-.064.052.092.092,0,0,0,0,.074l.265.652a.106.106,0,0,0,.093.064h.005a.157.157,0,0,0,.034,0,.1.1,0,0,0,.067-.053.091.091,0,0,0,0-.075Zm.16.732Z" transform="translate(-367.135 -428.06)" fill="#9b5b58"/>
      <path id="Path_366" data-name="Path 366" d="M336.073,341.606h0a.161.161,0,0,0,.034,0,.1.1,0,0,0,.067-.053.091.091,0,0,0,0-.075l-.456-1.127a.112.112,0,0,0-.134-.057.105.105,0,0,0-.064.052.092.092,0,0,0,0,.074l.455,1.123a.1.1,0,0,0,.1.066Z" transform="translate(-330.49 -340.061)" fill="#9b5b58"/>
      <path id="Path_367" data-name="Path 367" d="M279.033,404.988h0a.112.112,0,0,0,.072.03h.006a.121.121,0,0,0,.067-.02.1.1,0,0,0,.042-.07.1.1,0,0,0-.03-.076l-.963-.916a.117.117,0,0,0-.145-.006.1.1,0,0,0-.039.07.1.1,0,0,0,.029.074Z" transform="translate(-276.126 -400.243)" fill="#9b5b58"/>
      <path id="Path_368" data-name="Path 368" d="M307.847,432.112a.113.113,0,0,0-.142-.012.1.1,0,0,0-.045.068.091.091,0,0,0,.023.074l1.144,1.091a.113.113,0,0,0,.072.03h.006a.121.121,0,0,0,.067-.02.1.1,0,0,0,.042-.07.1.1,0,0,0-.03-.076Z" transform="translate(-304.139 -426.892)" fill="#9b5b58"/>
      <path id="Path_369" data-name="Path 369" d="M258.339,385.248h0a.113.113,0,0,0,.072.03h.006a.121.121,0,0,0,.067-.02.1.1,0,0,0,.042-.07.1.1,0,0,0-.03-.076l-.707-.673a.115.115,0,0,0-.145-.006.1.1,0,0,0-.039.07.1.1,0,0,0,.029.074Z" transform="translate(-256.793 -381.8)" fill="#9b5b58"/>
      <path id="Path_370" data-name="Path 370" d="M462.287,450.512a.115.115,0,0,0-.143.043l-.2.344a.092.092,0,0,0-.009.076.1.1,0,0,0,.061.062.136.136,0,0,0,.036.007h.007a.108.108,0,0,0,.094-.051l.2-.342a.092.092,0,0,0,.011-.076A.1.1,0,0,0,462.287,450.512Z" transform="translate(-450.067 -444.319)" fill="#9b5b58"/>
      <path id="Path_371" data-name="Path 371" d="M472.52,417.165a.114.114,0,0,0-.136.042l-.769,1.275a.092.092,0,0,0-.009.076.1.1,0,0,0,.061.062.139.139,0,0,0,.035.008h.01a.1.1,0,0,0,.092-.051l.77-1.276a.092.092,0,0,0,.006-.076A.1.1,0,0,0,472.52,417.165Z" transform="translate(-459.218 -412.776)" fill="#9b5b58"/>
      <path id="Path_372" data-name="Path 372" d="M495.344,392.34a.136.136,0,0,0,.035.008h.01a.1.1,0,0,0,.092-.051l.32-.53a.093.093,0,0,0,.011-.076.1.1,0,0,0-.057-.062.115.115,0,0,0-.142.042l-.321.531a.092.092,0,0,0-.008.076A.1.1,0,0,0,495.344,392.34Z" transform="translate(-481.614 -388.619)" fill="#9b5b58"/>
      <path id="Path_373" data-name="Path 373" d="M507.167,372.737a.165.165,0,0,0,.031.007h.011a.1.1,0,0,0,.092-.051l.322-.532a.092.092,0,0,0,.006-.076.1.1,0,0,0-.061-.06.114.114,0,0,0-.136.042l-.321.531a.092.092,0,0,0-.009.076A.1.1,0,0,0,507.167,372.737Z" transform="translate(-492.795 -370.078)" fill="#9b5b58"/>
      <path id="Path_374" data-name="Path 374" d="M471.969,360h.005l.016,0H472a.108.108,0,0,0,.1-.069l.1-.287a.092.092,0,0,0-.008-.074.11.11,0,0,0-.073-.051.116.116,0,0,0-.127.068l-.1.289a.093.093,0,0,0,.01.072A.109.109,0,0,0,471.969,360Z" transform="translate(-459.488 -358.255)" fill="#9b5b58"/>
      <path id="Path_375" data-name="Path 375" d="M464.646,376.518h.007l.017,0h.007a.107.107,0,0,0,.1-.069l.2-.593a.093.093,0,0,0-.008-.074.11.11,0,0,0-.072-.051.114.114,0,0,0-.128.068l-.2.592a.091.091,0,0,0,.008.074A.106.106,0,0,0,464.646,376.518Z" transform="translate(-452.562 -373.593)" fill="#9b5b58"/>
      <path id="Path_376" data-name="Path 376" d="M450.583,404.244a.109.109,0,0,0-.072-.048.111.111,0,0,0-.126.066l-.477,1.422a.091.091,0,0,0,.009.073.107.107,0,0,0,.069.049h.005l.015,0h.007a.107.107,0,0,0,.1-.069l.477-1.423A.092.092,0,0,0,450.583,404.244Z" transform="translate(-438.693 -400.514)" fill="#9b5b58"/>
      <path id="Path_377" data-name="Path 377" d="M442.894,441.378a.115.115,0,0,0-.129.068l-.2.595a.092.092,0,0,0,.01.072.108.108,0,0,0,.068.049h.006l.015,0h.007a.107.107,0,0,0,.1-.069l.2-.593a.093.093,0,0,0-.008-.074A.11.11,0,0,0,442.894,441.378Z" transform="translate(-431.748 -435.685)" fill="#9b5b58"/>
      <path id="Path_378" data-name="Path 378" d="M271.545,441.014l-1.667-1.086a.117.117,0,0,0-.142.015.093.093,0,0,0-.027.075.1.1,0,0,0,.044.071l1.667,1.086h0a.119.119,0,0,0,.054.018h.009a.11.11,0,0,0,.08-.033.093.093,0,0,0,.027-.075A.1.1,0,0,0,271.545,441.014Z" transform="translate(-268.24 -434.299)" fill="#9b5b58"/>
      <path id="Path_379" data-name="Path 379" d="M243.872,423l-1.128-.733a.115.115,0,0,0-.144.015.093.093,0,0,0-.026.075.1.1,0,0,0,.044.07l1.129.733h0a.12.12,0,0,0,.053.018h.009a.109.109,0,0,0,.08-.033.093.093,0,0,0,.027-.075A.1.1,0,0,0,243.872,423Z" transform="translate(-242.573 -417.593)" fill="#9b5b58"/>
      <path id="Path_380" data-name="Path 380" d="M344.663,430.462a.114.114,0,0,0-.14-.036.1.1,0,0,0-.056.063.092.092,0,0,0,.013.076l.364.537h0a.106.106,0,0,0,.083.045h.009a.105.105,0,0,0,.05-.013.1.1,0,0,0,.053-.062.092.092,0,0,0-.013-.077Z" transform="translate(-338.954 -425.318)" fill="#9b5b58"/>
      <path id="Path_381" data-name="Path 381" d="M317.787,390.885a.114.114,0,0,0-.14-.036.1.1,0,0,0-.056.063.093.093,0,0,0,.013.076l.872,1.286h0a.107.107,0,0,0,.083.045h.009a.105.105,0,0,0,.05-.013.1.1,0,0,0,.053-.062.093.093,0,0,0-.013-.077Z" transform="translate(-313.531 -387.881)" fill="#9b5b58"/>
      <path id="Path_382" data-name="Path 382" d="M307.82,376.562h0a.107.107,0,0,0,.083.045h.01a.1.1,0,0,0,.047-.011.1.1,0,0,0,.056-.063.093.093,0,0,0-.013-.077l-.175-.259a.114.114,0,0,0-.14-.036.1.1,0,0,0-.056.063.092.092,0,0,0,.013.076Z" transform="translate(-304.111 -373.988)" fill="#9b5b58"/>
      <path id="Path_383" data-name="Path 383" d="M395.542,397.886a.106.106,0,0,0-.118-.085.11.11,0,0,0-.076.04.092.092,0,0,0-.02.063h0l.427,2.951a.1.1,0,0,0,.1.085h.018a.11.11,0,0,0,.076-.04.093.093,0,0,0,.02-.071Z" transform="translate(-387.068 -394.467)" fill="#9b5b58"/>
      <path id="Path_384" data-name="Path 384" d="M389.339,356.172h0a.11.11,0,0,0,.076-.04.093.093,0,0,0,.02-.071l-.257-1.767a.107.107,0,0,0-.117-.085.11.11,0,0,0-.076.04.092.092,0,0,0-.02.064l.257,1.774a.1.1,0,0,0,.1.084Z" transform="translate(-381.051 -353.232)" fill="#9b5b58"/>
      <path id="Path_385" data-name="Path 385" d="M496.143,427.937a.1.1,0,0,0-.043-.069.115.115,0,0,0-.144.015l-1.165,1.225a.092.092,0,0,0-.03.073.1.1,0,0,0,.04.071l.005,0a.122.122,0,0,0,.056.018h.007a.115.115,0,0,0,.082-.034l1.169-1.228A.094.094,0,0,0,496.143,427.937Z" transform="translate(-481.124 -422.89)" fill="#9b5b58"/>
      <path id="Path_386" data-name="Path 386" d="M528.639,398.559a.1.1,0,0,0-.043-.069.115.115,0,0,0-.144.015l-.906.953a.094.094,0,0,0-.025.074.1.1,0,0,0,.043.069.113.113,0,0,0,.055.019h.008a.113.113,0,0,0,.082-.034l.906-.953A.094.094,0,0,0,528.639,398.559Z" transform="translate(-512.112 -395.1)" fill="#9b5b58"/>
      <path id="Path_387" data-name="Path 387" d="M551.3,379.035a.1.1,0,0,0,.059.021h.007a.113.113,0,0,0,.081-.034l.665-.7a.093.093,0,0,0,.026-.075.1.1,0,0,0-.044-.07.115.115,0,0,0-.144.015l-.667.7a.094.094,0,0,0-.024.073A.1.1,0,0,0,551.3,379.035Z" transform="translate(-534.571 -375.887)" fill="#9b5b58"/>
    </g>
  </g>
</svg>
