<svg xmlns="http://www.w3.org/2000/svg" xmlns:xlink="http://www.w3.org/1999/xlink" viewBox="0 0 584.18 711.17"><defs><style>.cls-1{fill:url(#New_Gradient_Swatch_1);}.cls-2{fill:none;stroke:#9b5b58;stroke-linecap:round;stroke-linejoin:round;stroke-width:0.25px;}.cls-3{fill:#294154;}</style><linearGradient id="New_Gradient_Swatch_1" x1="15.82" y1="357.62" x2="565.02" y2="357.62" gradientUnits="userSpaceOnUse"><stop offset="0" stop-color="#a67f3b"/><stop offset="0.07" stop-color="#b9974d"/><stop offset="0.19" stop-color="#d4b867"/><stop offset="0.31" stop-color="#e7d079"/><stop offset="0.41" stop-color="#f3df84"/><stop offset="0.5" stop-color="#f7e488"/><stop offset="0.58" stop-color="#f2de83"/><stop offset="0.7" stop-color="#e4cc76"/><stop offset="0.83" stop-color="#ccae5f"/><stop offset="0.98" stop-color="#ab8640"/><stop offset="1" stop-color="#a67f3b"/></linearGradient></defs><g id="Layer_2" data-name="Layer 2"><g id="Layer_1-2" data-name="Layer 1"><path class="cls-1" d="M295.42,700.82A43.52,43.52,0,0,1,267.66,691c-7.48-6.2-17.07-13.78-28.17-22.56C218.37,651.74,192.08,631,165,607.58,67.1,522.94,18.41,454.05,16.16,397c-2.9-73.52,13.52-109.81,30.91-148.24,12.75-28.2,25.94-57.36,33.5-105.12,2.19-13.91-.14-17.09-.17-17.12-1.16-.83-6.6-.89-9.52-.92-8.93-.09-22.44-.23-30.28-12.43-5.87-9.14-6.39-23.81-5.79-34.51.76-13.53,3.68-27.5,8-38.33C48.43,26.3,56.11,18,65.64,15.71l.08,0a44.68,44.68,0,0,1,15.7-1l179.67,0q.6,0,1.2.06c1.89.11,12.26.23,28.13.23s26.26-.12,28.15-.23a11.9,11.9,0,0,1,1.2-.06l179.65,0a44.69,44.69,0,0,1,15.62,1l.25.06C524.74,18,532.42,26.3,538,40.31c4.34,10.82,7.26,24.79,8,38.33.6,10.69.08,25.36-5.8,34.5-7.84,12.2-21.35,12.34-30.28,12.43-2.93,0-8.37.09-9.56,1h0s-2.33,3.19-.13,17.09c7.55,47.76,20.75,76.92,33.5,105.12,14.73,32.55,28.64,63.3,30.93,116.2.42,10.13.41,20.9,0,32-1.77,45-30.23,96.38-87,157C432,602.72,378.21,646.32,342.6,675.17c-7.47,6.05-13.91,11.27-19.41,15.83A43.53,43.53,0,0,1,295.42,700.82Z"/><path id="Path_263" data-name="Path 263" class="cls-2" d="M367.61,162.4a15.51,15.51,0,0,0-.47-2.23"/><path id="Path_270" data-name="Path 270" class="cls-2" d="M189.39,496.63a6.54,6.54,0,0,1-.28-1.37"/><path class="cls-3" d="M297.09,711.17a61.54,61.54,0,0,1-38.88-13.63c-7.24-5.92-16.63-13.24-27.5-21.71l-.34-.26c-36.94-28.79-92.84-72.34-139.11-119.75C32,495.06,2.24,442.47.34,395.05c-3.06-76.58,15-115.93,32.47-154C44.22,216.2,55,192.72,62.35,156.36a12,12,0,0,0-8.86-14c-11.27-2.82-19.75-8.77-25.91-18.21-8.41-12.9-9.35-31-8.65-43.89,1-17.77,5.45-34.31,9.33-43.86,5.4-13.28,15.84-30.06,35-34.62A63.78,63.78,0,0,1,78,0c1.81,0,3.65.08,5.46.24.35,0,.69,0,1,0l178.22,0c.72,0,1.45,0,2.18.08l.51,0c2.38.07,11.44.17,26.65.17C308.78.54,317,.42,318.7.37l.55,0c.74-.05,1.45-.08,2.18-.08l178.22,0c.35,0,.7,0,1,0C502.5.08,504.34,0,506.15,0A63.17,63.17,0,0,1,520.8,1.72l.18,0c19.11,4.56,29.55,21.35,34.94,34.62,3.88,9.55,8.37,26.09,9.33,43.86.7,12.9-.23,31-8.65,43.89-6.16,9.44-14.64,15.4-25.91,18.21a12,12,0,0,0-8.85,14c7.34,36.36,18.12,59.84,29.53,84.7,17.47,38.05,35.53,77.4,32.47,154-1.08,27-11.12,56.39-29.83,87.35-14.84,24.54-35.67,51-61.92,78.6-46.5,48.94-100.88,92.34-136.87,121.07l-.6.48c-7.19,5.73-13.39,10.69-18.65,15A61.52,61.52,0,0,1,297.09,711.17ZM78,21a42.76,42.76,0,0,0-9.81,1.15c-8.46,2-15.35,9.47-20.49,22.14-7.56,18.59-12.18,53.6-2.55,68.36C52,123.09,63.41,123.21,72.59,123.3c.79,0,1.82,0,2.87,0A11.54,11.54,0,0,1,86.67,135a70.58,70.58,0,0,1-1,10.33c-7.63,47.57-21.53,77.84-33.78,104.54-17.2,37.46-33.44,72.84-30.57,144.39,1.67,42,29.47,90.06,85,146.94,45.27,46.4,100.46,89.4,137,117.85l.25.2c11,8.56,20.51,16,28,22.07a41.24,41.24,0,0,0,51.18,0c5.38-4.39,11.64-9.39,18.89-15.18l.55-.44c35.55-28.37,89.24-71.23,134.75-119.11C502.08,520,522,494.78,536,471.54c16.87-27.9,25.89-53.91,26.83-77.33,2.86-71.56-13.38-106.93-30.57-144.39-12.26-26.7-26.16-57-33.79-104.54a70.58,70.58,0,0,1-1-10.33,11.56,11.56,0,0,1,11.21-11.6c1,0,2.1,0,2.89,0,9.18-.09,20.59-.21,27.4-10.65,9.64-14.76,5-49.77-2.54-68.36-5.15-12.67-12-20.11-20.37-22.1l-.18-.05A42,42,0,0,0,506.16,21a41.14,41.14,0,0,0-4.3.22c-.41,0-.8.06-1.2.06l-179.09,0q-.39,0-.78,0l-.73,0c-2.46.11-12.76.21-28,.21s-25.57-.1-28-.21l-.7,0c-.25,0-.51,0-.77,0l-179.08,0a11.46,11.46,0,0,1-1.17-.06A42,42,0,0,0,78,21Z"/><path class="cls-3" d="M299.56,674.28a14.43,14.43,0,0,1-9.25-3.14c-7.73-6.41-17.42-14.07-28.65-22.95-18.74-14.82-41.68-33-65.41-53.13a116,116,0,0,1,32.67-50.79c23.79-21.2,58.13-34,102.08-37.95,3.29-.3,6.71-.56,10-.81,13.33-1,27.1-2.05,41-6,19.53-5.52,36.2-15.9,49.92-25.33C447.3,463.63,462,452,476.23,440.83c15.68-12.35,31.89-25.12,48.52-36.08q7.65-5,15.2-9.37c0,1-.06,1.94-.1,2.91-1.48,37.45-28.46,84.34-80.22,139.36-44.32,47.12-96.57,89.44-131.14,117.45l-.36.28c-7.39,6-13.77,11.16-19.31,15.76A14.48,14.48,0,0,1,299.56,674.28Z"/><path class="cls-3" d="M235.81,245.28c0-67.28,0-79.78-.52-93.87-1.07-15.09-5.22-19.81-19.82-24-3.66-1-11.49-1.55-18.26-1.55-4.69,0-7.82-1.58-7.82-4.72S193,117,199.83,117c24,0,53.18,1,66.22,1,18.76,0,55.26-1,76.14-1,57.35,0,78.21,18.78,85.52,25,9.9,9.37,22.94,29.18,22.94,53.19,0,62.56-50,107.41-115.23,107.41-2.1,0-11.49,0-13.56-.52-2.61,0-5.73-1.58-5.73-4.68,0-3.65,5.18-5.76,15.1-5.76,25.56,0,61.55-26.59,61.55-72,0-14.61-1.59-43.78-27.11-65.69-16.69-14.57-35.47-16.67-45.91-16.67-6.79,0-15.66.51-19.81,2.1-2.61,1-3.67,3.61-3.67,8.3V323.52c0,40.68,0,75.61,2.11,94.91,1.56,12.5,4.17,20.87,17.74,22.94a179.06,179.06,0,0,0,23.44,1.55c5.22,0,7.3,2.61,7.3,4.72,0,3.13-3.63,4.68-8.33,4.68-30.78,0-63.1-1.55-75.1-1.55-10.43,0-39.64,1.55-57.88,1.55-5.73,0-8.89-1.55-8.89-4.68,0-2.11,1.59-4.72,7.31-4.72a68.23,68.23,0,0,0,16.17-1.55c9.41-2.07,12-10.44,13.56-23.46,2.1-18.78,2.1-53.71,2.1-94.39Z"/></g></g></svg>