<svg xmlns="http://www.w3.org/2000/svg" xmlns:xlink="http://www.w3.org/1999/xlink" viewBox="0 0 329.22 334.87"><defs><style>.cls-1{fill:url(#New_Gradient_Swatch_1);}.cls-2{fill:#294154;}.cls-3{fill:#bfa5a3;}</style><linearGradient id="New_Gradient_Swatch_1" y1="167.44" x2="329.22" y2="167.44" gradientUnits="userSpaceOnUse"><stop offset="0" stop-color="#a67f3b"/><stop offset="0.07" stop-color="#b9974d"/><stop offset="0.19" stop-color="#d4b867"/><stop offset="0.31" stop-color="#e7d079"/><stop offset="0.41" stop-color="#f3df84"/><stop offset="0.5" stop-color="#f7e488"/><stop offset="0.58" stop-color="#f2de83"/><stop offset="0.7" stop-color="#e4cc76"/><stop offset="0.83" stop-color="#ccae5f"/><stop offset="0.98" stop-color="#ab8640"/><stop offset="1" stop-color="#a67f3b"/></linearGradient></defs><g id="Layer_2" data-name="Layer 2"><g id="Layer_1-2" data-name="Layer 1"><path class="cls-1" d="M121.68,334.87a17.35,17.35,0,0,1-8.59-2.27c-5.36-3-10.38-9.79-8.4-19.62a91.29,91.29,0,0,1,6.82-20.21,41.13,41.13,0,0,1,20.18-21.59,14,14,0,0,1,1.31-.57,45.61,45.61,0,0,1,7.29-2,0,0,0,0,0,0,0c.69-2.29,1.35-4.69,2-7.15a16.53,16.53,0,0,1,1.13-4.58c.49-2.1,1-4.24,1.39-6.39a16.24,16.24,0,0,1-5.62-8.93A70.74,70.74,0,0,1,140.73,203c.17-.51.36-1,.58-1.51.58-1.3,1.13-2.61,1.67-3.93-.39,0-.78,0-1.18,0a16.22,16.22,0,0,1-2.9-.27,245.29,245.29,0,0,1-25.8,77.57,16.33,16.33,0,0,1-14.44,8.67h-.38a18.52,18.52,0,0,1-3.06-.28,17.42,17.42,0,0,1-4.66-1.59q1,4.71,2.25,9.62a16.3,16.3,0,0,1-1,10.71l-.21.46a15.79,15.79,0,0,1-4,5.25,17,17,0,0,1-6.51,3.41A16.3,16.3,0,0,1,65,306.39,113.64,113.64,0,0,1,54.2,292.15,16.28,16.28,0,0,1,45,298.36a16.86,16.86,0,0,1-4,.5,16.31,16.31,0,0,1-14.47-8.74,224.71,224.71,0,0,1-22-62.64A40.15,40.15,0,0,1,.68,213.86c0-.26-.05-.52-.08-.78a214,214,0,0,1,8.82-79,132.29,132.29,0,0,1,5.22-14.52,8.32,8.32,0,0,1,.37-1,82.68,82.68,0,0,1,9.78-16.79,56.51,56.51,0,0,1,35-22.25l.59-.1a53.44,53.44,0,0,1,8.36-.62,112,112,0,0,1,18.44,2A83.44,83.44,0,0,0,99.7,82.36a11.29,11.29,0,0,0,5.39-1,12.72,12.72,0,0,0,5-8.1l-3.11,0c-2.76,0-5.57-.1-8.35-.3-7-.49-12.68-2.76-16.76-6.77A16.42,16.42,0,0,1,76.2,57a17.35,17.35,0,0,1,2.71-13.07,15.85,15.85,0,0,1-.21-2.58V41A35.41,35.41,0,0,1,97,10.85a32.84,32.84,0,0,1,15.68-4c.94,0,1.89,0,2.83.12A26.57,26.57,0,0,1,133.17,0c.73,0,1.46,0,2.17.1a14.31,14.31,0,0,1,1.74.26A36.51,36.51,0,0,1,162.2,19.21c5.8,9.44,9.2,19.92,12.21,29.17a169.06,169.06,0,0,0,5.79,16.06,16,16,0,0,1,.6,1.58,9,9,0,0,0,3.67,4.8,5,5,0,0,0,3-2.78c.18-.38.37-.76.58-1.14a66.56,66.56,0,0,0,4.25-10.56,115.57,115.57,0,0,1,4.84-12.48,66.48,66.48,0,0,1,27.24-29.2,43.5,43.5,0,0,1,37.63-4.11,17,17,0,0,1,2.46,1.11A52,52,0,0,1,284.62,31.9a306.34,306.34,0,0,1,33.94,68.39c.08.23.15.46.22.69,1,3,1.93,6,2.77,9a180.12,180.12,0,0,1,3.76,89.34,16.4,16.4,0,0,1-16,13H309a119.66,119.66,0,0,1-11.15,17.67,60.83,60.83,0,0,1-28.63,22A16.35,16.35,0,0,1,247,246.13a16.69,16.69,0,0,1-5.31-3,16.28,16.28,0,0,1-5.78-12.07,22.46,22.46,0,0,1-3.41,5.83,19.58,19.58,0,0,1-6.26,5,22.39,22.39,0,0,1,4.39,10.84,19.69,19.69,0,0,1-4.23,14.73,18.58,18.58,0,0,1-2.31,2.3,48.5,48.5,0,0,1,.38,5.78c0,10.08-6.08,16-11.76,18.1a18.61,18.61,0,0,1-6.45,1.17l-.82,0a28.35,28.35,0,0,1-17.24,15.85,17.75,17.75,0,0,1-5.9,1,18.65,18.65,0,0,1-4.33-.52,18,18,0,0,1-1.89-.59,17.63,17.63,0,0,1-5-2.92c-.5.09-1,.15-1.52.2-.06.14-.6,1.58-.6,1.58a64.22,64.22,0,0,1-6.24,12.15c-5.2,7.79-12.07,8.95-15.71,8.95-.62,0-1.53-.06-2.14-.13a17.33,17.33,0,0,1-8.24-3.18l-1,1.17A18.48,18.48,0,0,1,121.68,334.87Z"/><path class="cls-2" d="M121.68,327a9.48,9.48,0,0,1-4.71-1.25c-1.45-.82-6-4-4.58-11.25a82.5,82.5,0,0,1,6.21-18.39l.13-.3a33.41,33.41,0,0,1,16.41-17.61c.2-.1.42-.19.64-.28a38.81,38.81,0,0,1,6.17-1.66l1.63-.34a5.24,5.24,0,0,0,3.81-3.48c.1-.31.19-.62.26-.94a6.33,6.33,0,0,1,.17-.69c.73-2.46,1.44-5,2.12-7.66a5,5,0,0,0,.14-.86,8.84,8.84,0,0,1,.65-2.62,5.88,5.88,0,0,0,.27-.84c.66-2.79,1.27-5.67,1.83-8.55a5.22,5.22,0,0,0-2.33-5.39,8.41,8.41,0,0,1-3.68-5.18,62.89,62.89,0,0,1,1.37-34.32,7.21,7.21,0,0,1,.3-.77c1.3-2.94,2.52-6,3.61-9a5.23,5.23,0,0,0-7-6.57,8.38,8.38,0,0,1-3.32.67,9.36,9.36,0,0,1-2.78-.46l-.35-.13a5.33,5.33,0,0,0-1.92-.37,5.18,5.18,0,0,0-2.62.71,5.25,5.25,0,0,0-2.56,3.78,240.72,240.72,0,0,1-25.4,77.93,8.5,8.5,0,0,1-7.51,4.51h-.38a9.76,9.76,0,0,1-1.62-.15,9.55,9.55,0,0,1-5.88-3.7,5.22,5.22,0,0,0-4.22-2.14,5.17,5.17,0,0,0-2.06.42,5.23,5.23,0,0,0-3.09,5.73c1,5.52,2.27,11.36,3.79,17.37a7.86,7.86,0,0,1,.21,1.16,8.54,8.54,0,0,1-.71,4.4s-.13.26-.14.29a8.07,8.07,0,0,1-2,2.68,7.53,7.53,0,0,1-2,1.26,8,8,0,0,1-1.41.52,8.39,8.39,0,0,1-2.17.28,8.49,8.49,0,0,1-6.22-2.75,104.24,104.24,0,0,1-12.2-16.87A5.21,5.21,0,0,0,54,281.59a5.07,5.07,0,0,0-.55,0,5.21,5.21,0,0,0-4.42,3.57,8.45,8.45,0,0,1-6,5.56A9.11,9.11,0,0,1,41,291a8.48,8.48,0,0,1-7.52-4.54A217,217,0,0,1,12.1,225.61a5.29,5.29,0,0,0-.55-1.53c-1.92-3.5-2.65-7.83-3.08-11.21l0-.42a206.06,206.06,0,0,1,8.49-76,127.58,127.58,0,0,1,4.94-13.75c.05-.12.27-.73.35-.91a75.35,75.35,0,0,1,8.84-15.18A48.76,48.76,0,0,1,61.27,87.33l.3,0a45.25,45.25,0,0,1,7.15-.53,106,106,0,0,1,17.16,1.86,89,89,0,0,0,13.82,1.6,18.54,18.54,0,0,0,9.35-2.08c.18-.1.35-.21.51-.32a20.62,20.62,0,0,0,8.36-14.22c.1-.92.19-1.83.25-2.73A5.23,5.23,0,0,0,113,65.24l-.44,0q-1.79.15-3.57.15h-2c-2.56,0-5.18-.09-7.77-.28-5.17-.36-9.17-1.9-11.88-4.6a3.52,3.52,0,0,0-.41-.36,8.55,8.55,0,0,1-3-4.82,8.41,8.41,0,0,1,.68-5.48,9,9,0,0,1,1.22-2,5.2,5.2,0,0,0,1-4.57,8.43,8.43,0,0,1-.24-1.93,27.65,27.65,0,0,1,14.22-23.64,25.08,25.08,0,0,1,11.9-3,24.54,24.54,0,0,1,3.09.2,4.87,4.87,0,0,0,.66,0,5.25,5.25,0,0,0,3.7-1.52,18.71,18.71,0,0,1,13.06-5.54c.49,0,1,0,1.46.06a8.7,8.7,0,0,1,.87.13,28.72,28.72,0,0,1,19.75,14.81,3.07,3.07,0,0,0,.17.31c5.4,8.8,8.65,18.81,11.52,27.65A176.31,176.31,0,0,0,173,67.62a6.74,6.74,0,0,1,.29.79,16.84,16.84,0,0,0,8.37,9.85,5.18,5.18,0,0,0,2.37.57,4.43,4.43,0,0,0,.81-.07,12.81,12.81,0,0,0,9.78-7.45c.09-.19.18-.38.28-.55a72.18,72.18,0,0,0,4.83-11.88,110.22,110.22,0,0,1,4.51-11.64,58.58,58.58,0,0,1,24-25.75A35.71,35.71,0,0,1,259.44,18a8.47,8.47,0,0,1,1.23.56,44.12,44.12,0,0,1,17.07,17.18l.23.37a299.13,299.13,0,0,1,33.18,66.81l.12.37c1,3.07,1.92,6,2.73,8.85a172.28,172.28,0,0,1,3.63,85.56,8.53,8.53,0,0,1-8.31,6.74c-.19,0-.41,0-.6,0l-.54-.06a4.93,4.93,0,0,0-.76-.05,5.23,5.23,0,0,0-4.69,2.9,110.39,110.39,0,0,1-11.16,18,53.18,53.18,0,0,1-25.29,19.41,4.75,4.75,0,0,0-.91.43,8.41,8.41,0,0,1-4.36,1.2,8.56,8.56,0,0,1-6-2.52,8.22,8.22,0,0,1-1.52-2.12,5.22,5.22,0,0,0-3.35-2.68,8.61,8.61,0,0,1-3.34-1.73,8.44,8.44,0,0,1-2.93-7.53,4.17,4.17,0,0,0,0-.71c0-4.18-1.38-9.46-3.82-14.86a5.23,5.23,0,0,0-10,2.15,67.39,67.39,0,0,1-.57,8.77l-.05.35a14.66,14.66,0,0,1-3,6.65,11.27,11.27,0,0,1-5.91,3.75,5.24,5.24,0,0,0-2.33,8.88,14.89,14.89,0,0,1,4.67,9,11.88,11.88,0,0,1-2.54,8.9,9,9,0,0,1-1.91,1.71,5.25,5.25,0,0,0-2.27,5.19,39.69,39.69,0,0,1,.51,6.16c0,7.61-5.11,10.12-6.68,10.71a10.39,10.39,0,0,1-5.37.53,5,5,0,0,0-.86-.07,5.24,5.24,0,0,0-4.94,3.52,20.6,20.6,0,0,1-13.05,12.93,10.25,10.25,0,0,1-5.89.29c-.32-.08-.63-.18-.94-.29a9.6,9.6,0,0,1-3.33-2.13,5.25,5.25,0,0,0-3.67-1.51,5.13,5.13,0,0,0-1.17.14,14.38,14.38,0,0,1-3,.35,5.23,5.23,0,0,0-4.82,3.27c-.29.74-.59,1.52-.82,2.13l-.44,1.16a55.66,55.66,0,0,1-5.45,10.61c-3,4.47-6.63,5.42-9.16,5.42a11.9,11.9,0,0,1-1.2-.07,9.73,9.73,0,0,1-5.78-2.76,5.25,5.25,0,0,0-3.67-1.5h-.17a5.2,5.2,0,0,0-3.73,1.74l-2.73,3.06A10.56,10.56,0,0,1,121.68,327Z"/><path class="cls-3" d="M307.08,114.06c-.81-2.85-1.71-5.76-2.67-8.64v0l-.05-.16a291.7,291.7,0,0,0-32.68-65.63A36.84,36.84,0,0,0,257,24.73a28.38,28.38,0,0,0-24.93,2.87,51.35,51.35,0,0,0-21.35,22.73,100,100,0,0,0-4.19,10.88,78.49,78.49,0,0,1-5.38,13.1,20.19,20.19,0,0,1-19.28,11.8,24,24,0,0,1-15.46-15.58,183.45,183.45,0,0,1-6.34-17.47c-2.93-9-6-18.37-11-26.49A21.53,21.53,0,0,0,134,15.08a11.73,11.73,0,0,0-10.23,5.14,8.71,8.71,0,0,0-1.54,4.47,17.69,17.69,0,0,0-18-.66A20.3,20.3,0,0,0,93.74,41.36l0,.22a1.24,1.24,0,0,0,.12.3.81.81,0,0,0,.09.21l.16.24a.82.82,0,0,0,.46.22l.26.14h.19a1.22,1.22,0,0,0,.71-.23l.24-.18a19.07,19.07,0,0,1,21.51-4.5,9,9,0,0,1-4,8.28,28.8,28.8,0,0,1-11.33,4.08l-9.37,2a1.23,1.23,0,0,0-1.09,0,2.06,2.06,0,0,0-.82,1.74,1.27,1.27,0,0,0,.87,1c1.91,2.48,5.39,3,7.86,3.17,2.9.2,5.94.29,8.7.24a33.83,33.83,0,0,0,10-1.3,15,15,0,0,0,6.35-3.77,85,85,0,0,1,.34,21.31A27.7,27.7,0,0,1,113.23,94c-8.32,5-18.13,3.41-28.53,1.69-7.27-1.21-14.78-2.45-22.05-1.32a41.52,41.52,0,0,0-25.78,16.44,67.21,67.21,0,0,0-8,13.76l-.08.23v0a120.88,120.88,0,0,0-5,13.68A199.15,199.15,0,0,0,15.61,212c.64,5.08,1.63,8.24,3.12,9.92A209.85,209.85,0,0,0,39.8,283.12a1.32,1.32,0,0,0,1.16.7l.32,0a1.31,1.31,0,0,0,1-1.29c-.06-4.46-.29-9.14-.51-13.67-.85-17.29-1.73-35.16,6.16-47.69,1.62,0,3.09-.09,4.45-.17h.07A96.12,96.12,0,0,0,76,296.19a1.23,1.23,0,0,0,.93.44l.33,0a.6.6,0,0,0,.24-.12.72.72,0,0,0,.32-.17l.29-.46a1.54,1.54,0,0,0,.12-.58l0-.07,0-.19c-9.2-36.23-9-64.3.64-85.78a98.94,98.94,0,0,0,15.21-15.54,64.36,64.36,0,0,1,6.23-7.65,236.86,236.86,0,0,0-7.47,36.72,90,90,0,0,0,3.23,43.87A2.71,2.71,0,0,0,98,268.48a1.58,1.58,0,0,0,.53,0l.17,0a1.32,1.32,0,0,0,1.16-.69,232,232,0,0,0,26.63-95.66,20.3,20.3,0,0,1,6.71,1.68,13.17,13.17,0,0,1,7.4,7.8,1.3,1.3,0,0,0,.82.83,1.34,1.34,0,0,0,1.15-.15,38,38,0,0,0,12.56-14.1,16.18,16.18,0,0,1,7.55,17.37A135.08,135.08,0,0,1,155,207.65a55.74,55.74,0,0,0-1.21,30.43,1.29,1.29,0,0,0,.84.93,1.32,1.32,0,0,0,1.23-.2,19.74,19.74,0,0,1,6.46-3.29,214.7,214.7,0,0,1-4.72,26.56,1.27,1.27,0,0,0-.33,1.34c-.81,3.26-1.68,6.46-2.6,9.54a15.18,15.18,0,0,1-4.14,7.73c-1.92,1.57-4.46,2.09-7.16,2.65a31.28,31.28,0,0,0-5.11,1.36,26.15,26.15,0,0,0-13,14.13A75.65,75.65,0,0,0,119.44,316c-.15.72-.53,2.65,1.09,3.57a2.32,2.32,0,0,0,1.15.3,3.74,3.74,0,0,0,2.72-1.5l17.16-19.21a2.82,2.82,0,0,1,1.07-.92,1.42,1.42,0,0,1,1.54.92,7.13,7.13,0,0,1,.3,3.2c-.18,2.8-.34,5.59-.49,8.4s.9,4.52,2.73,4.71,3.07-1.55,3.48-2.15a49,49,0,0,0,4.74-9.22l.42-1.11c1.56-4.15,3.34-8.87,7.07-9.82a27.86,27.86,0,0,1,5.07-.27,6.6,6.6,0,0,0,5.7-3.05c1.29-2.52,0-5.16-1.34-7.44Q166,272.71,160.08,263a218.77,218.77,0,0,0,5-28.15,20,20,0,0,1,8.82.57,1.26,1.26,0,0,0,1.17-.21,1.35,1.35,0,0,0,.52-1,59.6,59.6,0,0,1,15.1-40,68.43,68.43,0,0,1,5.6,19.1l0,.17c0,.33.1.67.14,1a1.32,1.32,0,0,0,1.42,1.15h0a1.24,1.24,0,0,0,.88-.48l.08-.1a5.87,5.87,0,0,1,0,3.14,25.31,25.31,0,0,0-2.58,6.85,3.5,3.5,0,0,0,1.44,3.22,3.78,3.78,0,0,0,2.5.35c1.47-.29,3-.67,4.76-1.14a231.11,231.11,0,0,1-16,30.3,49.29,49.29,0,0,0-5.73,10.49,43.34,43.34,0,0,0-1.8,9.82c-.51,5-1,10-1.55,14.93-.24,1.75.34,3,1.66,3.53a3.07,3.07,0,0,0,1.79-.09,13.54,13.54,0,0,0,9.25-10.76,25.46,25.46,0,0,0,.08-4.84,20.93,20.93,0,0,1,.11-4.7,6.21,6.21,0,0,1,2.64-4,2.69,2.69,0,0,1,2.22-.33c1.31.42,2.16,1.84,3.07,3.35,1.06,1.77,2.27,3.77,4.45,4.47a3.34,3.34,0,0,0,2.27,0c1.34-.5,2-1.83,2-3.95a33.19,33.19,0,0,0-1.8-10.6,7.69,7.69,0,0,1-.67-2.91c.17-2.4,3.56-3.73,6.75-3.62a1.34,1.34,0,0,0,1-.48,4.67,4.67,0,0,0,1-3.56,8.24,8.24,0,0,0-3.24-5.29,58.29,58.29,0,0,1-6.37-4.09c-2.38-2.43-1.61-9,2.17-18.56h0a7.93,7.93,0,0,1,6.52.84,6.87,6.87,0,0,0,1.87,1.3,3.91,3.91,0,0,0,4.18-1.21,7.59,7.59,0,0,0,1.54-3.41,59.88,59.88,0,0,0-.22-17.17v0a77.26,77.26,0,0,0,15.59-10.57c8.82,11.71,13.78,24.36,13.31,34a1.26,1.26,0,0,0,.36,1.39,1.34,1.34,0,0,0,1.85-.16,96,96,0,0,0,22.26-56.82,42.92,42.92,0,0,0-6.45-28,22.5,22.5,0,0,1,10.87,3.11,1.31,1.31,0,0,0-.32,1.54,46,46,0,0,1,4.24,22.45c-.67,26.14-9.11,48.5-23.76,63a1.31,1.31,0,0,0,0,1.85,1.35,1.35,0,0,0,1.85,0l.25-.26A45.47,45.47,0,0,0,285.68,221a105,105,0,0,0,19.11-41.13A55.11,55.11,0,0,1,308,196a1.34,1.34,0,0,0,1.31,1.24,1.3,1.3,0,0,0,1.27-1A165.31,165.31,0,0,0,307.08,114.06ZM95.43,223.14a235.26,235.26,0,0,1,8.7-40.85,64.74,64.74,0,0,1,12.13-8.6,21.51,21.51,0,0,1,7.57-1.61A229.36,229.36,0,0,1,98.3,265,87.48,87.48,0,0,1,95.43,223.14ZM39.14,269l0,.38c.12,2.45.24,5,.34,7.44a207.16,207.16,0,0,1-17.83-53.45h0c1.76,0,3.43-1.2,4.81-2.2l.25-.17c.6-.45,1.55-1.16,2-1.13,2.6.37,4.48.6,6.28.77,3.14.33,6.45.52,9.86.55C37.43,234.21,38.3,251.86,39.14,269Zm16-48.23a37.82,37.82,0,0,0,12.1-3.29c2.49-1.49,5-3.17,7.48-5-7.65,20.25-7.75,45.7-.32,77.64A93.83,93.83,0,0,1,55.1,220.72Zm191-33.11h0a52.9,52.9,0,0,0,11.54-24.91,22.76,22.76,0,0,1,4.53-13.5,9.57,9.57,0,0,1,4.14-2.23,1.29,1.29,0,0,0,.22.71,40.47,40.47,0,0,1,6.33,26.78,93.71,93.71,0,0,1-19.31,52.39c-.84-13.45-9.64-26.69-13.89-32.35A69,69,0,0,0,246.14,187.61ZM266.19,234c12.48-14.86,19.66-36.07,20.27-60.08a48.51,48.51,0,0,0-3.94-22.49A58.09,58.09,0,0,1,303,175.7a1.6,1.6,0,0,0-.11.33,102.52,102.52,0,0,1-19.36,43.44A43.15,43.15,0,0,1,266.19,234Zm16.21-85.75a4.35,4.35,0,0,0-.52-.3,25,25,0,0,0-13.36-3.86h-.46a12.26,12.26,0,0,0-7.76,3.35,25,25,0,0,0-5.21,15,50.2,50.2,0,0,1-10.45,22.84c-2.88-1-6.47-1-9.4-1.07-3.1,0-6-.09-8.08-.79a32.16,32.16,0,0,1-6.57-4.17c-6.55-4.17-14.47-3.7-22.12-3.23-5.42.32-11,.65-16.2-.69a9.5,9.5,0,0,1-7.38-5.9,34.83,34.83,0,0,1-.17-4.14,12.59,12.59,0,0,0-4.63-8.75,22.3,22.3,0,0,0-16-4.89,91.43,91.43,0,0,0-24.42,8.21A75.18,75.18,0,0,1,110,164.43a3.38,3.38,0,0,1-1.89-.18,3.52,3.52,0,0,1-1.15-1.77c-.1-.25-.21-.5-.36-.81a13.46,13.46,0,0,0-10.28-6.89,30.26,30.26,0,0,0-12.17,1.08,127.56,127.56,0,0,0-12.32,4c-12.53,4.51-26.74,9.62-39.75,3.34-3.73-1.8-2.46-8-1-15.23,1.5-7.41,3.2-15.79.37-22.87A65.23,65.23,0,0,1,39,112.39,38.89,38.89,0,0,1,63.1,97c6.8-1.06,14.1.15,21.17,1.32,10.41,1.73,21.17,3.51,30.38-2.07a30.45,30.45,0,0,0,13-21.47,87.88,87.88,0,0,0-.72-24.55,1.25,1.25,0,0,0-.52-1.31l-.2-.11h0a1.21,1.21,0,0,0-.83-.13,1.23,1.23,0,0,0-1,.89,12.59,12.59,0,0,1-6.74,4.85,31.14,31.14,0,0,1-9.31,1.21c-2.81,0-5.68,0-8.51-.24a12.33,12.33,0,0,1-4.66-1.08l7.47-1.56a31.29,31.29,0,0,0,12.29-4.45,11.57,11.57,0,0,0,5.23-10.21,1.1,1.1,0,0,0,.29-.38,1.3,1.3,0,0,0-.57-1.74,1.29,1.29,0,0,0-1.57-1,1.34,1.34,0,0,0-.39.16,21.67,21.67,0,0,0-21.16,3,17.67,17.67,0,0,1,8.73-11.85,15,15,0,0,1,17.77,2.5.83.83,0,0,0,.16.12l.16.1a9,9,0,0,1,4.73,5.66,12.25,12.25,0,0,1,.14,2.54,16.73,16.73,0,0,0,.16,2.86c.42,2.39,2.42,4.76,5,4.51S137.12,42,138,40.35l.18-.37A4.19,4.19,0,0,1,140,38a1.13,1.13,0,0,1,.39-.07,2.45,2.45,0,0,1,1,1.77,26.57,26.57,0,0,1-1.83,17.47c-.19.42-.4.83-.61,1.26l-.11.22c-1.49,3-3.17,6.34-1.92,9.91a16.83,16.83,0,0,0,3.29,4.69,17.8,17.8,0,0,1,3.94,12.43l0,.24c-.23,3-.57,7.4,2.92,8.82a7,7,0,0,0,4.24,0c.54-.12,1-.24,1.4-.28A8.69,8.69,0,0,1,160,98.73a45.51,45.51,0,0,1,3.69,6.67c.72,1.5,1.53,3.19,2.4,4.68A17,17,0,0,0,176.61,119a1.26,1.26,0,0,0,.33.05h.48a22,22,0,0,0,17-8.09,18.52,18.52,0,0,1,15.15-6.85,56.23,56.23,0,0,0,8.82,3,1.25,1.25,0,0,0,.47,0,18,18,0,0,0,11.42-6,49.9,49.9,0,0,1,19.47-9.92C255.2,89.83,262.54,90,265.15,95a15.39,15.39,0,0,1,1.19,3.75,14.35,14.35,0,0,0,2.05,5.34,11.79,11.79,0,0,0,12.42,3.42,43.61,43.61,0,0,0,5.69-1.89,37.2,37.2,0,0,1,5.85-1.89,12.05,12.05,0,0,1,9.63,2.74c.94,2.81,1.81,5.62,2.59,8.37a163.19,163.19,0,0,1,5,72.51,57.72,57.72,0,0,0-2.9-9.86A60.29,60.29,0,0,0,282.4,148.23Z"/></g></g></svg>