<svg xmlns="http://www.w3.org/2000/svg" width="419.503" height="427.149" viewBox="0 0 419.503 427.149">
  <g id="Group_174" data-name="Group 174" transform="translate(1758.941 -251.845)">
    <path id="Path_748" data-name="Path 748" d="M-1607.1,678.994a11.149,11.149,0,0,1-5.508-1.458c-2.165-1.228-7.037-5-5.357-13.34a109.951,109.951,0,0,1,8.4-24.747,43.116,43.116,0,0,1,21.364-23.042q.273-.133.558-.242a49.61,49.61,0,0,1,8.235-2.238c2.367-.489,4.811-.992,5.973-1.762a12.412,12.412,0,0,0,3.038-6.011q.06-.3.146-.588c1.107-3.72,2.151-7.516,3.108-11.3a9.9,9.9,0,0,1,1.068-4.342c1.556-6.511,2.89-13.156,3.989-19.865a9.777,9.777,0,0,1-3.052-.5l-.123-.042a9.75,9.75,0,0,1-6.272-6.969,83.243,83.243,0,0,1,1.815-45.364c.038-.118.079-.233.123-.348l.037-.1c.043-.11.088-.219.137-.327a173.078,173.078,0,0,0,9.785-28.345,13.729,13.729,0,0,0-1.107-8.8,59.281,59.281,0,0,1-13.767,12.871,9.814,9.814,0,0,1-5.453,1.656,9.693,9.693,0,0,1-3.177-.533,9.812,9.812,0,0,1-6.085-6.171,9.12,9.12,0,0,0-4.155-4.935,321.16,321.16,0,0,1-36.148,122.43,9.751,9.751,0,0,1-8.62,5.177c-.08,0-.159,0-.237,0-.1,0-.2,0-.295,0a10.332,10.332,0,0,1-1.88-.175,11.273,11.273,0,0,1-8.523-7.418c-.049-.123-.094-.247-.136-.373a129.607,129.607,0,0,1-4.695-62.953q1.113-9.236,2.823-18.605-3.486,3.369-7.187,6.485c-11.5,27.08-11.392,62.7.321,108.805l.125.48a6.994,6.994,0,0,1,.05,3.329,9.9,9.9,0,0,1-.731,2.514q-.1.229-.218.454l-.066.124a6.979,6.979,0,0,1-.406.674l-.576.845a6.931,6.931,0,0,1-1.177,1.328,9.016,9.016,0,0,1-2.205,1.423,8.956,8.956,0,0,1-1.785.679c-.136.035-.272.066-.409.094l-.127.025c-.193.038-.387.069-.582.091l-.571.064a6.864,6.864,0,0,1-.785.044,9.763,9.763,0,0,1-7.146-3.165c-.029-.032-.058-.063-.086-.1a137.893,137.893,0,0,1-32.916-69.138c-.236,8.563.207,17.58.643,26.476l.006.125c.3,6.135.612,12.482.7,18.616a9.706,9.706,0,0,1-7.39,9.6c-.12.03-.241.057-.363.08l-.115.023c-.182.036-.364.063-.548.085l-.561.063a7.133,7.133,0,0,1-.787.044,9.737,9.737,0,0,1-8.64-5.218,291.1,291.1,0,0,1-28.889-83.065c-2.258-3.523-3.7-8.462-4.608-15.628-.015-.118-.026-.236-.035-.354a276.676,276.676,0,0,1,11.375-102.062,170.033,170.033,0,0,1,6.764-18.754l.014-.044a6.766,6.766,0,0,1,.281-.767,99.109,99.109,0,0,1,11.792-20.227,63.953,63.953,0,0,1,39.67-25.267c.088-.017.175-.032.263-.046a61.269,61.269,0,0,1,9.495-.7c7.839,0,15.45,1.262,22.812,2.483,6.757,1.119,13.114,2.172,18.9,2.171,5.748,0,10.2-1.049,13.987-3.3a29.287,29.287,0,0,0,12.323-20.6,104.435,104.435,0,0,0,.582-14.872,54.127,54.127,0,0,1-14.288,1.929c-.313,0-.627,0-.94-.008q-.9.012-1.831.012c-3.413,0-7.018-.126-10.425-.365-2.564-.178-10.094-.7-15.22-6.011a9.806,9.806,0,0,1-3.832-5.869,9.7,9.7,0,0,1,.756-6.21,9.588,9.588,0,0,1,4.612-4.97,11.153,11.153,0,0,1,1.079-.453c-.087-.09-.172-.184-.254-.279l-.133-.156a7.048,7.048,0,0,1-.445-.575l-.224-.324c-.092-.132-.179-.268-.261-.406a9.673,9.673,0,0,1-.635-1.26,9.212,9.212,0,0,1-.592-1.712c-.05-.208-.091-.42-.121-.632l-.068-.468a7.157,7.157,0,0,1-.07-1.132,35.5,35.5,0,0,1,18.3-30.32,31.929,31.929,0,0,1,15.222-3.882,31.844,31.844,0,0,1,8.428,1.14,24.029,24.029,0,0,1,19.269-10.364c.6,0,1.2.027,1.784.079.138.013.276.029.413.05,0,0,.354.056.475.081a37.056,37.056,0,0,1,25.743,19.452c7.231,11.651,11.436,24.612,15.505,37.152l.039.121a238.792,238.792,0,0,0,8.216,22.68c.05.113.1.228.142.343l.038.1c.045.118.086.237.125.357a24.448,24.448,0,0,0,14.64,15.468,19.123,19.123,0,0,0,17.328-11.272q.117-.254.253-.5c2.826-5.06,4.8-10.837,6.715-16.424a143.4,143.4,0,0,1,6-15.531,77.27,77.27,0,0,1,31.936-34.1,46.009,46.009,0,0,1,24.744-7.224,46.772,46.772,0,0,1,15.632,2.7q.287.1.562.226l.154.07q.267.122.523.265a57.854,57.854,0,0,1,22.743,22.972,400.206,400.206,0,0,1,44.733,89.975l.151.432c.061.176.116.354.162.534,1.248,3.757,2.422,7.558,3.49,11.3a231.226,231.226,0,0,1,4.886,114.673,9.79,9.79,0,0,1-9.549,7.74c-.165,0-.33-.005-.494-.017a10.071,10.071,0,0,1-6.426-2.866,149.06,149.06,0,0,1-18.513,31.734,69.26,69.26,0,0,1-34.137,25.764,9.758,9.758,0,0,1-5.6,1.747,9.68,9.68,0,0,1-6.93-2.874,9.771,9.771,0,0,1-2.816-6.856,9.511,9.511,0,0,1-1.238.187c-.309.025-.571.035-.832.035a9.766,9.766,0,0,1-6.3-2.284,9.739,9.739,0,0,1-3.29-8.995c.243-9.258-4.023-21.295-11.652-33.225a112.722,112.722,0,0,1-10.759,7.075,89.2,89.2,0,0,1-.382,19.808c-.014.106-.03.211-.049.316a18.283,18.283,0,0,1-3.74,8.274c-.024.031-.049.061-.074.091a13.266,13.266,0,0,1-10.208,4.762,13.1,13.1,0,0,1-4.035-.634c-.169-.054-.335-.115-.5-.182l-.14-.057c-.164-.067-.324-.14-.482-.219a19.029,19.029,0,0,1-2.359-1.388c-1.947,6.024-2.247,9.5-2.13,10.969a67.738,67.738,0,0,0,6.286,3.932c.144.079.286.164.424.254l.127.082q.235.153.458.324a18.869,18.869,0,0,1,7.442,12.563,14.335,14.335,0,0,1-3.05,10.746l-.075.091a9.806,9.806,0,0,1-7.069,3.514c-.125.007-.25.01-.375.01h-.119a52.84,52.84,0,0,1,2.3,15.073c0,8.919-5.526,11.958-7.9,12.853a12.7,12.7,0,0,1-4.369.783,12.339,12.339,0,0,1-4.124-.705,15.369,15.369,0,0,1-6.148-3.881,33.354,33.354,0,0,1-.282,5.675l-.018.115a26.232,26.232,0,0,1-17.752,20.818,11.551,11.551,0,0,1-3.976.682,12.508,12.508,0,0,1-2.944-.352c-.132-.033-.263-.068-.392-.108l-.118-.036c-.145-.044-.288-.093-.429-.146a11.271,11.271,0,0,1-6.827-7.1,16.826,16.826,0,0,1-9.131,2.7s-.436-.006-.489-.008q-.562-.024-1.129-.024a29.285,29.285,0,0,0-3.416.2c-1.335,1.105-3.142,5.9-4.029,8.26l-.583,1.524a73.313,73.313,0,0,1-7.183,13.986c-3.64,5.412-7.933,6.535-10.9,6.535a11.686,11.686,0,0,1-1.4-.083c-6.155-.679-10.369-5.755-10.752-12.653l-12.418,13.9A12.822,12.822,0,0,1-1607.1,678.994Z" fill="#294154"/>
    <path id="Path_749" data-name="Path 749" d="M-1356.036,393.128c-1.084-3.807-2.279-7.666-3.55-11.475l0-.034-.149-.429a393.413,393.413,0,0,0-44.134-88.677,50.861,50.861,0,0,0-20.151-20.468l-.155-.071a39.166,39.166,0,0,0-34.442,3.93,70.285,70.285,0,0,0-29.217,31.109,137.826,137.826,0,0,0-5.7,14.787c-2.012,5.882-4.093,11.963-7.227,17.573a26.247,26.247,0,0,1-24.923,15.338,31.412,31.412,0,0,1-20.076-20.317l-.038-.1a243.982,243.982,0,0,1-8.475-23.357l-.038-.118c-3.97-12.233-8.074-24.883-14.952-35.872a30.089,30.089,0,0,0-21.043-16.034l-.11-.017c-5.419-.488-11.475,2.538-14.718,7.368a13.008,13.008,0,0,0-2.066,4.943,24.781,24.781,0,0,0-23.918-.122,28.441,28.441,0,0,0-14.678,24.245l0,.076.068.468a2.443,2.443,0,0,0,.212.557,2.452,2.452,0,0,0,.223.465l.224.323.134.156a2.184,2.184,0,0,0,.975.536l.433.223h.5a2.68,2.68,0,0,0,1.561-.508l.324-.245.124-.111a24.8,24.8,0,0,1,27.33-6.063,11.155,11.155,0,0,1-4.945,9.628,38.062,38.062,0,0,1-14.957,5.375l-12.345,2.586a2.622,2.622,0,0,0-2.008.136,2.651,2.651,0,0,0-1.335,1.563,2.679,2.679,0,0,0-.31,1.9,2.762,2.762,0,0,0,1.535,1.917c2.852,3.473,7.718,4.2,11.159,4.435,3.942.277,8.028.389,11.783.335a47.036,47.036,0,0,0,13.834-1.8,21.136,21.136,0,0,0,7.542-4.025,113.537,113.537,0,0,1,.2,26.611,36.311,36.311,0,0,1-15.481,25.661c-10.9,6.605-23.959,4.44-37.807,2.147-9.877-1.638-20.088-3.333-30.1-1.775a56.987,56.987,0,0,0-35.381,22.561,91.848,91.848,0,0,0-11,18.85l-.128.423a163.634,163.634,0,0,0-6.659,18.4,269.684,269.684,0,0,0-11.088,99.491c.868,6.869,2.226,11.239,4.267,13.7a284.213,284.213,0,0,0,28.479,82.605,2.758,2.758,0,0,0,2.446,1.477l.561-.063.116-.023a2.742,2.742,0,0,0,2.087-2.717c-.082-6-.39-12.289-.689-18.373l-.005-.121c-1.126-22.948-2.29-46.671,7.878-63.274,1.554-.035,3-.089,4.414-.165a130.816,130.816,0,0,0,32.205,101.108,2.709,2.709,0,0,0,2,.91l.572-.064.127-.025a1.938,1.938,0,0,0,.515-.218,2.1,2.1,0,0,0,.642-.382l.576-.846.066-.124a2.8,2.8,0,0,0,.245-1.034l.072-.228-.136-.523c-12.329-48.528-12.1-86.1.708-114.849a134.39,134.39,0,0,0,20.525-21.012,83.966,83.966,0,0,1,5.484-7.074,318.264,318.264,0,0,0-8.963,45.55,122.539,122.539,0,0,0,4.411,59.723,4.6,4.6,0,0,0,3.3,3.115,3.053,3.053,0,0,0,.911.039l.218.018a2.76,2.76,0,0,0,2.44-1.465,313.847,313.847,0,0,0,35.98-128.4,25.8,25.8,0,0,1,7.7,2.08c4.751,2.159,8.017,5.591,9.448,9.924a2.78,2.78,0,0,0,1.725,1.749,2.79,2.79,0,0,0,2.442-.319,52.22,52.22,0,0,0,16.759-18.426,20.93,20.93,0,0,1,8.831,21.772,179.964,179.964,0,0,1-10.206,29.59l-.037.1a76.291,76.291,0,0,0-1.656,41.585,2.771,2.771,0,0,0,1.8,1.977,2.817,2.817,0,0,0,2.588-.43,25.44,25.44,0,0,1,6.931-3.794,290.616,290.616,0,0,1-6.116,33.914,2.775,2.775,0,0,0-.566,2.305c-1.062,4.262-2.217,8.488-3.453,12.649a19.4,19.4,0,0,1-5.241,9.858c-2.384,1.955-5.7,2.638-9.217,3.363a43.384,43.384,0,0,0-7.132,1.915,36.182,36.182,0,0,0-18.007,19.536,102.822,102.822,0,0,0-7.965,23.343c-.213,1.058-.86,4.277,1.958,5.876a4.077,4.077,0,0,0,2.046.541,6,6,0,0,0,4.412-2.356l23.15-25.92.072-.09a3.246,3.246,0,0,1,.893-.837.924.924,0,0,1,.867.575,8.991,8.991,0,0,1,.35,3.939c-.244,3.782-.455,7.553-.665,11.341-.225,4.185,1.572,7.093,4.56,7.407,3.142.391,5.007-2.391,5.651-3.348a66.236,66.236,0,0,0,6.491-12.635l.571-1.493c2.019-5.359,4.306-11.43,8.8-12.618a36.076,36.076,0,0,1,6.62-.349,9.985,9.985,0,0,0,8.541-4.567l.057-.1c1.97-3.849.089-7.688-1.838-11q-7.836-12.867-15.657-25.755a296.086,296.086,0,0,0,6.561-36.929,26.164,26.164,0,0,1,10.7.852,2.758,2.758,0,0,0,2.481-.447,2.814,2.814,0,0,0,1.084-2.211,79.516,79.516,0,0,1,19.1-52.138,91.972,91.972,0,0,1,6.834,24.071l.062.426c.054.374.109.749.15,1.129a2.793,2.793,0,0,0,2.941,2.453l.11-.006a2.8,2.8,0,0,0,.448-.087,5.554,5.554,0,0,1-.18,2.15,35.281,35.281,0,0,0-3.536,9.421l-.017.1a5.724,5.724,0,0,0,2.316,5.23l.16.1a6.078,6.078,0,0,0,4.043.575c1.425-.287,2.9-.624,4.459-1.02a309.729,309.729,0,0,1-20.657,38.792,67.819,67.819,0,0,0-7.87,14.433,59.315,59.315,0,0,0-2.46,13.443c-.7,6.753-1.4,13.486-2.088,20.11-.394,2.866.655,4.991,2.877,5.831l.118.036a5.09,5.09,0,0,0,2.954-.137,19.255,19.255,0,0,0,13.155-15.332,34.527,34.527,0,0,0,.119-6.716,27.1,27.1,0,0,1,.141-6.111,7.388,7.388,0,0,1,3.093-4.756,2.656,2.656,0,0,1,2.174-.354c1.4.445,2.457,2.2,3.588,4.084,1.445,2.406,3.242,5.4,6.51,6.444a5.488,5.488,0,0,0,3.759-.007c1.536-.578,3.367-2.133,3.367-6.265a45.935,45.935,0,0,0-2.526-14.709,9.337,9.337,0,0,1-.815-3.448c.188-2.6,4.337-4.072,8.159-3.951a2.83,2.83,0,0,0,2.079-1.02,7.294,7.294,0,0,0,1.537-5.541,12.025,12.025,0,0,0-4.757-7.815l-.127-.082a74.221,74.221,0,0,1-8.408-5.406c-2.772-2.941-1.677-11.461,3.011-23.443a9.647,9.647,0,0,1,7.421,1.091,10.6,10.6,0,0,0,2.7,1.859l.14.057a6.3,6.3,0,0,0,6.72-1.955,11.234,11.234,0,0,0,2.3-5.1,82.269,82.269,0,0,0-.188-22.754,105.705,105.705,0,0,0,19.776-13.366c11.3,15.3,17.681,31.747,17.12,44.206a2.7,2.7,0,0,0,.834,2.815,2.785,2.785,0,0,0,2.015.622,2.771,2.771,0,0,0,1.884-.958,130.352,130.352,0,0,0,30.264-77.178,59.039,59.039,0,0,0-7.846-36.737,29.631,29.631,0,0,1,11.392,3.444,2.788,2.788,0,0,0,.08,2.146,61.089,61.089,0,0,1,5.63,29.829c-.9,35-12.178,64.927-31.757,84.261a2.771,2.771,0,0,0-.021,3.909,2.81,2.81,0,0,0,3.931,0l.157-.166a62.235,62.235,0,0,0,31.95-23.668,142.843,142.843,0,0,0,25.152-52.429,73.073,73.073,0,0,1,3.175,18.085,2.83,2.83,0,0,0,2.763,2.618,2.769,2.769,0,0,0,2.7-2.191A224.215,224.215,0,0,0-1356.036,393.128Zm-185.107,56.857c-5.663-4.893-14.218-7.508-22.331-6.832l-.1.013a124.242,124.242,0,0,0-33.162,11.139A100.749,100.749,0,0,1-1623,460.372a3.641,3.641,0,0,1-1.9-.132,4.617,4.617,0,0,1-1.1-1.9c-.151-.356-.3-.71-.537-1.19a19.154,19.154,0,0,0-14.628-9.8,41.731,41.731,0,0,0-16.771,1.467c-5.282,1.313-10.824,3.307-16.711,5.426-16.725,6.017-35.682,12.837-52.859,4.548-4.322-2.085-2.691-10.128-.8-19.451,2.021-9.983,4.307-21.28.6-31.007a86.947,86.947,0,0,1,9.843-16.594,51.465,51.465,0,0,1,31.9-20.4c9.008-1.406,18.783.214,28.237,1.781,14.216,2.361,28.917,4.8,41.713-2.954a42,42,0,0,0,17.97-29.67,119.376,119.376,0,0,0-.943-33.232,2.718,2.718,0,0,0-1.225-2.636l-.52-.272h-.036a2.6,2.6,0,0,0-1.539-.163,2.64,2.64,0,0,0-2.038,1.73,15.966,15.966,0,0,1-8.466,6.039,41.211,41.211,0,0,1-12.293,1.586c-3.671.063-7.508-.047-11.407-.323-.5-.035-1.384-.1-2.392-.262l6.254-1.313a43.1,43.1,0,0,0,16.984-6.154,16.672,16.672,0,0,0,7.535-14.234,3.046,3.046,0,0,0,.269-.432,2.779,2.779,0,0,0-.837-3.461,2.754,2.754,0,0,0-3.176-1.608,2.716,2.716,0,0,0-.349.108,30.131,30.131,0,0,0-26.8,2.766,22.7,22.7,0,0,1,10.56-12.7,19.238,19.238,0,0,1,22.794,3.2,1.932,1.932,0,0,0,.408.31l.29.171a11.08,11.08,0,0,1,5.835,6.936,16.511,16.511,0,0,1,.181,3.223,21.841,21.841,0,0,0,.228,4.039c.652,3.706,3.736,7.3,7.777,6.911,3.8-.421,5.548-3.965,6.706-6.314l.238-.488a5.087,5.087,0,0,1,1.925-2.194,2.481,2.481,0,0,1,.64,1.454l.019.1a34.939,34.939,0,0,1-2.4,22.906c-.262.551-.538,1.1-.822,1.669l-.16.32c-2.085,4.182-4.448,8.923-2.621,14.124l.04.1a23.585,23.585,0,0,0,4.6,6.573,23,23,0,0,1,5.051,16.026l-.025.319c-.309,4-.826,10.7,4.572,12.9a10.352,10.352,0,0,0,6.306-.01l.116-.026c.619-.138,1.206-.269,1.6-.321a10.819,10.819,0,0,1,8.9,5.443,60.364,60.364,0,0,1,4.887,8.857l.075.156c.956,1.982,2.04,4.228,3.17,6.162a23.952,23.952,0,0,0,14.843,12.5,2.686,2.686,0,0,0,.722.112l.655.007a30.7,30.7,0,0,0,23.656-11.281,24.052,24.052,0,0,1,19.432-8.873,77.676,77.676,0,0,0,11.911,4.03,2.828,2.828,0,0,0,.965.051,25.126,25.126,0,0,0,16-8.325,66.31,66.31,0,0,1,25.8-13.135c7.052-1.779,16.443-1.655,19.7,4.546a20.367,20.367,0,0,1,1.52,4.824,20.154,20.154,0,0,0,2.917,7.549l.073.092a16.82,16.82,0,0,0,17.72,4.911,58.488,58.488,0,0,0,7.816-2.59,48.9,48.9,0,0,1,7.683-2.482,15.262,15.262,0,0,1,11.978,3.283c1.223,3.667,2.366,7.361,3.4,11a219.712,219.712,0,0,1,7.463,92.168,79.231,79.231,0,0,0-2.751-8.3,82.277,82.277,0,0,0-33.121-39.9,7.182,7.182,0,0,0-.781-.449,34.784,34.784,0,0,0-18.495-5.318c-.212,0-.428,0-.666.008a17.639,17.639,0,0,0-11.1,4.79l-.112.123a34.679,34.679,0,0,0-7.233,20.787,66.69,66.69,0,0,1-13.45,29.747c-3.911-1.159-8.549-1.228-12.315-1.284-4.068-.062-7.911-.12-10.54-1a41.926,41.926,0,0,1-8.6-5.471l-.1-.07c-9.109-5.8-19.943-5.146-30.444-4.513-7.232.43-14.71.876-21.625-.914a11.912,11.912,0,0,1-9.131-7.2,45.351,45.351,0,0,1-.215-5.415A18,18,0,0,0-1541.143,449.985Z" fill="#bfa5a3"/>
  </g>
</svg>
