<svg xmlns="http://www.w3.org/2000/svg" width="270.66" height="375.068" viewBox="0 0 270.66 375.068">
  <g id="Group_172" data-name="Group 172" transform="translate(2060.015 -277.885)">
    <path id="Path_737" data-name="Path 737" d="M-1790.817,503.837c-4.249-18.894-18.891-35.96-39.169-45.651a72.79,72.79,0,0,0-31.652-7.078,79.05,79.05,0,0,0-41.66,11.941,69.2,69.2,0,0,0-6.041,4.347c-.588.457-1.174.912-1.762,1.357-3.988,3.018-8.247,6.229-12.6,9.384a231.841,231.841,0,0,1-22.7,14.971,6.98,6.98,0,0,0-1.339.97c-.153.141-.3.288-.463.456-2.5,2.239-3.811,2.914-4.478,3.083a6.931,6.931,0,0,0-1.193-.1,6.982,6.982,0,0,0-2.451.444c-.72.269-1.561.574-2.358.8-.658.191-1.378.346-2.174.508-.073,0-.517.013-.517.013a6.854,6.854,0,0,0-.86.079c-.022-.607-.009-1.3,0-2.028.008-.443.016-.887.018-1.332a10.581,10.581,0,0,1,.11-1.909c.06-.188.116-.376.169-.566.027-.05.054-.1.08-.153a7.3,7.3,0,0,0,.329-.68,7.017,7.017,0,0,0,.512-1.974,35.324,35.324,0,0,1,3.5-7.177,28.63,28.63,0,0,1,3.572-4.945,6.974,6.974,0,0,0,.644-.8,73.718,73.718,0,0,1,7.643-9.291c8.6-8.873,18.735-16.132,31.317-24.3q4.689-3.045,9.428-6.068c19.662-12.6,39.992-25.622,56.72-42.958,11-11.4,18.274-22.693,22.243-34.526a62.526,62.526,0,0,0-.537-41.289,59.073,59.073,0,0,0-23.828-29.543c-9.746-6.249-21.561-10.1-35.117-11.451-3.249-.323-6.577-.487-9.889-.487a103.141,103.141,0,0,0-45.663,10.593,9.228,9.228,0,0,0-4.368,2.044q-.4.336-.779.685a89.937,89.937,0,0,0-11.035,7.459c-1.742,1.38-3.44,2.862-5.062,4.417a17.476,17.476,0,0,1-2.1.119,25.421,25.421,0,0,1-2.74-.16c-1.475-.161-2.941-.358-4.405-.554a86.064,86.064,0,0,0-11.583-1.009c-1.158,0-2.3.042-3.4.128a51.449,51.449,0,0,0-7.663,1.185c-.18-.009-.361-.015-.543-.015a9.914,9.914,0,0,0-2.035.214c-6.609,1.39-16.133,4.105-22.5,11.6a42.671,42.671,0,0,0-6.231,10.813,42.234,42.234,0,0,1-3.1,6.1,53.9,53.9,0,0,1-6.475,7.464c-1.613,1.654-3.281,3.364-4.881,5.239-2.586,3.032-10.455,12.259-7.278,22.259,2.457,7.732,10.376,10.851,17.041,11.277-.99,2.429-2.136,4.678-3.63,5.643a20.375,20.375,0,0,1-3.346-1.822c-.374-.231-.761-.471-1.161-.713-.039-.111-.077-.218-.114-.32a10.241,10.241,0,0,0-8.321-6.855,10.194,10.194,0,0,0-1.364-.092,10.2,10.2,0,0,0-8.856,5.1,20.367,20.367,0,0,0-3.092,11.251A16.157,16.157,0,0,0-2052.1,403a21.851,21.851,0,0,0,11.467,3.275q.657,0,1.314-.04a30.168,30.168,0,0,0,5.737-.9,21.485,21.485,0,0,0,5.2-2.091,21.3,21.3,0,0,0,6.781-4.726c.345-.35.67-.72.989-1.1a29.131,29.131,0,0,0,5.61-6.674,9.49,9.49,0,0,0,4.908,1.387,9.466,9.466,0,0,0,5.3-1.64,43.526,43.526,0,0,0,7.025-6.194c.35-.36.7-.724,1.066-1.091a43.585,43.585,0,0,1,7.431-5.857c4-2.557,8.82-3.9,13.92-5.321,2.172-.606,4.418-1.232,6.676-1.972a41.642,41.642,0,0,0,18.589-11.94,51.729,51.729,0,0,0,10.324-19.829c2.142-7.575,2.267-14.676.443-20.693a105.021,105.021,0,0,1,23.454-7.785,66.1,66.1,0,0,1,13.077-1.443c7.807,0,13.986,1.858,18.362,5.521a20.7,20.7,0,0,1,1.792,1.683,63.342,63.342,0,0,1,3.169,15.92c-3.1,11.2-13.826,23.828-23.019,32.054-11.881,10.633-27.594,18.587-42.789,26.28-2.693,1.363-5.369,2.718-8.007,4.079-19.289,9.948-41.152,21.224-59.182,37.156-9.295,8.212-16.52,17.021-21.475,26.18a73.3,73.3,0,0,0-8.734,30.412,7.01,7.01,0,0,0,.085,1.625,45.97,45.97,0,0,0,1.447,9.49,7.034,7.034,0,0,0,.258.828l-.034-.09a10.828,10.828,0,0,0,.373,1.02c.2.468.405.931.608,1.393.537,1.219,1.044,2.371,1.407,3.439a7.013,7.013,0,0,0,.83,1.672,133.1,133.1,0,0,0,21.956,40.534c7.828,9.913,24.058,26.543,44.815,26.543a38.532,38.532,0,0,0,5.345-.374,40.308,40.308,0,0,0,11.96-3.713q.339,1.967.84,3.879a52.463,52.463,0,0,0,14.387,24.142,68.649,68.649,0,0,0,33.5,17.513,32.566,32.566,0,0,0-.963,12.692c1.151,9,6,16.446,13.149,20.4a10.237,10.237,0,0,0,8.2,4.307,10.155,10.155,0,0,0,5.134-1.421c5.844-.432,11.968-2.916,17.826-7.246,8.525-6.3,14.457-14.658,19.136-22,1.551-2.433,3.017-4.908,4.435-7.3a121.886,121.886,0,0,1,8.559-13.151c.371-.292.706-.566,1.024-.838a62.162,62.162,0,0,0,5.745-5.607,101.058,101.058,0,0,0,9.462-12.345c2.784-4.218,5.165-8.533,7.56-12.952.562-1.035,1.134-2.069,1.708-3.106,1.747-3.157,3.553-6.422,5.131-9.844a10.723,10.723,0,0,0,.943-5.634C-1789.9,535.167-1787.467,518.738-1790.817,503.837Z" fill="#294154"/>
    <path id="Path_738" data-name="Path 738" d="M-1974.115,323.243c-1.809,3.68-4.567,7.45-8.639,8.761-4.88,1.571-10.114-.166-15.136.711,0,.052.014.1.008.152,0,.026-.011.051-.014.078a2.366,2.366,0,0,1,.84,2.982,6.528,6.528,0,0,1-1.615,2.136,2.4,2.4,0,0,1,.117.365,13.46,13.46,0,0,1,3.746-.745c.742-.036,1.481-.022,2.219.013a2.6,2.6,0,0,0,.458,1.351,13.5,13.5,0,0,0,4.855,4.406c2.394,1.183,5.263,1.532,7.594-.037a9.846,9.846,0,0,0,3.661-5.242,22.05,22.05,0,0,0,.731-2.306,8.863,8.863,0,0,0,.308-2.692,24.885,24.885,0,0,0,5.043-8.173C-1968.959,322.62-1972.979,320.93-1974.115,323.243Z" fill="#a7c4a0"/>
    <path id="Path_739" data-name="Path 739" d="M-1797.647,505.373c-4.126-18.348-18.773-32.945-35.358-40.872-21.271-10.167-46.65-7.872-66.6,4.5-2.543,1.577-4.886,3.535-7.267,5.337-4.214,3.189-8.435,6.368-12.713,9.469a236.734,236.734,0,0,1-23.4,15.419c-.138.128-.26.275-.4.4-2.626,2.369-6.04,5.121-9.79,5.04a2.168,2.168,0,0,1-.69-.15c-.942.353-1.891.691-2.858.972-.988.287-1.983.494-2.99.7l-.071.015c-.182.02-.364.043-.547.055-.274.017-.548.019-.821.027a5.011,5.011,0,0,1-3.666.442,5.049,5.049,0,0,1-3.595-3.368c-.176-.489-.338-1.011-.478-1.512-.025-.186-.043-.317-.061-.449-.008-.03-.02-.08-.04-.177a7.491,7.491,0,0,1-.226-1.546c-.048-1.226.01-2.465.015-3.692a13.2,13.2,0,0,1,.443-4.014c.088-.276.154-.557.247-.834q.194-.462.391-.925c.119-.237.129-.232.041-.008a2.2,2.2,0,0,1,.118-.226,2.028,2.028,0,0,1,.036-.52,39.034,39.034,0,0,1,4.422-9.511,35.825,35.825,0,0,1,4.462-6.124,80.431,80.431,0,0,1,8.37-10.177c9.611-9.923,20.995-17.81,32.533-25.3,22.507-14.615,46.147-28.557,64.922-48.015,8.835-9.157,16.565-19.729,20.644-31.892a55.741,55.741,0,0,0-.47-36.65,52.264,52.264,0,0,0-21.037-26.064c-9.577-6.141-20.788-9.259-32.031-10.377a96.508,96.508,0,0,0-52.979,10.032,2.124,2.124,0,0,0-1.734.5c-.4.338-.781.7-1.173,1.044a82.913,82.913,0,0,0-10.808,7.237,64.67,64.67,0,0,0-5.826,5.224c-.052.053-.076.11-.123.164a25.182,25.182,0,0,1-9.064.46c-6.049-.661-11.959-1.893-18.078-1.415a44.073,44.073,0,0,0-7.878,1.338,2.718,2.718,0,0,0-1.467-.083c-6.8,1.43-13.954,3.807-18.6,9.283-4.113,4.842-5.38,11.047-8.832,16.249-3.324,5.01-7.991,8.836-11.862,13.376-3.371,3.952-7.685,10.084-5.934,15.6,1.645,5.176,8.773,6.836,13.54,6.375a2.425,2.425,0,0,0,1.9-1.277,28.419,28.419,0,0,0,6.623-1.4,68.294,68.294,0,0,0-3.649,8.238c-1.807,4.762-3.65,10.583-8.352,13.27-5.037,2.878-9.521-2.115-13.985-4.067a4.879,4.879,0,0,0-.043-.7,9.085,9.085,0,0,0-.5-1.873,3.27,3.27,0,0,0-2.675-2.3,3.217,3.217,0,0,0-3.206,1.536,13.832,13.832,0,0,0-2.181,7.417,9.271,9.271,0,0,0,4.619,7.5,14.7,14.7,0,0,0,8.629,2.179,23.381,23.381,0,0,0,4.406-.687,14.182,14.182,0,0,0,3.832-1.6,14.185,14.185,0,0,0,4.926-3.357c.369-.374.695-.788,1.044-1.183a25.5,25.5,0,0,0,6.425-8.67c3.723-7.605,6.021-21.7,16.646-22.208.077,0,.143-.023.216-.032.016.083.022.163.046.249,1.027,3.638-1.452,7.1-3.4,9.976-2.119,3.133-5.055,5.86-6.921,9.134-1.319,2.314,1.422,5.435,3.82,3.82a46.3,46.3,0,0,0,7.024-6.4,50.433,50.433,0,0,1,8.642-6.836c6.785-4.333,14.656-5.577,22.183-8.045a34.516,34.516,0,0,0,15.486-9.88,44.632,44.632,0,0,0,8.872-17.142c2.034-7.193,2.449-15.661-2.049-21.974a113.769,113.769,0,0,1,31.283-11.458c12.268-2.5,27.15-2.951,37.331,5.57a26.6,26.6,0,0,1,3.484,3.486,70.907,70.907,0,0,1,4.03,20.188c-3.359,14-16.266,28.395-25.4,36.567-14.728,13.179-34.389,22.148-52.255,31.363-20.147,10.391-40.661,21.076-57.756,36.18-7.857,6.942-14.946,15.01-19.953,24.266a66.785,66.785,0,0,0-7.906,27.528,2,2,0,0,1,.086.408,37.23,37.23,0,0,0,1.26,8.6c.083.218.138.446.23.661.774,1.8,1.6,3.536,2.211,5.342.1-.008.192-.019.288-.032a125.693,125.693,0,0,0,21.364,40.152c10.235,12.961,26.015,26.059,43.691,23.575,7.2-1.012,13.619-4.673,19.375-8.97a42.706,42.706,0,0,0,1.171,14.293,45.681,45.681,0,0,0,12.5,20.9c10.284,10,24.583,15.958,38.949,16.912a24.869,24.869,0,0,0-4.35,17.424c.871,6.818,4.736,13.228,11.245,15.959l.027.01c.6,2,2.732,3.5,4.931,2.038.377-.25.742-.515,1.115-.771,5.677.125,11.261-2.518,15.889-5.94,7.237-5.35,12.6-12.609,17.394-20.134,4.635-7.274,8.534-15,13.949-21.714.487-.368.966-.745,1.43-1.14a55.8,55.8,0,0,0,5.1-4.983,94.8,94.8,0,0,0,8.806-11.5c2.641-4,4.964-8.22,7.249-12.433,2.245-4.141,4.664-8.269,6.637-12.546a3.489,3.489,0,0,0-.174-3.426C-1798.085,536.906-1794.156,520.9-1797.647,505.373Zm-158.225-172.2c-.994,4.733-2.815,9.806-6.353,13.245-4.912,4.775-12.385,4.034-18.926,5.176a2.631,2.631,0,0,0-3.278-2.734c-3.808.954-5.931,4.318-9.435,5.678-2.057.8-4.294.184-6.4,0a12.2,12.2,0,0,0-6.728,1.41c-4.089,2.037-7.739,4.854-11.891,6.772-3.429,1.584-7.091,1.835-10.75,2.27a3.616,3.616,0,0,1-.585.131,1.42,1.42,0,0,0-.177.043l.073-.03h-.016a4.405,4.405,0,0,1-1.213.259c-1.944-.435-3.7-1.183-4.132-2.781-.562-2.05,1.076-4.548,2.156-6.157a33.977,33.977,0,0,1,5.11-5.729c3.217-3.034,6.777-5.824,9.662-9.19a21.674,21.674,0,0,0,3.748-3.734,35.305,35.305,0,0,0,3.655-6.841,23.38,23.38,0,0,1,4.3-6.183,32.347,32.347,0,0,1,10.855-7.638,36.005,36.005,0,0,1,13.435-2.717c5.768-.1,11.425,1.274,17.18,1.4a28.65,28.65,0,0,0,7.252-.718,3,3,0,0,0-.224,2.1c.649,2.755,1.759,5.36,2.5,8.088A16.363,16.363,0,0,1-1955.872,333.177Zm87.675,289.186a57.711,57.711,0,0,1-5.851,7.015,106.908,106.908,0,0,0-10.444,8.106,12.3,12.3,0,0,1-7.046-8.129,17.218,17.218,0,0,1-.2-9.107,16.22,16.22,0,0,1,.511-1.644,8.123,8.123,0,0,1,.931-2.153c1.054-2.1,2.383-4.039,3.547-6.188a2.791,2.791,0,0,0,.136-.315c9.791-.645,19.4-3.768,28.346-8.2A76.233,76.233,0,0,1-1868.2,622.363Zm37.285-48.856c-11.576,11.508-25.659,21.158-41.208,26.384a56.6,56.6,0,0,1-23.033,3.044,56.925,56.925,0,0,1-22.285-6.7c-13.439-7.306-23.526-20.414-22.983-36.223a40.109,40.109,0,0,1,1.431-9.061c4.285-3.942,8.343-8.14,12.363-12.339,10.012-10.461,20.331-22.505,34.253-27.157,6.975-.6,14.177-2,20.756,1.157a19.3,19.3,0,0,1,10.344,11.921c3.368,10.9,2.446,23.787-1.681,34.339a39.755,39.755,0,0,1-3.191,6.4c-.323.315-.643.631-.969.941a49.2,49.2,0,0,0,1.327-7.05,3.169,3.169,0,0,0,1.427-2.435c1.242-12.765-2.682-28.749-16.269-33.263-10.079-3.35-21.6,1.635-28.1,9.518-8.56,10.372-8.811,24.094-2.712,35.779,3.833,7.343,10.131,12.994,18.225,15.137a33.085,33.085,0,0,0,8.24,1.046,2.836,2.836,0,0,0,3.864,1.1,26.249,26.249,0,0,0,2.353-1.557,46.656,46.656,0,0,0,9.343-2.436c14.951-5.594,30-18.443,32.3-35.057,1.266-9.148-.085-18.7-5.219-26.531a39.628,39.628,0,0,0-19.633-15.113,50.894,50.894,0,0,0-25.75-2.208,44.6,44.6,0,0,0-6.473,1.555,3.508,3.508,0,0,0-.87.305,53.14,53.14,0,0,0-15.438,8.529c-11.258,8.747-20.245,19.954-30.469,29.821-.121-.011-.243-.008-.365-.007a12.575,12.575,0,0,1-2.661,2.982c-.812.554-1.254,1.184-2,1.8a17.45,17.45,0,0,1-1.538,1.109c-.868.73-1.714,1.485-2.61,2.186-5.752,4.5-12.69,8.528-19.819,8.744-6.1.184-12.016-1.986-17.253-5.12a7.13,7.13,0,0,1-1.842-.594,11.008,11.008,0,0,1-3.753-3.593,29.632,29.632,0,0,1-3.008-5.064c-6.122-6.875-8.965-16.266-10.174-25.466-.241-1.827-.39-3.645-.492-5.458-.016-.093-.036-.191-.051-.284-.242-1.5-.239-3.059-.332-4.572a24.513,24.513,0,0,1-.033-3.888,15.051,15.051,0,0,1,.635-4.8c.176-.612.375-1.221.591-1.823a60.41,60.41,0,0,1,2.807-10.736,70.09,70.09,0,0,1,5.8-11.907,86.9,86.9,0,0,1,7.874-10.993,154.141,154.141,0,0,1,20.985-20.23c15.778-12.868,33.511-23.948,50.208-35.957,15.551-11.185,31.3-23.423,41.871-39.674a64.318,64.318,0,0,0,9.77-24.343,58.984,58.984,0,0,0,.673-12.762c1.838-8.578.888-17.383-4.994-24.839-9-11.409-24.1-14.528-37.905-13.353a105.048,105.048,0,0,0-29.706,7.316c13.569-7.3,29.549-10.533,44.667-10.262,20.9.374,42.865,8.563,52.377,28.28a48.68,48.68,0,0,1,2.965,33.268c-3.1,11.53-10.083,21.6-18.117,30.263-17.878,19.272-40.824,33-62.733,47.127-11.2,7.222-22.331,14.695-32.127,23.783-.189.175-.371.362-.559.539-.532.567-1.051,1.146-1.542,1.748a18.884,18.884,0,0,1-3.183,3.382,11.442,11.442,0,0,0-2.432,2.537,22.248,22.248,0,0,1-2.547,2.737c-6.576,8.189-11.656,17.578-13.158,28.026-.114.791-.188,1.566-.259,2.341a33,33,0,0,0-.433,11.883,19.9,19.9,0,0,0,8.7,14.038c5.634,3.578,12.744,3.533,19.061,2.226,16.517-3.419,30.535-13.887,43.911-23.571,6.768-4.9,13.593-9.62,20.8-13.854,7.44-4.371,14.859-9.088,23.088-11.851a38.146,38.146,0,0,1,14.044-2.21,39.841,39.841,0,0,1,11.48,2.628c7.809,2.84,15.411,7.379,20.961,13.626a3.7,3.7,0,0,0,.322.3c.38.5.778.987,1.141,1.5,8.822,12.466,10.442,27.573,6.41,42.081C-1809.8,548.252-1819.495,562.157-1830.912,573.507Zm-39.667-18.175a3.749,3.749,0,0,0-1.958,3.082,39.582,39.582,0,0,1-1.181,6.486,28.106,28.106,0,0,1-2.308,6.077,31.713,31.713,0,0,1-4.695,6.766,26.038,26.038,0,0,1-13.727-1.567c-6.379-2.8-10.661-8.872-12.815-15.076a25.566,25.566,0,0,1-1.585-8.176,19.255,19.255,0,0,1,1-7.426c.179-.585.385-1.158.6-1.732.038-.1.121-.3.169-.419.123-.277.249-.552.382-.824a26.476,26.476,0,0,1,1.934-3.334c.166-.243.338-.481.508-.72.088-.123.132-.185.158-.223-.015.023-.024.038.009,0,.4-.491.8-.97,1.229-1.434a29.107,29.107,0,0,1,2.6-2.479c.061-.053.308-.252.428-.351s.374-.28.439-.326c.5-.353,1-.7,1.52-1.019a28.037,28.037,0,0,1,3.186-1.69l.068-.032c.031-.011.059-.02.113-.041.255-.1.509-.2.765-.286q.828-.294,1.675-.527.774-.213,1.561-.371c.26-.052.522-.095.783-.143l.147-.028c.028,0,.053,0,.106-.008a22.469,22.469,0,0,1,3.382-.08c.258.016.515.043.772.064l.066,0,.033.006c.549.1,1.095.2,1.636.343.5.129.989.288,1.477.454.061.02.278.1.424.16.162.074.459.207.539.248.47.239.933.488,1.381.764.228.14.45.288.671.436.1.065.49.357.576.417a15.968,15.968,0,0,1,4.121,5.033c.322.581.617,1.176.894,1.78.064.139.093.2.1.221s.033.091.087.227q.231.585.436,1.18a34.908,34.908,0,0,1,1.251,4.682A67.07,67.07,0,0,1-1870.579,555.332Z" fill="#a7c4a0"/>
  </g>
</svg>
