<svg xmlns="http://www.w3.org/2000/svg" xmlns:xlink="http://www.w3.org/1999/xlink" viewBox="0 0 247.97 359.98"><defs><style>.cls-1{fill:url(#New_Gradient_Swatch_1);}.cls-2{fill:#294154;}.cls-3{fill:#a7c4a0;}</style><linearGradient id="New_Gradient_Swatch_1" y1="179.99" x2="247.97" y2="179.99" gradientUnits="userSpaceOnUse"><stop offset="0" stop-color="#a67f3b"/><stop offset="0.07" stop-color="#b9974d"/><stop offset="0.19" stop-color="#d4b867"/><stop offset="0.31" stop-color="#e7d079"/><stop offset="0.41" stop-color="#f3df84"/><stop offset="0.5" stop-color="#f7e488"/><stop offset="0.58" stop-color="#f2de83"/><stop offset="0.7" stop-color="#e4cc76"/><stop offset="0.83" stop-color="#ccae5f"/><stop offset="0.98" stop-color="#ab8640"/><stop offset="1" stop-color="#a67f3b"/></linearGradient></defs><g id="Layer_2" data-name="Layer 2"><g id="Layer_1-2" data-name="Layer 1"><path class="cls-1" d="M233.85,185.45a64.28,64.28,0,0,0-25.89-21l-.41-.17a88.48,88.48,0,0,0-17.75-5.46c27.15-13.69,45.51-32.62,53.52-55.48a89.06,89.06,0,0,0,4.44-34.58A70.52,70.52,0,0,0,238.45,36c-.29-.5-.59-1-.91-1.46a68.34,68.34,0,0,0-26.39-23.06A100.48,100.48,0,0,0,164.75,0,99.13,99.13,0,0,0,116.4,12.56l-6.09-1.31A49.67,49.67,0,0,0,97.07,9.46a50.61,50.61,0,0,0-9.73.95c-.66.13-1.3.29-2,.47C71.71,14.81,64.42,24.94,60.06,31c-.78,1.09-2.09,2.9-2.61,3.43a40.51,40.51,0,0,1-3.66,2.4A74.92,74.92,0,0,0,43,44.48,37.44,37.44,0,0,0,34.2,55.93a25.56,25.56,0,0,0-17.44,30c4.12,18.61,14.18,31.58,27.48,36a110.25,110.25,0,0,0-28.53,25.27,21.7,21.7,0,0,0-1.43,2A90.59,90.59,0,0,0,.14,203.07a102.06,102.06,0,0,0,7,35.12c.2.54.42,1.08.67,1.6a72.63,72.63,0,0,0,35.4,38.56l.87.42a66.24,66.24,0,0,0,22.57,5.65,80.29,80.29,0,0,0,4.1,10A69.08,69.08,0,0,0,92.3,319.57,47.59,47.59,0,0,0,95.67,339a31.54,31.54,0,0,0,25.16,20.71,26.26,26.26,0,0,0,3.65.27h.26a51.44,51.44,0,0,0,19.49-4c25.67-8.59,48.11-26.74,70.5-57,.22-.3.68-1,.71-1,1.72-2.35,3.41-4.7,5-7A142.65,142.65,0,0,0,243,247.1a73.13,73.13,0,0,0-8.35-60.52C234.38,186.2,234.12,185.82,233.85,185.45Z"/><path class="cls-2" d="M124.51,352.11a19.37,19.37,0,0,1-2.55-.18,23.64,23.64,0,0,1-18.87-15.54,40.49,40.49,0,0,1-2.94-16.5,7.83,7.83,0,0,0-3.28-6.71,61.22,61.22,0,0,1-19.06-22.27,72.92,72.92,0,0,1-3.66-9,7.87,7.87,0,0,0-6.93-5.38,58.58,58.58,0,0,1-19.9-5,65.31,65.31,0,0,1-32.16-34.68c-.35-.79-.49-1.12-.62-1.46A94,94,0,0,1,8,202.89a83,83,0,0,1,12.91-49.48,13.16,13.16,0,0,1,.95-1.34,101.79,101.79,0,0,1,26.5-23.48,7.87,7.87,0,0,0-1.64-14.17C36,110.88,27.91,99.86,24.44,84.2A17.72,17.72,0,0,1,36.51,63.44a7.84,7.84,0,0,0,4.75-4,29.4,29.4,0,0,1,7-9,67.08,67.08,0,0,1,9.67-6.82,50.06,50.06,0,0,0,4.82-3.27,46.89,46.89,0,0,0,3.75-4.72c4-5.53,10-13.94,21.11-17.12.42-.12.86-.22,1.3-.31a42.29,42.29,0,0,1,19.35.7l6.53,1.41a7.72,7.72,0,0,0,1.65.18,8,8,0,0,0,3.83-1,91.55,91.55,0,0,1,87.27-1A60.78,60.78,0,0,1,231,38.93c.21.31.41.63.59,1A62.7,62.7,0,0,1,239.91,69a82.18,82.18,0,0,1-4,31.84c-7.22,20.57-24.38,38.23-49.61,50.95a7.86,7.86,0,0,0,2,14.73,81.28,81.28,0,0,1,16.18,5,56.6,56.6,0,0,1,23,18.59l.52.76a65.22,65.22,0,0,1,7.44,54,134.94,134.94,0,0,1-21.25,41.38c-1.76,2.53-3.41,4.83-5.1,7.12l-.67,1c-21.42,28.93-42.61,46.15-66.69,54.22a44.9,44.9,0,0,1-17,3.62Z"/><path class="cls-3" d="M198.35,186h0a0,0,0,0,1,0,0,64.47,64.47,0,0,0-38.89-3.79c-13.24,2.6-25.73,8.11-37.8,13.44-5.76,2.54-11.72,5.18-17.76,7.48A29.85,29.85,0,0,1,92,205.64a10,10,0,0,1-8.8-5.24,10.29,10.29,0,0,1-.5-5.76v0a22.72,22.72,0,0,1,1.77-4.44c.08-.15,0-.32,0-.48A43,43,0,0,1,104,168.75c13-8,27.74-13.05,42-18,7.52-2.59,15.29-5.27,22.75-8.35,27.37-11.26,45.39-27.37,52.12-46.6a65.85,65.85,0,0,0,3.25-25.93A46.7,46.7,0,0,0,218,47.73a44.71,44.71,0,0,0-17.51-15.21,75.89,75.89,0,0,0-79.68,5.11l-16.2-3.48a26.48,26.48,0,0,0-12.69-.59c-5.83,1.67-9.31,6.52-12.69,11.21a49.17,49.17,0,0,1-5.35,6.61A43.67,43.67,0,0,1,66.11,57a51.59,51.59,0,0,0-7.46,5.2c-3.9,3.45-6.25,9.2-2.65,13.3a11,11,0,0,0,6.79,2.39,9.78,9.78,0,0,0,3.4-.6l5.14-.94C62.59,94,56.8,96.41,53.92,96c-5.65-.65-9.35-11.8-10.29-16a2,2,0,0,0-3.84.86c.4,1.84,4.27,18,13.69,19.09a8.22,8.22,0,0,0,1,.06c6.7,0,13.65-7.72,21.23-23.55a1.82,1.82,0,0,0,0-.9l4.53-.83,0,0L83.62,74c2.29-.4,4.76-.11,5.71.67a1.77,1.77,0,0,1,.41.49,4.39,4.39,0,0,1-2.22,3.12L71.65,91.13a2,2,0,0,0,2.41,3.1A65.19,65.19,0,0,1,103.38,82a47.89,47.89,0,0,0,21.45-5.39,2.33,2.33,0,0,0,.4-.27A31.82,31.82,0,0,0,136,54.76a21.15,21.15,0,0,0,.2-8.32,74.48,74.48,0,0,1,33-5.78,27.55,27.55,0,0,1,24.32,19.6s0,.05.05.08,0,0,0,.07c2.38,12.18-7.06,23.93-16.69,30.86-14.18,10.22-31.49,15.56-48.23,20.71-4.17,1.28-8.31,2.57-12.42,3.92a335,335,0,0,0-49.77,20.9,85.93,85.93,0,0,0-32.26,25,67.34,67.34,0,0,0-10.47,40.32,79.41,79.41,0,0,0,5.55,27.75c0,.06.08.08.11.14a49.1,49.1,0,0,0,24.38,27.18,43,43,0,0,0,29.8,2c.85-.25,1.79-.66,2.68-1v.13a55.4,55.4,0,0,0,5.65,25.51,45.28,45.28,0,0,0,20.58,20.36,57.06,57.06,0,0,0,7.69,2.61c-.19.43-.41.89-.63,1.34-2.24,4.56-6,12.19-1.71,22.67a8,8,0,0,0,6.35,5.51l.31,0h0a27.2,27.2,0,0,0,11.25-2.49c21.29-6.84,40.35-22.4,60-49,0,0,0-.06,0-.08,1.92-2.61,3.8-5.22,5.58-7.79a118.83,118.83,0,0,0,19-36.81,49.45,49.45,0,0,0-5.67-41A40.56,40.56,0,0,0,198.35,186ZM65.18,73.46a7,7,0,0,1-6.49-.85C57,70.68,59.1,67,61.25,65.09a49.57,49.57,0,0,1,6.92-4.8A46.47,46.47,0,0,0,76.6,54.2a51.5,51.5,0,0,0,5.81-7.14c3.11-4.33,6.06-8.42,10.41-9.68A22.61,22.61,0,0,1,97,37a23.48,23.48,0,0,1,6.6,1l20.83,4.48a.91.91,0,0,0-.08.13A6.89,6.89,0,0,0,122.74,46a1.29,1.29,0,0,0,0,.19,21,21,0,0,0-.17,3.79,16.77,16.77,0,0,1-1.14,7.71A15.74,15.74,0,0,1,107.65,68.8a20.87,20.87,0,0,1-5.05-.31c-1.74-.29-3.53-.71-5.3-1.13l-2.7-.62-.93-.18c-.58-.11-1.16-.24-1.74-.33s-1-.12-1.5-.18-.77-.1-1.15-.13c-.55,0-1.09,0-1.63,0-.31,0-.63,0-.93,0a11.57,11.57,0,0,0-1.58.26,7.52,7.52,0,0,0-.85.17,10,10,0,0,0-1.45.59c-.26.12-.53.23-.78.37a8.9,8.9,0,0,0-1.25,1,8.54,8.54,0,0,0-.71.64,11.31,11.31,0,0,0-1,1.42c-.14.22-.31.37-.44.61ZM123,309.92c.39-.79.72-1.48,1-2.14a56.09,56.09,0,0,0,17,.75c3.85-.54,7.67-1.4,11.47-2.27a69.31,69.31,0,0,1-28.22,26,4,4,0,0,1-2.79-2.73C117.84,320.52,121,314.13,123,309.92Zm93.59-70.82a112.16,112.16,0,0,1-12.27,26.73c-5,8-10.74,16.24-18.74,21.76a105,105,0,0,1-29.34,13.61c-.1,0-.15.16-.24.2a129.88,129.88,0,0,1-15.46,3.23,52.61,52.61,0,0,1-26.48-4,41.41,41.41,0,0,1-18.7-18.53,51.58,51.58,0,0,1-5.24-23.73c0-.55,0-1.1,0-1.65,0-.08-.07-.13-.08-.2a156.17,156.17,0,0,0,31.52-23.31,68.51,68.51,0,0,1,17.65-10.54s.05,0,.07-.06.07,0,.1,0a20.55,20.55,0,0,1,23,8.06,36.12,36.12,0,0,1,3.93,29.75,30.38,30.38,0,0,1-17.76,21,46,46,0,0,1-7.32.4,57.62,57.62,0,0,0,11.17-12.45,28.84,28.84,0,0,0,3.45-24.35,21.17,21.17,0,0,0-19.85-14.32A21.66,21.66,0,0,0,118,243.82a33.72,33.72,0,0,0-1.21,22,27.65,27.65,0,0,0,9.55,15.82,22.2,22.2,0,0,0,8.26,3.54c.07,0,.11.09.18.1l.3,0c.3.06.58.2.89.24l.3,0a2.06,2.06,0,0,0,.46-.15,50.14,50.14,0,0,0,5.46.41,51,51,0,0,0,7-.51l.3,0c.74-.11,1.49-.23,2.09-.36a41.68,41.68,0,0,0,23.22-10.5l.15-.15a32.89,32.89,0,0,0,8.27-19.44A35.35,35.35,0,0,0,163,218a34.63,34.63,0,0,0-24.91,1h-.11l-1.08.32a1.84,1.84,0,0,0-.8.66,72.58,72.58,0,0,0-17,10.35,152.67,152.67,0,0,1-31.76,23.38,41.16,41.16,0,0,1-4.84,1.77,39.17,39.17,0,0,1-27-1.77c-12.25-5.47-23.26-18.15-22.64-32.24.66-15.16,10-29.28,18.16-41.51a59.65,59.65,0,0,1,9.44-11,60.88,60.88,0,0,1,18.49-10.33,387.1,387.1,0,0,1,43.53-12.44,172,172,0,0,0,43.11-15.87,72.47,72.47,0,0,0,31.54-33.54,48.64,48.64,0,0,0,.12-37.83,31.45,31.45,0,0,0-27.73-22.16,79,79,0,0,0-34.58,6A7,7,0,0,0,132,39.87a3.35,3.35,0,0,0-2-.26l-3.65-.78A71.84,71.84,0,0,1,198.68,36a40.89,40.89,0,0,1,16,13.78,42.76,42.76,0,0,1,5.61,20.29,61.91,61.91,0,0,1-3,24.46c-8,22.88-31.55,36.68-49.89,44.23-7.37,3-15.08,5.7-22.54,8.28-14.49,5-29.47,10.16-42.69,18.27a47,47,0,0,0-22.75,26.41s-.44,1.89-.43,1.9a23.4,23.4,0,0,0,8.6,26.68,2,2,0,0,0,.6.29,20.6,20.6,0,0,0,5.56.76,19.91,19.91,0,0,0,5.73-.83,184.33,184.33,0,0,0,34.08-13.35c4.2-1.87,8.62-3.44,12.9-5s8.83-3.15,13.26-5.12a69.76,69.76,0,0,1,37.4-7.4,36.54,36.54,0,0,1,14.42,11.75A45.5,45.5,0,0,1,216.63,239.1Zm-81.27,42.31h0a18.27,18.27,0,0,1-6.62-2.87,23.84,23.84,0,0,1-8.14-13.64,30,30,0,0,1,1-19.56,17.7,17.7,0,0,1,14.56-10.69,17.16,17.16,0,0,1,16,11.61,24.88,24.88,0,0,1-3,21h0a54.15,54.15,0,0,1-13.27,14.18C135.71,281.42,135.53,281.43,135.36,281.41Z"/><path class="cls-3" d="M99.1,57a16.76,16.76,0,0,1-6.95-1.53,1.46,1.46,0,1,1,1.22-2.66A13.77,13.77,0,0,0,111.63,46c.18-.41.35-.81.49-1.23a1.46,1.46,0,1,1,2.76,1c-.17.5-.37,1-.59,1.48A16.77,16.77,0,0,1,99.1,57Z"/><path class="cls-3" d="M98.61,55.38a7.51,7.51,0,0,0,1.26,5,4.86,4.86,0,0,0,3.27,2.21,5.65,5.65,0,0,0,5-3.14,6.29,6.29,0,0,0,.4-6.91Z"/></g></g></svg>